{
.appVersion = "1361";
copyright = "Copyright (c) 2022. Anna Barrès";
customParameters = (
{
name = openTypeGaspRangeRecords;
value = (
{
rangeGaspBehavior = (
0,
1,
2,
3
);
rangeMaxPPEM = 65535;
}
);
},
{
name = openTypeHeadFlags;
value = (
);
},
{
name = openTypeHheaCaretOffset;
value = 0;
},
{
name = preferredFamilyName;
value = "Nouvelle police";
},
{
name = versionString;
value = "Version 1.000";
},
{
name = openTypeOS2Panose;
value = (
0,
0,
0,
0,
0,
0,
0,
0,
0,
0
);
},
{
name = openTypeOS2Selection;
value = (
);
},
{
name = strikeoutPosition;
value = 300;
},
{
name = strikeoutSize;
value = 50;
},
{
name = openTypeOS2SubscriptXOffset;
value = 0;
},
{
name = openTypeOS2SubscriptXSize;
value = 650;
},
{
name = openTypeOS2SubscriptYOffset;
value = 75;
},
{
name = openTypeOS2SubscriptYSize;
value = 600;
},
{
name = openTypeOS2SuperscriptXOffset;
value = 0;
},
{
name = openTypeOS2SuperscriptXSize;
value = 650;
},
{
name = openTypeOS2SuperscriptYOffset;
value = 350;
},
{
name = openTypeOS2SuperscriptYSize;
value = 600;
},
{
name = fsType;
value = (
2
);
},
{
name = blueFuzz;
value = 1;
},
{
name = blueScale;
value = 0.04;
},
{
name = blueShift;
value = 7;
},
{
name = postscriptForceBold;
value = 0;
},
{
name = postscriptIsFixedPitch;
value = 0;
}
);
date = "2022-10-19 14:23:03 +0000";
designer = "Anna Barrès";
familyName = Hacktype;
fontMaster = (
{
alignmentZones = (
"{800, 16}",
"{700, 16}",
"{500, 16}",
"{0, -20}",
"{-200, -16}"
);
ascender = 700;
capHeight = 700;
custom = Base;
customParameters = (
{
name = typoAscender;
value = 800;
},
{
name = typoDescender;
value = -200;
},
{
name = typoLineGap;
value = 100;
},
{
name = hheaAscender;
value = 800;
},
{
name = hheaDescender;
value = -200;
},
{
name = hheaLineGap;
value = 100;
},
{
name = winAscent;
value = 750;
},
{
name = winDescent;
value = 250;
},
{
name = underlineThickness;
value = 50;
},
{
name = underlinePosition;
value = -100;
}
);
descender = -200;
guideLines = (
{
name = m;
position = "{0, 250}";
}

glyphs = (
{
glyphname = A;
lastChange = "2022-11-29 09:04:56 +0000";
layers = (
{
layerId = "A69B6916-D86B-4DB4-B111-C864CDAF75E2";
paths = (
{
closed = 1;
nodes = (
"50 629 LINE SMOOTH",
"50 668 OFFCURVE",
"79 700 OFFCURVE",
"119 700 CURVE SMOOTH",
"730 700 LINE SMOOTH",
"770 700 OFFCURVE",
"802 668 OFFCURVE",
"802 629 CURVE SMOOTH",
"802 69 LINE SMOOTH",
"802 29 OFFCURVE",
"770 0 OFFCURVE",
"730 0 CURVE SMOOTH",
"686 0 LINE SMOOTH",
"646 0 OFFCURVE",
"619 -35 OFFCURVE",
"619 0 CURVE",
"616 0 LINE",
"613 0 OFFCURVE",
"610 0 OFFCURVE",
"602 0 CURVE SMOOTH",
"250 0 LINE SMOOTH",
"242 0 OFFCURVE",
"242 0 OFFCURVE",
"236 0 CURVE",
"233 0 LINE",
"223 0 OFFCURVE",
"205 0 OFFCURVE",
"166 0 CURVE SMOOTH",
"119 0 LINE SMOOTH",
"79 0 OFFCURVE",
"50 31 OFFCURVE",
"50 70 CURVE SMOOTH"
);
},
{
closed = 1;
nodes = (
"416 269 LINE SMOOTH",
"416 275 OFFCURVE",
"416 274 OFFCURVE",
"416 283 CURVE SMOOTH",
"416 297 LINE SMOOTH",
"416 305 OFFCURVE",
"416 301 OFFCURVE",
"416 311 CURVE SMOOTH",
"416 311 LINE SMOOTH",
"416 305 OFFCURVE",
"416 305 OFFCURVE",
"416 297 CURVE SMOOTH",
"416 283 LINE SMOOTH",
"416 274 OFFCURVE",
"416 275 OFFCURVE",
"416 269 CURVE SMOOTH"
);
}
);
width = 852;
},
{
layerId = "D5846C3A-916F-42E8-8837-99B20A1F62F9";
paths = (
{
closed = 1;
nodes = (
"50 629 LINE SMOOTH",
"50 668 OFFCURVE",
"79 700 OFFCURVE",
"119 700 CURVE SMOOTH",
"730 700 LINE SMOOTH",
"770 700 OFFCURVE",
"802 668 OFFCURVE",
"802 629 CURVE SMOOTH",
"802 69 LINE SMOOTH",
"802 29 OFFCURVE",
"770 0 OFFCURVE",
"730 0 CURVE SMOOTH",
"686 0 LINE SMOOTH",
"646 0 OFFCURVE",
"616 -6 OFFCURVE",
"616 33 CURVE SMOOTH",
"616 36 LINE SMOOTH",
"616 44 OFFCURVE",
"610 50 OFFCURVE",
"602 50 CURVE SMOOTH",
"250 50 LINE SMOOTH",
"242 50 OFFCURVE",
"236 44 OFFCURVE",
"236 36 CURVE SMOOTH",
"236 33 LINE SMOOTH",
"236 -6 OFFCURVE",
"205 0 OFFCURVE",
"166 0 CURVE SMOOTH",
"119 0 LINE SMOOTH",
"79 0 OFFCURVE",
"50 31 OFFCURVE",
"50 70 CURVE SMOOTH"
);
},
{
closed = 1;
nodes = (
"466 269 LINE SMOOTH",
"474 269 OFFCURVE",
"480 274 OFFCURVE",
"480 283 CURVE SMOOTH",
"480 297 LINE SMOOTH",
"480 305 OFFCURVE",
"474 311 OFFCURVE",
"466 311 CURVE SMOOTH",
"366 311 LINE SMOOTH",
"358 311 OFFCURVE",
"352 305 OFFCURVE",
"352 297 CURVE SMOOTH",
"352 283 LINE SMOOTH",
"352 274 OFFCURVE",
"358 269 OFFCURVE",
"366 269 CURVE SMOOTH"
);
}
);
width = 852;
},
{
layerId = "B57C1444-1622-4D1A-A412-9270A2806B96";
paths = (
{
closed = 1;
nodes = (
"50 629 LINE SMOOTH",
"50 668 OFFCURVE",
"79 700 OFFCURVE",
"119 700 CURVE SMOOTH",
"730 700 LINE SMOOTH",
"770 700 OFFCURVE",
"802 668 OFFCURVE",
"802 629 CURVE SMOOTH",
"802 69 LINE SMOOTH",
"802 29 OFFCURVE",
"770 0 OFFCURVE",
"730 0 CURVE SMOOTH",
"686 0 LINE SMOOTH",
"646 0 OFFCURVE",
"616 11 OFFCURVE",
"616 50 CURVE SMOOTH",
"616 53 LINE SMOOTH",
"616 61 OFFCURVE",
"610 67 OFFCURVE",
"602 67 CURVE SMOOTH",
"250 67 LINE SMOOTH",
"242 67 OFFCURVE",
"236 61 OFFCURVE",
"236 53 CURVE SMOOTH",
"236 50 LINE SMOOTH",
"236 11 OFFCURVE",
"205 0 OFFCURVE",
"166 0 CURVE SMOOTH",
"119 0 LINE SMOOTH",
"79 0 OFFCURVE",
"50 31 OFFCURVE",
"50 70 CURVE SMOOTH"
);
},
{
closed = 1;
nodes = (
"516 269 LINE SMOOTH",
"524 269 OFFCURVE",
"530 274 OFFCURVE",
"530 283 CURVE SMOOTH",
"530 297 LINE SMOOTH",
"530 305 OFFCURVE",
"524 311 OFFCURVE",
"516 311 CURVE SMOOTH",
"316 311 LINE SMOOTH",
"308 311 OFFCURVE",
"302 305 OFFCURVE",
"302 297 CURVE SMOOTH",
"302 283 LINE SMOOTH",
"302 274 OFFCURVE",
"308 269 OFFCURVE",
"316 269 CURVE SMOOTH"
);
}
);
width = 852;
},
{
layerId = "106BB046-A4A4-4FD5-B9BF-C98528C7FAAB";
paths = (
{
closed = 1;
nodes = (
"50 629 LINE SMOOTH",
"50 668 OFFCURVE",
"79 700 OFFCURVE",
"119 700 CURVE SMOOTH",
"730 700 LINE SMOOTH",
"770 700 OFFCURVE",
"802 668 OFFCURVE",
"802 629 CURVE SMOOTH",
"802 69 LINE SMOOTH",
"802 29 OFFCURVE",
"770 0 OFFCURVE",
"730 0 CURVE SMOOTH",
"686 0 LINE SMOOTH",
"646 0 OFFCURVE",
"616 31 OFFCURVE",
"616 70 CURVE SMOOTH",
"616 73 LINE SMOOTH",
"616 81 OFFCURVE",
"610 87 OFFCURVE",
"602 87 CURVE SMOOTH",
"250 87 LINE SMOOTH",
"242 87 OFFCURVE",
"236 81 OFFCURVE",
"236 73 CURVE SMOOTH",
"236 70 LINE SMOOTH",
"236 31 OFFCURVE",
"205 0 OFFCURVE",
"166 0 CURVE SMOOTH",
"119 0 LINE SMOOTH",
"79 0 OFFCURVE",
"50 31 OFFCURVE",
"50 70 CURVE SMOOTH"
);
},
{
closed = 1;
nodes = (
"606 269 LINE SMOOTH",
"614 269 OFFCURVE",
"620 274 OFFCURVE",
"620 283 CURVE SMOOTH",
"620 297 LINE SMOOTH",
"620 305 OFFCURVE",
"614 311 OFFCURVE",
"606 311 CURVE SMOOTH",
"246 311 LINE SMOOTH",
"238 311 OFFCURVE",
"232 305 OFFCURVE",
"232 297 CURVE SMOOTH",
"232 283 LINE SMOOTH",
"232 274 OFFCURVE",
"238 269 OFFCURVE",
"246 269 CURVE SMOOTH"
);
}
);
width = 852;
}
);
unicode = 0041;
},
{
glyphname = B;
lastChange = "2022-11-29 09:28:51 +0000";
layers = (
{
layerId = "A69B6916-D86B-4DB4-B111-C864CDAF75E2";
paths = (
{
closed = 1;
nodes = (
"687 700 LINE SMOOTH",
"753 700 OFFCURVE",
"802 651 OFFCURVE",
"802 585 CURVE SMOOTH",
"802 442 LINE SMOOTH",
"802 402 OFFCURVE",
"802 385 OFFCURVE",
"802 371 CURVE",
"802 365 LINE",
"802 360 OFFCURVE",
"802 365 OFFCURVE",
"802 357 CURVE SMOOTH",
"802 343 LINE SMOOTH",
"802 335 OFFCURVE",
"802 338 OFFCURVE",
"802 335 CURVE",
"802 329 LINE",
"802 304 OFFCURVE",
"802 298 OFFCURVE",
"802 258 CURVE",
"800 115 LINE SMOOTH",
"799 49 OFFCURVE",
"751 0 OFFCURVE",
"686 0 CURVE SMOOTH",
"121 0 LINE SMOOTH",
"81 0 OFFCURVE",
"50 31 OFFCURVE",
"50 71 CURVE SMOOTH",
"50 629 LINE SMOOTH",
"50 669 OFFCURVE",
"81 700 OFFCURVE",
"121 700 CURVE SMOOTH"
);
},
{
closed = 1;
nodes = (
"424 329 LINE SMOOTH",
"424 320 OFFCURVE",
"424 323 OFFCURVE",
"424 315 CURVE SMOOTH",
"424 301 LINE SMOOTH",
"424 293 OFFCURVE",
"424 291 OFFCURVE",
"424 287 CURVE SMOOTH",
"424 287 LINE SMOOTH",
"424 291 OFFCURVE",
"424 293 OFFCURVE",
"424 301 CURVE SMOOTH",
"424 315 LINE SMOOTH",
"424 323 OFFCURVE",
"424 323 OFFCURVE",
"424 329 CURVE SMOOTH"
);
},
{
closed = 1;
nodes = (
"424 413 LINE SMOOTH",
"424 406 OFFCURVE",
"424 407 OFFCURVE",
"424 399 CURVE SMOOTH",
"424 385 LINE SMOOTH",
"424 377 OFFCURVE",
"424 377 OFFCURVE",
"424 371 CURVE SMOOTH",
"424 371 LINE SMOOTH",
"424 377 OFFCURVE",
"424 377 OFFCURVE",
"424 385 CURVE SMOOTH",
"424 399 LINE SMOOTH",
"424 407 OFFCURVE",
"424 405 OFFCURVE",
"424 413 CURVE SMOOTH"
);
}
);
width = 852;
},
{
layerId = "D5846C3A-916F-42E8-8837-99B20A1F62F9";
paths = (
{
closed = 1;
nodes = (
"687 700 LINE SMOOTH",
"753 700 OFFCURVE",
"802 651 OFFCURVE",
"802 585 CURVE SMOOTH",
"802 442 LINE SMOOTH",
"802 402 OFFCURVE",
"804 371 OFFCURVE",
"775 371 CURVE SMOOTH",
"764 371 LINE SMOOTH",
"756 371 OFFCURVE",
"750 365 OFFCURVE",
"750 357 CURVE SMOOTH",
"750 343 LINE SMOOTH",
"750 335 OFFCURVE",
"756 329 OFFCURVE",
"764 329 CURVE SMOOTH",
"775 329 LINE SMOOTH",
"800 329 OFFCURVE",
"800 298 OFFCURVE",
"800 258 CURVE SMOOTH",
"800 115 LINE SMOOTH",
"800 49 OFFCURVE",
"751 0 OFFCURVE",
"686 0 CURVE SMOOTH",
"121 0 LINE SMOOTH",
"81 0 OFFCURVE",
"50 31 OFFCURVE",
"50 71 CURVE SMOOTH",
"50 629 LINE SMOOTH",
"50 669 OFFCURVE",
"81 700 OFFCURVE",
"121 700 CURVE SMOOTH"
);
},
{
closed = 1;
nodes = (
"405 329 LINE SMOOTH",
"396 329 OFFCURVE",
"391 323 OFFCURVE",
"391 315 CURVE SMOOTH",
"391 301 LINE SMOOTH",
"391 293 OFFCURVE",
"396 287 OFFCURVE",
"405 287 CURVE SMOOTH",
"444 287 LINE SMOOTH",
"453 287 OFFCURVE",
"458 293 OFFCURVE",
"458 301 CURVE SMOOTH",
"458 315 LINE SMOOTH",
"458 323 OFFCURVE",
"453 329 OFFCURVE",
"444 329 CURVE SMOOTH"
);
},
{
closed = 1;
nodes = (
"405 413 LINE SMOOTH",
"396 413 OFFCURVE",
"391 407 OFFCURVE",
"391 399 CURVE SMOOTH",
"391 385 LINE SMOOTH",
"391 377 OFFCURVE",
"396 371 OFFCURVE",
"405 371 CURVE SMOOTH",
"444 371 LINE SMOOTH",
"453 371 OFFCURVE",
"458 377 OFFCURVE",
"458 385 CURVE SMOOTH",
"458 399 LINE SMOOTH",
"458 407 OFFCURVE",
"453 413 OFFCURVE",
"444 413 CURVE SMOOTH"
);
}
);
width = 852;
},
{
background = {
paths = (
{
closed = 1;
nodes = (
"687 700 LINE SMOOTH",
"753 700 OFFCURVE",
"802 651 OFFCURVE",
"802 585 CURVE SMOOTH",
"802 442 LINE SMOOTH",
"802 402 OFFCURVE",
"771 371 OFFCURVE",
"730 371 CURVE SMOOTH",
"694 371 LINE SMOOTH",
"686 371 OFFCURVE",
"680 365 OFFCURVE",
"680 357 CURVE SMOOTH",
"680 343 LINE SMOOTH",
"680 335 OFFCURVE",
"686 329 OFFCURVE",
"694 329 CURVE SMOOTH",
"729 329 LINE SMOOTH",
"770 329 OFFCURVE",
"800 298 OFFCURVE",
"800 258 CURVE SMOOTH",
"800 115 LINE SMOOTH",
"800 49 OFFCURVE",
"751 0 OFFCURVE",
"686 0 CURVE SMOOTH",
"121 0 LINE SMOOTH",
"81 0 OFFCURVE",
"50 31 OFFCURVE",
"50 71 CURVE SMOOTH",
"50 629 LINE SMOOTH",
"50 669 OFFCURVE",
"81 700 OFFCURVE",
"121 700 CURVE SMOOTH"
);
},
{
closed = 1;
nodes = (
"285 329 LINE SMOOTH",
"276 329 OFFCURVE",
"271 323 OFFCURVE",
"271 315 CURVE SMOOTH",
"271 301 LINE SMOOTH",
"271 293 OFFCURVE",
"276 287 OFFCURVE",
"285 287 CURVE SMOOTH",
"564 287 LINE SMOOTH",
"573 287 OFFCURVE",
"578 293 OFFCURVE",
"578 301 CURVE SMOOTH",
"578 315 LINE SMOOTH",
"578 323 OFFCURVE",
"573 329 OFFCURVE",
"564 329 CURVE SMOOTH"
);
},
{
closed = 1;
nodes = (
"285 413 LINE SMOOTH",
"276 413 OFFCURVE",
"271 407 OFFCURVE",
"271 399 CURVE SMOOTH",
"271 385 LINE SMOOTH",
"271 377 OFFCURVE",
"276 371 OFFCURVE",
"285 371 CURVE SMOOTH",
"564 371 LINE SMOOTH",
"573 371 OFFCURVE",
"578 377 OFFCURVE",
"578 385 CURVE SMOOTH",
"578 399 LINE SMOOTH",
"578 407 OFFCURVE",
"573 413 OFFCURVE",
"564 413 CURVE SMOOTH"
);
}
);
};
layerId = "B57C1444-1622-4D1A-A412-9270A2806B96";
paths = (
{
closed = 1;
nodes = (
"687 700 LINE SMOOTH",
"753 700 OFFCURVE",
"802 651 OFFCURVE",
"802 585 CURVE SMOOTH",
"802 442 LINE SMOOTH",
"802 402 OFFCURVE",
"771 371 OFFCURVE",
"730 371 CURVE SMOOTH",
"714 371 LINE SMOOTH",
"706 371 OFFCURVE",
"700 365 OFFCURVE",
"700 357 CURVE SMOOTH",
"700 343 LINE SMOOTH",
"700 335 OFFCURVE",
"706 329 OFFCURVE",
"714 329 CURVE SMOOTH",
"729 329 LINE SMOOTH",
"770 329 OFFCURVE",
"800 298 OFFCURVE",
"800 258 CURVE SMOOTH",
"800 115 LINE SMOOTH",
"800 49 OFFCURVE",
"751 0 OFFCURVE",
"686 0 CURVE SMOOTH",
"121 0 LINE SMOOTH",
"81 0 OFFCURVE",
"50 31 OFFCURVE",
"50 71 CURVE SMOOTH",
"50 629 LINE SMOOTH",
"50 669 OFFCURVE",
"81 700 OFFCURVE",
"121 700 CURVE SMOOTH"
);
},
{
closed = 1;
nodes = (
"325 329 LINE SMOOTH",
"316 329 OFFCURVE",
"311 323 OFFCURVE",
"311 315 CURVE SMOOTH",
"311 301 LINE SMOOTH",
"311 293 OFFCURVE",
"316 287 OFFCURVE",
"325 287 CURVE SMOOTH",
"524 287 LINE SMOOTH",
"533 287 OFFCURVE",
"538 293 OFFCURVE",
"538 301 CURVE SMOOTH",
"538 315 LINE SMOOTH",
"538 323 OFFCURVE",
"533 329 OFFCURVE",
"524 329 CURVE SMOOTH"
);
},
{
closed = 1;
nodes = (
"325 413 LINE SMOOTH",
"316 413 OFFCURVE",
"311 407 OFFCURVE",
"311 399 CURVE SMOOTH",
"311 385 LINE SMOOTH",
"311 377 OFFCURVE",
"316 371 OFFCURVE",
"325 371 CURVE SMOOTH",
"524 371 LINE SMOOTH",
"533 371 OFFCURVE",
"538 377 OFFCURVE",
"538 385 CURVE SMOOTH",
"538 399 LINE SMOOTH",
"538 407 OFFCURVE",
"533 413 OFFCURVE",
"524 413 CURVE SMOOTH"
);
}
);
width = 852;
},
{
layerId = "106BB046-A4A4-4FD5-B9BF-C98528C7FAAB";
paths = (
{
closed = 1;
nodes = (
"687 700 LINE SMOOTH",
"753 700 OFFCURVE",
"802 651 OFFCURVE",
"802 585 CURVE SMOOTH",
"802 442 LINE SMOOTH",
"802 402 OFFCURVE",
"771 371 OFFCURVE",
"730 371 CURVE SMOOTH",
"684 371 LINE SMOOTH",
"676 371 OFFCURVE",
"670 365 OFFCURVE",
"670 357 CURVE SMOOTH",
"670 343 LINE SMOOTH",
"670 335 OFFCURVE",
"676 329 OFFCURVE",
"684 329 CURVE SMOOTH",
"729 329 LINE SMOOTH",
"770 329 OFFCURVE",
"800 298 OFFCURVE",
"800 258 CURVE SMOOTH",
"800 115 LINE SMOOTH",
"800 49 OFFCURVE",
"751 0 OFFCURVE",
"686 0 CURVE SMOOTH",
"121 0 LINE SMOOTH",
"81 0 OFFCURVE",
"50 31 OFFCURVE",
"50 71 CURVE SMOOTH",
"50 629 LINE SMOOTH",
"50 669 OFFCURVE",
"81 700 OFFCURVE",
"121 700 CURVE SMOOTH"
);
},
{
closed = 1;
nodes = (
"285 329 LINE SMOOTH",
"276 329 OFFCURVE",
"271 323 OFFCURVE",
"271 315 CURVE SMOOTH",
"271 301 LINE SMOOTH",
"271 293 OFFCURVE",
"276 287 OFFCURVE",
"285 287 CURVE SMOOTH",
"564 287 LINE SMOOTH",
"573 287 OFFCURVE",
"578 293 OFFCURVE",
"578 301 CURVE SMOOTH",
"578 315 LINE SMOOTH",
"578 323 OFFCURVE",
"573 329 OFFCURVE",
"564 329 CURVE SMOOTH"
);
},
{
closed = 1;
nodes = (
"285 413 LINE SMOOTH",
"276 413 OFFCURVE",
"271 407 OFFCURVE",
"271 399 CURVE SMOOTH",
"271 385 LINE SMOOTH",
"271 377 OFFCURVE",
"276 371 OFFCURVE",
"285 371 CURVE SMOOTH",
"564 371 LINE SMOOTH",
"573 371 OFFCURVE",
"578 377 OFFCURVE",
"578 385 CURVE SMOOTH",
"578 399 LINE SMOOTH",
"578 407 OFFCURVE",
"573 413 OFFCURVE",
"564 413 CURVE SMOOTH"
);
}
);
width = 852;
}
);
unicode = 0042;
},
{
glyphname = C;
lastChange = "2022-11-29 12:47:17 +0000";
layers = (
{
layerId = "A69B6916-D86B-4DB4-B111-C864CDAF75E2";
paths = (
{
closed = 1;
nodes = (
"50 71 LINE SMOOTH",
"50 31 OFFCURVE",
"81 0 OFFCURVE",
"121 0 CURVE SMOOTH",
"730 0 LINE SMOOTH",
"771 0 OFFCURVE",
"802 31 OFFCURVE",
"802 71 CURVE SMOOTH",
"802 258 LINE SMOOTH",
"802 298 OFFCURVE",
"802 287 OFFCURVE",
"802 329 CURVE",
"802 339 LINE",
"802 335 OFFCURVE",
"802 335 OFFCURVE",
"802 343 CURVE",
"802 357 LINE",
"802 365 OFFCURVE",
"802 365 OFFCURVE",
"802 361 CURVE",
"802 371 LINE",
"802 411 OFFCURVE",
"802 402 OFFCURVE",
"802 442 CURVE SMOOTH",
"802 629 LINE SMOOTH",
"802 669 OFFCURVE",
"771 700 OFFCURVE",
"730 700 CURVE SMOOTH",
"121 700 LINE SMOOTH",
"81 700 OFFCURVE",
"50 669 OFFCURVE",
"50 629 CURVE SMOOTH"
);
}
);
width = 852;
},
{
layerId = "D5846C3A-916F-42E8-8837-99B20A1F62F9";
paths = (
{
closed = 1;
nodes = (
"50 71 LINE SMOOTH",
"50 31 OFFCURVE",
"81 0 OFFCURVE",
"121 0 CURVE SMOOTH",
"730 0 LINE SMOOTH",
"771 0 OFFCURVE",
"802 31 OFFCURVE",
"802 71 CURVE SMOOTH",
"802 258 LINE SMOOTH",
"802 298 OFFCURVE",
"771 329 OFFCURVE",
"730 329 CURVE SMOOTH",
"716 329 LINE SMOOTH",
"708 329 OFFCURVE",
"702 335 OFFCURVE",
"702 343 CURVE SMOOTH",
"702 357 LINE SMOOTH",
"702 365 OFFCURVE",
"708 371 OFFCURVE",
"716 371 CURVE SMOOTH",
"730 371 LINE SMOOTH",
"771 371 OFFCURVE",
"802 402 OFFCURVE",
"802 442 CURVE SMOOTH",
"802 629 LINE SMOOTH",
"802 669 OFFCURVE",
"771 700 OFFCURVE",
"730 700 CURVE SMOOTH",
"121 700 LINE SMOOTH",
"81 700 OFFCURVE",
"50 669 OFFCURVE",
"50 629 CURVE SMOOTH"
);
}
);
width = 852;
},
{
layerId = "B57C1444-1622-4D1A-A412-9270A2806B96";
paths = (
{
closed = 1;
nodes = (
"50 71 LINE SMOOTH",
"50 31 OFFCURVE",
"81 0 OFFCURVE",
"121 0 CURVE SMOOTH",
"730 0 LINE SMOOTH",
"771 0 OFFCURVE",
"802 31 OFFCURVE",
"802 71 CURVE SMOOTH",
"802 258 LINE SMOOTH",
"802 298 OFFCURVE",
"771 329 OFFCURVE",
"730 329 CURVE SMOOTH",
"426 329 LINE SMOOTH",
"418 329 OFFCURVE",
"412 335 OFFCURVE",
"412 343 CURVE SMOOTH",
"412 357 LINE SMOOTH",
"412 365 OFFCURVE",
"418 371 OFFCURVE",
"426 371 CURVE SMOOTH",
"730 371 LINE SMOOTH",
"771 371 OFFCURVE",
"802 402 OFFCURVE",
"802 442 CURVE SMOOTH",
"802 629 LINE SMOOTH",
"802 669 OFFCURVE",
"771 700 OFFCURVE",
"730 700 CURVE SMOOTH",
"121 700 LINE SMOOTH",
"81 700 OFFCURVE",
"50 669 OFFCURVE",
"50 629 CURVE SMOOTH"
);
}
);
width = 852;
},
{
layerId = "106BB046-A4A4-4FD5-B9BF-C98528C7FAAB";
paths = (
{
closed = 1;
nodes = (
"50 71 LINE SMOOTH",
"50 31 OFFCURVE",
"81 0 OFFCURVE",
"121 0 CURVE SMOOTH",
"730 0 LINE SMOOTH",
"771 0 OFFCURVE",
"802 31 OFFCURVE",
"802 71 CURVE SMOOTH",
"802 258 LINE SMOOTH",
"802 298 OFFCURVE",
"771 329 OFFCURVE",
"730 329 CURVE SMOOTH",
"246 329 LINE SMOOTH",
"238 329 OFFCURVE",
"232 335 OFFCURVE",
"232 343 CURVE SMOOTH",
"232 357 LINE SMOOTH",
"232 365 OFFCURVE",
"238 371 OFFCURVE",
"246 371 CURVE SMOOTH",
"730 371 LINE SMOOTH",
"771 371 OFFCURVE",
"802 402 OFFCURVE",
"802 442 CURVE SMOOTH",
"802 629 LINE SMOOTH",
"802 669 OFFCURVE",
"771 700 OFFCURVE",
"730 700 CURVE SMOOTH",
"121 700 LINE SMOOTH",
"81 700 OFFCURVE",
"50 669 OFFCURVE",
"50 629 CURVE SMOOTH"
);
}
);
width = 852;
}
);
unicode = 0043;
},
{
glyphname = D;
lastChange = "2022-11-29 12:48:57 +0000";
layers = (
{
layerId = "A69B6916-D86B-4DB4-B111-C864CDAF75E2";
paths = (
{
closed = 1;
nodes = (
"50 31 OFFCURVE",
"81 0 OFFCURVE",
"122 0 CURVE",
"688 0 LINE",
"753 0 OFFCURVE",
"801 48 OFFCURVE",
"801 115 CURVE",
"801 585 LINE",
"801 651 OFFCURVE",
"753 700 OFFCURVE",
"688 700 CURVE",
"122 700 LINE",
"81 700 OFFCURVE",
"50 669 OFFCURVE",
"50 629 CURVE",
"50 72 LINE"
);
},
{
closed = 1;
nodes = (
"439 372 LINE",
"439 368 OFFCURVE",
"439 366 OFFCURVE",
"439 358 CURVE",
"439 343 LINE",
"439 334 OFFCURVE",
"439 333 OFFCURVE",
"439 329 CURVE",
"439 329 LINE",
"439 333 OFFCURVE",
"439 334 OFFCURVE",
"439 343 CURVE",
"439 358 LINE",
"439 366 OFFCURVE",
"439 367 OFFCURVE",
"439 372 CURVE"
);
}
);
width = 851;
},
{
layerId = "D5846C3A-916F-42E8-8837-99B20A1F62F9";
paths = (
{
closed = 1;
nodes = (
"50 31 OFFCURVE",
"81 0 OFFCURVE",
"122 0 CURVE",
"688 0 LINE",
"753 0 OFFCURVE",
"801 48 OFFCURVE",
"801 115 CURVE",
"801 585 LINE",
"801 651 OFFCURVE",
"753 700 OFFCURVE",
"688 700 CURVE",
"122 700 LINE",
"81 700 OFFCURVE",
"50 669 OFFCURVE",
"50 629 CURVE",
"50 72 LINE"
);
},
{
closed = 1;
nodes = (
"456 372 LINE",
"464 372 OFFCURVE",
"469 366 OFFCURVE",
"469 358 CURVE",
"469 343 LINE",
"469 334 OFFCURVE",
"464 329 OFFCURVE",
"456 329 CURVE",
"419 329 LINE",
"411 329 OFFCURVE",
"405 334 OFFCURVE",
"405 343 CURVE",
"405 358 LINE",
"405 366 OFFCURVE",
"411 372 OFFCURVE",
"419 372 CURVE"
);
}
);
width = 851;
},
{
layerId = "B57C1444-1622-4D1A-A412-9270A2806B96";
paths = (
{
closed = 1;
nodes = (
"50 31 OFFCURVE",
"81 0 OFFCURVE",
"122 0 CURVE",
"688 0 LINE",
"753 0 OFFCURVE",
"801 48 OFFCURVE",
"801 115 CURVE",
"801 585 LINE",
"801 651 OFFCURVE",
"753 700 OFFCURVE",
"688 700 CURVE",
"122 700 LINE",
"81 700 OFFCURVE",
"50 669 OFFCURVE",
"50 629 CURVE",
"50 72 LINE"
);
},
{
closed = 1;
nodes = (
"566 372 LINE",
"574 372 OFFCURVE",
"579 366 OFFCURVE",
"579 358 CURVE",
"579 343 LINE",
"579 334 OFFCURVE",
"574 329 OFFCURVE",
"566 329 CURVE",
"339 329 LINE",
"331 329 OFFCURVE",
"325 334 OFFCURVE",
"325 343 CURVE",
"325 358 LINE",
"325 366 OFFCURVE",
"331 372 OFFCURVE",
"339 372 CURVE"
);
}
);
width = 851;
},
{
layerId = "106BB046-A4A4-4FD5-B9BF-C98528C7FAAB";
paths = (
{
closed = 1;
nodes = (
"50 31 OFFCURVE",
"81 0 OFFCURVE",
"122 0 CURVE SMOOTH",
"688 0 LINE SMOOTH",
"753 0 OFFCURVE",
"801 48 OFFCURVE",
"801 115 CURVE SMOOTH",
"801 585 LINE SMOOTH",
"801 651 OFFCURVE",
"753 700 OFFCURVE",
"688 700 CURVE SMOOTH",
"122 700 LINE SMOOTH",
"81 700 OFFCURVE",
"50 669 OFFCURVE",
"50 629 CURVE SMOOTH",
"50 72 LINE SMOOTH"
);
},
{
closed = 1;
nodes = (
"606 372 LINE SMOOTH",
"614 372 OFFCURVE",
"619 366 OFFCURVE",
"619 358 CURVE SMOOTH",
"619 343 LINE SMOOTH",
"619 334 OFFCURVE",
"614 329 OFFCURVE",
"606 329 CURVE SMOOTH",
"299 329 LINE SMOOTH",
"291 329 OFFCURVE",
"285 334 OFFCURVE",
"285 343 CURVE SMOOTH",
"285 358 LINE SMOOTH",
"285 366 OFFCURVE",
"291 372 OFFCURVE",
"299 372 CURVE SMOOTH"
);
}
);
width = 851;
}
);
unicode = 0044;
},
{
glyphname = E;
lastChange = "2022-11-29 09:41:41 +0000";
layers = (
{
layerId = "A69B6916-D86B-4DB4-B111-C864CDAF75E2";
paths = (
{
closed = 1;
nodes = (
"50 71 LINE SMOOTH",
"50 31 OFFCURVE",
"81 0 OFFCURVE",
"121 0 CURVE SMOOTH",
"730 0 LINE SMOOTH",
"771 0 OFFCURVE",
"802 31 OFFCURVE",
"802 71 CURVE SMOOTH",
"802 111 LINE SMOOTH",
"802 151 OFFCURVE",
"802 164 OFFCURVE",
"802 182 CURVE",
"802 192 LINE",
"802 197 OFFCURVE",
"802 188 OFFCURVE",
"802 196 CURVE SMOOTH",
"802 210 LINE SMOOTH",
"802 218 OFFCURVE",
"802 208 OFFCURVE",
"802 214 CURVE",
"802 224 LINE",
"802 238 OFFCURVE",
"802 255 OFFCURVE",
"802 295 CURVE SMOOTH",
"802 405 LINE SMOOTH",
"802 445 OFFCURVE",
"802 454 OFFCURVE",
"802 476 CURVE",
"802 481 LINE",
"802 486 OFFCURVE",
"802 482 OFFCURVE",
"802 490 CURVE SMOOTH",
"802 504 LINE SMOOTH",
"802 512 OFFCURVE",
"802 511 OFFCURVE",
"802 514 CURVE",
"802 518 LINE",
"802 530 OFFCURVE",
"802 549 OFFCURVE",
"802 589 CURVE SMOOTH",
"802 629 LINE SMOOTH",
"802 669 OFFCURVE",
"771 700 OFFCURVE",
"730 700 CURVE SMOOTH",
"121 700 LINE SMOOTH",
"81 700 OFFCURVE",
"50 669 OFFCURVE",
"50 629 CURVE SMOOTH"
);
}
);
width = 852;
},
{
layerId = "D5846C3A-916F-42E8-8837-99B20A1F62F9";
paths = (
{
closed = 1;
nodes = (
"50 71 LINE SMOOTH",
"50 31 OFFCURVE",
"81 0 OFFCURVE",
"121 0 CURVE SMOOTH",
"730 0 LINE SMOOTH",
"771 0 OFFCURVE",
"802 31 OFFCURVE",
"802 71 CURVE SMOOTH",
"802 111 LINE SMOOTH",
"802 151 OFFCURVE",
"771 182 OFFCURVE",
"730 182 CURVE SMOOTH",
"682 182 LINE SMOOTH",
"673 182 OFFCURVE",
"668 188 OFFCURVE",
"668 196 CURVE SMOOTH",
"668 210 LINE SMOOTH",
"668 218 OFFCURVE",
"673 224 OFFCURVE",
"682 224 CURVE SMOOTH",
"730 224 LINE SMOOTH",
"771 224 OFFCURVE",
"802 255 OFFCURVE",
"802 295 CURVE SMOOTH",
"802 405 LINE SMOOTH",
"802 445 OFFCURVE",
"771 476 OFFCURVE",
"730 476 CURVE SMOOTH",
"682 476 LINE SMOOTH",
"673 476 OFFCURVE",
"668 482 OFFCURVE",
"668 490 CURVE SMOOTH",
"668 504 LINE SMOOTH",
"668 512 OFFCURVE",
"673 518 OFFCURVE",
"682 518 CURVE SMOOTH",
"730 518 LINE SMOOTH",
"771 518 OFFCURVE",
"802 549 OFFCURVE",
"802 589 CURVE SMOOTH",
"802 629 LINE SMOOTH",
"802 669 OFFCURVE",
"771 700 OFFCURVE",
"730 700 CURVE SMOOTH",
"121 700 LINE SMOOTH",
"81 700 OFFCURVE",
"50 669 OFFCURVE",
"50 629 CURVE SMOOTH"
);
}
);
width = 852;
},
{
layerId = "B57C1444-1622-4D1A-A412-9270A2806B96";
paths = (
{
closed = 1;
nodes = (
"50 71 LINE SMOOTH",
"50 31 OFFCURVE",
"81 0 OFFCURVE",
"121 0 CURVE SMOOTH",
"730 0 LINE SMOOTH",
"771 0 OFFCURVE",
"802 31 OFFCURVE",
"802 71 CURVE SMOOTH",
"802 111 LINE SMOOTH",
"802 151 OFFCURVE",
"771 182 OFFCURVE",
"730 182 CURVE SMOOTH",
"432 182 LINE SMOOTH",
"423 182 OFFCURVE",
"418 188 OFFCURVE",
"418 196 CURVE SMOOTH",
"418 210 LINE SMOOTH",
"418 218 OFFCURVE",
"423 224 OFFCURVE",
"432 224 CURVE SMOOTH",
"671 224 LINE SMOOTH",
"712 224 OFFCURVE",
"743 255 OFFCURVE",
"743 295 CURVE SMOOTH",
"743 405 LINE SMOOTH",
"743 445 OFFCURVE",
"712 476 OFFCURVE",
"671 476 CURVE SMOOTH",
"432 476 LINE SMOOTH",
"423 476 OFFCURVE",
"418 482 OFFCURVE",
"418 490 CURVE SMOOTH",
"418 504 LINE SMOOTH",
"418 512 OFFCURVE",
"423 518 OFFCURVE",
"432 518 CURVE SMOOTH",
"730 518 LINE SMOOTH",
"771 518 OFFCURVE",
"802 549 OFFCURVE",
"802 589 CURVE SMOOTH",
"802 629 LINE SMOOTH",
"802 669 OFFCURVE",
"771 700 OFFCURVE",
"730 700 CURVE SMOOTH",
"121 700 LINE SMOOTH",
"81 700 OFFCURVE",
"50 669 OFFCURVE",
"50 629 CURVE SMOOTH"
);
}
);
width = 852;
},
{
layerId = "106BB046-A4A4-4FD5-B9BF-C98528C7FAAB";
paths = (
{
closed = 1;
nodes = (
"50 71 LINE SMOOTH",
"50 31 OFFCURVE",
"81 0 OFFCURVE",
"121 0 CURVE SMOOTH",
"730 0 LINE SMOOTH",
"771 0 OFFCURVE",
"802 31 OFFCURVE",
"802 71 CURVE SMOOTH",
"802 111 LINE SMOOTH",
"802 151 OFFCURVE",
"771 182 OFFCURVE",
"730 182 CURVE SMOOTH",
"252 182 LINE SMOOTH",
"243 182 OFFCURVE",
"238 188 OFFCURVE",
"238 196 CURVE SMOOTH",
"238 210 LINE SMOOTH",
"238 218 OFFCURVE",
"243 224 OFFCURVE",
"252 224 CURVE SMOOTH",
"621 224 LINE SMOOTH",
"662 224 OFFCURVE",
"693 255 OFFCURVE",
"693 295 CURVE SMOOTH",
"693 405 LINE SMOOTH",
"693 445 OFFCURVE",
"662 476 OFFCURVE",
"621 476 CURVE SMOOTH",
"252 476 LINE SMOOTH",
"243 476 OFFCURVE",
"238 482 OFFCURVE",
"238 490 CURVE SMOOTH",
"238 504 LINE SMOOTH",
"238 512 OFFCURVE",
"243 518 OFFCURVE",
"252 518 CURVE SMOOTH",
"730 518 LINE SMOOTH",
"771 518 OFFCURVE",
"802 549 OFFCURVE",
"802 589 CURVE SMOOTH",
"802 629 LINE SMOOTH",
"802 669 OFFCURVE",
"771 700 OFFCURVE",
"730 700 CURVE SMOOTH",
"121 700 LINE SMOOTH",
"81 700 OFFCURVE",
"50 669 OFFCURVE",
"50 629 CURVE SMOOTH"
);
}
);
width = 852;
}
);
unicode = 0045;
},
{
glyphname = F;
lastChange = "2022-11-29 09:47:30 +0000";
layers = (
{
layerId = "A69B6916-D86B-4DB4-B111-C864CDAF75E2";
paths = (
{
closed = 1;
nodes = (
"50 71 LINE SMOOTH",
"50 31 OFFCURVE",
"81 0 OFFCURVE",
"121 0 CURVE SMOOTH",
"161 0 LINE SMOOTH",
"201 0 OFFCURVE",
"217 0 OFFCURVE",
"230 0 CURVE",
"232 0 LINE",
"238 0 OFFCURVE",
"238 0 OFFCURVE",
"246 0 CURVE SMOOTH",
"730 0 LINE SMOOTH",
"771 0 OFFCURVE",
"802 31 OFFCURVE",
"802 71 CURVE SMOOTH",
"802 301 LINE SMOOTH",
"802 342 OFFCURVE",
"802 352 OFFCURVE",
"802 372 CURVE",
"802 376 LINE SMOOTH",
"802 385 OFFCURVE",
"802 378 OFFCURVE",
"802 386 CURVE SMOOTH",
"802 400 LINE SMOOTH",
"802 409 OFFCURVE",
"802 401 OFFCURVE",
"802 410 CURVE SMOOTH",
"802 414 LINE",
"802 433 OFFCURVE",
"802 445 OFFCURVE",
"802 486 CURVE SMOOTH",
"802 629 LINE SMOOTH",
"802 669 OFFCURVE",
"771 700 OFFCURVE",
"730 700 CURVE SMOOTH",
"121 700 LINE SMOOTH",
"81 700 OFFCURVE",
"50 669 OFFCURVE",
"50 629 CURVE SMOOTH"
);
}
);
width = 852;
},
{
layerId = "D5846C3A-916F-42E8-8837-99B20A1F62F9";
paths = (
{
closed = 1;
nodes = (
"50 71 LINE SMOOTH",
"50 31 OFFCURVE",
"81 0 OFFCURVE",
"121 0 CURVE SMOOTH",
"161 0 LINE SMOOTH",
"201 0 OFFCURVE",
"232 -2 OFFCURVE",
"232 11 CURVE SMOOTH",
"232 13 LINE SMOOTH",
"232 21 OFFCURVE",
"238 27 OFFCURVE",
"246 27 CURVE SMOOTH",
"730 27 LINE SMOOTH",
"771 27 OFFCURVE",
"802 58 OFFCURVE",
"802 98 CURVE SMOOTH",
"802 301 LINE SMOOTH",
"802 342 OFFCURVE",
"771 372 OFFCURVE",
"730 372 CURVE SMOOTH",
"716 372 LINE SMOOTH",
"708 372 OFFCURVE",
"702 378 OFFCURVE",
"702 386 CURVE SMOOTH",
"702 400 LINE SMOOTH",
"702 409 OFFCURVE",
"708 414 OFFCURVE",
"716 414 CURVE SMOOTH",
"730 414 LINE SMOOTH",
"771 414 OFFCURVE",
"802 445 OFFCURVE",
"802 486 CURVE SMOOTH",
"802 629 LINE SMOOTH",
"802 669 OFFCURVE",
"771 700 OFFCURVE",
"730 700 CURVE SMOOTH",
"121 700 LINE SMOOTH",
"81 700 OFFCURVE",
"50 669 OFFCURVE",
"50 629 CURVE SMOOTH"
);
}
);
width = 852;
},
{
layerId = "B57C1444-1622-4D1A-A412-9270A2806B96";
paths = (
{
closed = 1;
nodes = (
"50 71 LINE SMOOTH",
"50 31 OFFCURVE",
"81 0 OFFCURVE",
"121 0 CURVE SMOOTH",
"161 0 LINE SMOOTH",
"201 0 OFFCURVE",
"232 1 OFFCURVE",
"232 41 CURVE SMOOTH",
"232 43 LINE SMOOTH",
"232 51 OFFCURVE",
"238 57 OFFCURVE",
"246 57 CURVE SMOOTH",
"628 57 LINE SMOOTH",
"669 57 OFFCURVE",
"700 88 OFFCURVE",
"700 128 CURVE SMOOTH",
"700 301 LINE SMOOTH",
"700 342 OFFCURVE",
"669 372 OFFCURVE",
"628 372 CURVE SMOOTH",
"436 372 LINE SMOOTH",
"428 372 OFFCURVE",
"422 378 OFFCURVE",
"422 386 CURVE SMOOTH",
"422 400 LINE SMOOTH",
"422 409 OFFCURVE",
"428 414 OFFCURVE",
"436 414 CURVE SMOOTH",
"730 414 LINE SMOOTH",
"771 414 OFFCURVE",
"802 445 OFFCURVE",
"802 486 CURVE SMOOTH",
"802 629 LINE SMOOTH",
"802 669 OFFCURVE",
"771 700 OFFCURVE",
"730 700 CURVE SMOOTH",
"121 700 LINE SMOOTH",
"81 700 OFFCURVE",
"50 669 OFFCURVE",
"50 629 CURVE SMOOTH"
);
}
);
width = 852;
},
{
layerId = "106BB046-A4A4-4FD5-B9BF-C98528C7FAAB";
paths = (
{
closed = 1;
nodes = (
"50 71 LINE SMOOTH",
"50 31 OFFCURVE",
"81 0 OFFCURVE",
"121 0 CURVE SMOOTH",
"161 0 LINE SMOOTH",
"201 0 OFFCURVE",
"232 31 OFFCURVE",
"232 71 CURVE SMOOTH",
"232 73 LINE SMOOTH",
"232 81 OFFCURVE",
"238 87 OFFCURVE",
"246 87 CURVE SMOOTH",
"548 87 LINE SMOOTH",
"589 87 OFFCURVE",
"620 118 OFFCURVE",
"620 158 CURVE SMOOTH",
"620 301 LINE SMOOTH",
"620 342 OFFCURVE",
"589 372 OFFCURVE",
"548 372 CURVE SMOOTH",
"246 372 LINE SMOOTH",
"238 372 OFFCURVE",
"232 378 OFFCURVE",
"232 386 CURVE SMOOTH",
"232 400 LINE SMOOTH",
"232 409 OFFCURVE",
"238 414 OFFCURVE",
"246 414 CURVE SMOOTH",
"730 414 LINE SMOOTH",
"771 414 OFFCURVE",
"802 445 OFFCURVE",
"802 486 CURVE SMOOTH",
"802 629 LINE SMOOTH",
"802 669 OFFCURVE",
"771 700 OFFCURVE",
"730 700 CURVE SMOOTH",
"121 700 LINE SMOOTH",
"81 700 OFFCURVE",
"50 669 OFFCURVE",
"50 629 CURVE SMOOTH"
);
}
);
width = 852;
}
);
unicode = 0046;
},
{
glyphname = G;
lastChange = "2022-11-29 10:17:51 +0000";
layers = (
{
layerId = "A69B6916-D86B-4DB4-B111-C864CDAF75E2";
paths = (
{
closed = 1;
nodes = (
"50 115 LINE SMOOTH",
"50 49 OFFCURVE",
"99 0 OFFCURVE",
"165 0 CURVE SMOOTH",
"687 0 LINE SMOOTH",
"753 0 OFFCURVE",
"802 49 OFFCURVE",
"802 115 CURVE SMOOTH",
"802 237 LINE SMOOTH",
"802 277 OFFCURVE",
"802 233 OFFCURVE",
"802 274 CURVE",
"802 280 LINE",
"802 288 OFFCURVE",
"802 289 OFFCURVE",
"802 294 CURVE",
"802 295 LINE",
"802 302 OFFCURVE",
"802 293 OFFCURVE",
"802 296 CURVE",
"802 297 LINE",
"802 298 OFFCURVE",
"802 296 OFFCURVE",
"802 299 CURVE",
"802 300 LINE",
"802 303 OFFCURVE",
"802 296 OFFCURVE",
"802 304 CURVE",
"802 308 LINE SMOOTH",
"802 317 OFFCURVE",
"802 313 OFFCURVE",
"802 321 CURVE SMOOTH",
"802 336 LINE SMOOTH",
"802 344 OFFCURVE",
"802 342 OFFCURVE",
"802 347 CURVE",
"802 350 LINE",
"802 373 OFFCURVE",
"802 381 OFFCURVE",
"802 421 CURVE SMOOTH",
"802 629 LINE SMOOTH",
"802 669 OFFCURVE",
"771 700 OFFCURVE",
"730 700 CURVE SMOOTH",
"165 700 LINE SMOOTH",
"99 700 OFFCURVE",
"50 651 OFFCURVE",
"50 585 CURVE SMOOTH"
);
}
);
width = 852;
},
{
layerId = "D5846C3A-916F-42E8-8837-99B20A1F62F9";
paths = (
{
closed = 1;
nodes = (
"50 115 LINE SMOOTH",
"50 49 OFFCURVE",
"99 0 OFFCURVE",
"165 0 CURVE SMOOTH",
"687 0 LINE SMOOTH",
"753 0 OFFCURVE",
"802 49 OFFCURVE",
"802 115 CURVE SMOOTH",
"802 237 LINE SMOOTH",
"802 277 OFFCURVE",
"771 308 OFFCURVE",
"730 308 CURVE SMOOTH",
"578 308 LINE SMOOTH",
"570 308 OFFCURVE",
"569 308 OFFCURVE",
"564 308 CURVE",
"563 308 LINE SMOOTH",
"556 308 OFFCURVE",
"565 308 OFFCURVE",
"562 308 CURVE",
"561 308 LINE",
"560 308 OFFCURVE",
"562 308 OFFCURVE",
"559 308 CURVE",
"558 308 LINE",
"555 308 OFFCURVE",
"558 308 OFFCURVE",
"550 308 CURVE SMOOTH",
"536 308 LINE SMOOTH",
"528 308 OFFCURVE",
"522 313 OFFCURVE",
"522 321 CURVE SMOOTH",
"522 336 LINE SMOOTH",
"522 344 OFFCURVE",
"528 350 OFFCURVE",
"536 350 CURVE SMOOTH",
"730 350 LINE SMOOTH",
"771 350 OFFCURVE",
"802 381 OFFCURVE",
"802 421 CURVE SMOOTH",
"802 629 LINE SMOOTH",
"802 669 OFFCURVE",
"771 700 OFFCURVE",
"730 700 CURVE SMOOTH",
"165 700 LINE SMOOTH",
"99 700 OFFCURVE",
"50 651 OFFCURVE",
"50 585 CURVE SMOOTH"
);
}
);
width = 852;
},
{
layerId = "B57C1444-1622-4D1A-A412-9270A2806B96";
paths = (
{
closed = 1;
nodes = (
"50 115 LINE SMOOTH",
"50 49 OFFCURVE",
"99 0 OFFCURVE",
"165 0 CURVE SMOOTH",
"687 0 LINE SMOOTH",
"753 0 OFFCURVE",
"802 49 OFFCURVE",
"802 115 CURVE SMOOTH",
"802 237 LINE SMOOTH",
"802 277 OFFCURVE",
"771 308 OFFCURVE",
"730 308 CURVE SMOOTH",
"288 308 LINE SMOOTH",
"280 308 OFFCURVE",
"274 302 OFFCURVE",
"274 294 CURVE SMOOTH",
"274 280 LINE SMOOTH",
"274 272 OFFCURVE",
"274 269 OFFCURVE",
"274 266 CURVE",
"274 265 LINE SMOOTH",
"274 257 OFFCURVE",
"274 260 OFFCURVE",
"274 252 CURVE SMOOTH",
"274 238 LINE SMOOTH",
"274 230 OFFCURVE",
"268 224 OFFCURVE",
"260 224 CURVE SMOOTH",
"246 224 LINE SMOOTH",
"238 224 OFFCURVE",
"232 230 OFFCURVE",
"232 238 CURVE SMOOTH",
"232 336 LINE SMOOTH",
"232 344 OFFCURVE",
"238 350 OFFCURVE",
"246 350 CURVE SMOOTH",
"730 350 LINE SMOOTH",
"771 350 OFFCURVE",
"802 381 OFFCURVE",
"802 421 CURVE SMOOTH",
"802 629 LINE SMOOTH",
"802 669 OFFCURVE",
"771 700 OFFCURVE",
"730 700 CURVE SMOOTH",
"165 700 LINE SMOOTH",
"99 700 OFFCURVE",
"50 651 OFFCURVE",
"50 585 CURVE SMOOTH"
);
}
);
width = 852;
},
{
layerId = "106BB046-A4A4-4FD5-B9BF-C98528C7FAAB";
paths = (
{
closed = 1;
nodes = (
"50 115 LINE SMOOTH",
"50 49 OFFCURVE",
"99 0 OFFCURVE",
"165 0 CURVE SMOOTH",
"687 0 LINE SMOOTH",
"753 0 OFFCURVE",
"802 49 OFFCURVE",
"802 115 CURVE SMOOTH",
"802 237 LINE SMOOTH",
"802 277 OFFCURVE",
"771 308 OFFCURVE",
"730 308 CURVE SMOOTH",
"288 308 LINE SMOOTH",
"280 308 OFFCURVE",
"274 302 OFFCURVE",
"274 294 CURVE SMOOTH",
"274 280 LINE SMOOTH",
"274 272 OFFCURVE",
"280 266 OFFCURVE",
"288 266 CURVE SMOOTH",
"606 266 LINE SMOOTH",
"614 266 OFFCURVE",
"620 260 OFFCURVE",
"620 252 CURVE SMOOTH",
"620 238 LINE SMOOTH",
"620 230 OFFCURVE",
"614 224 OFFCURVE",
"606 224 CURVE SMOOTH",
"246 224 LINE SMOOTH",
"238 224 OFFCURVE",
"232 230 OFFCURVE",
"232 238 CURVE SMOOTH",
"232 336 LINE SMOOTH",
"232 344 OFFCURVE",
"238 350 OFFCURVE",
"246 350 CURVE SMOOTH",
"730 350 LINE SMOOTH",
"771 350 OFFCURVE",
"802 381 OFFCURVE",
"802 421 CURVE SMOOTH",
"802 629 LINE SMOOTH",
"802 669 OFFCURVE",
"771 700 OFFCURVE",
"730 700 CURVE SMOOTH",
"165 700 LINE SMOOTH",
"99 700 OFFCURVE",
"50 651 OFFCURVE",
"50 585 CURVE SMOOTH"
);
}
);
width = 852;
}
);
unicode = 0047;
},
{
glyphname = H;
lastChange = "2022-11-29 10:20:27 +0000";
layers = (
{
layerId = "A69B6916-D86B-4DB4-B111-C864CDAF75E2";
paths = (
{
closed = 1;
nodes = (
"50 71 LINE SMOOTH",
"50 31 OFFCURVE",
"81 0 OFFCURVE",
"121 0 CURVE SMOOTH",
"334 0 LINE SMOOTH",
"375 0 OFFCURVE",
"391 0 OFFCURVE",
"403 0 CURVE",
"406 0 LINE",
"411 0 OFFCURVE",
"411 0 OFFCURVE",
"420 0 CURVE SMOOTH",
"434 0 LINE SMOOTH",
"442 0 OFFCURVE",
"443 0 OFFCURVE",
"448 0 CURVE",
"451 0 LINE",
"464 0 OFFCURVE",
"478 0 OFFCURVE",
"519 0 CURVE SMOOTH",
"730 0 LINE SMOOTH",
"771 0 OFFCURVE",
"802 31 OFFCURVE",
"802 71 CURVE SMOOTH",
"802 629 LINE SMOOTH",
"802 669 OFFCURVE",
"771 700 OFFCURVE",
"730 700 CURVE SMOOTH",
"519 700 LINE SMOOTH",
"478 700 OFFCURVE",
"477 700 OFFCURVE",
"458 700 CURVE",
"448 700 LINE SMOOTH",
"440 700 OFFCURVE",
"442 700 OFFCURVE",
"434 700 CURVE SMOOTH",
"420 700 LINE SMOOTH",
"411 700 OFFCURVE",
"414 700 OFFCURVE",
"406 700 CURVE SMOOTH",
"400 700 LINE",
"385 700 OFFCURVE",
"375 700 OFFCURVE",
"334 700 CURVE SMOOTH",
"121 700 LINE SMOOTH",
"81 700 OFFCURVE",
"50 669 OFFCURVE",
"50 629 CURVE SMOOTH"
);
}
);
width = 852;
},
{
layerId = "D5846C3A-916F-42E8-8837-99B20A1F62F9";
paths = (
{
closed = 1;
nodes = (
"50 71 LINE SMOOTH",
"50 31 OFFCURVE",
"81 0 OFFCURVE",
"121 0 CURVE SMOOTH",
"334 0 LINE SMOOTH",
"375 0 OFFCURVE",
"406 31 OFFCURVE",
"406 71 CURVE SMOOTH",
"406 85 LINE SMOOTH",
"406 93 OFFCURVE",
"411 99 OFFCURVE",
"420 99 CURVE SMOOTH",
"434 99 LINE SMOOTH",
"442 99 OFFCURVE",
"448 93 OFFCURVE",
"448 85 CURVE SMOOTH",
"448 71 LINE SMOOTH",
"448 31 OFFCURVE",
"478 0 OFFCURVE",
"519 0 CURVE SMOOTH",
"730 0 LINE SMOOTH",
"771 0 OFFCURVE",
"802 31 OFFCURVE",
"802 71 CURVE SMOOTH",
"802 629 LINE SMOOTH",
"802 669 OFFCURVE",
"771 700 OFFCURVE",
"730 700 CURVE SMOOTH",
"519 700 LINE SMOOTH",
"478 700 OFFCURVE",
"448 669 OFFCURVE",
"448 629 CURVE SMOOTH",
"448 616 LINE SMOOTH",
"448 608 OFFCURVE",
"442 602 OFFCURVE",
"434 602 CURVE SMOOTH",
"420 602 LINE SMOOTH",
"411 602 OFFCURVE",
"406 608 OFFCURVE",
"406 616 CURVE SMOOTH",
"406 629 LINE SMOOTH",
"406 669 OFFCURVE",
"375 700 OFFCURVE",
"334 700 CURVE SMOOTH",
"121 700 LINE SMOOTH",
"81 700 OFFCURVE",
"50 669 OFFCURVE",
"50 629 CURVE SMOOTH"
);
}
);
width = 852;
},
{
layerId = "B57C1444-1622-4D1A-A412-9270A2806B96";
paths = (
{
closed = 1;
nodes = (
"50 71 LINE SMOOTH",
"50 31 OFFCURVE",
"81 0 OFFCURVE",
"121 0 CURVE SMOOTH",
"334 0 LINE SMOOTH",
"375 0 OFFCURVE",
"406 31 OFFCURVE",
"406 71 CURVE SMOOTH",
"406 205 LINE SMOOTH",
"406 213 OFFCURVE",
"411 219 OFFCURVE",
"420 219 CURVE SMOOTH",
"434 219 LINE SMOOTH",
"442 219 OFFCURVE",
"448 213 OFFCURVE",
"448 205 CURVE SMOOTH",
"448 71 LINE SMOOTH",
"448 31 OFFCURVE",
"478 0 OFFCURVE",
"519 0 CURVE SMOOTH",
"730 0 LINE SMOOTH",
"771 0 OFFCURVE",
"802 31 OFFCURVE",
"802 71 CURVE SMOOTH",
"802 629 LINE SMOOTH",
"802 669 OFFCURVE",
"771 700 OFFCURVE",
"730 700 CURVE SMOOTH",
"519 700 LINE SMOOTH",
"478 700 OFFCURVE",
"448 669 OFFCURVE",
"448 629 CURVE SMOOTH",
"448 495 LINE SMOOTH",
"448 487 OFFCURVE",
"442 481 OFFCURVE",
"434 481 CURVE SMOOTH",
"420 481 LINE SMOOTH",
"411 481 OFFCURVE",
"406 487 OFFCURVE",
"406 495 CURVE SMOOTH",
"406 629 LINE SMOOTH",
"406 669 OFFCURVE",
"375 700 OFFCURVE",
"334 700 CURVE SMOOTH",
"121 700 LINE SMOOTH",
"81 700 OFFCURVE",
"50 669 OFFCURVE",
"50 629 CURVE SMOOTH"
);
}
);
width = 852;
},
{
layerId = "106BB046-A4A4-4FD5-B9BF-C98528C7FAAB";
paths = (
{
closed = 1;
nodes = (
"50 71 LINE SMOOTH",
"50 31 OFFCURVE",
"81 0 OFFCURVE",
"121 0 CURVE SMOOTH",
"334 0 LINE SMOOTH",
"375 0 OFFCURVE",
"406 31 OFFCURVE",
"406 71 CURVE SMOOTH",
"406 315 LINE SMOOTH",
"406 323 OFFCURVE",
"411 329 OFFCURVE",
"420 329 CURVE SMOOTH",
"434 329 LINE SMOOTH",
"442 329 OFFCURVE",
"448 323 OFFCURVE",
"448 315 CURVE SMOOTH",
"448 71 LINE SMOOTH",
"448 31 OFFCURVE",
"478 0 OFFCURVE",
"519 0 CURVE SMOOTH",
"730 0 LINE SMOOTH",
"771 0 OFFCURVE",
"802 31 OFFCURVE",
"802 71 CURVE SMOOTH",
"802 629 LINE SMOOTH",
"802 669 OFFCURVE",
"771 700 OFFCURVE",
"730 700 CURVE SMOOTH",
"519 700 LINE SMOOTH",
"478 700 OFFCURVE",
"448 669 OFFCURVE",
"448 629 CURVE SMOOTH",
"448 385 LINE SMOOTH",
"448 377 OFFCURVE",
"442 371 OFFCURVE",
"434 371 CURVE SMOOTH",
"420 371 LINE SMOOTH",
"411 371 OFFCURVE",
"406 377 OFFCURVE",
"406 385 CURVE SMOOTH",
"406 629 LINE SMOOTH",
"406 669 OFFCURVE",
"375 700 OFFCURVE",
"334 700 CURVE SMOOTH",
"121 700 LINE SMOOTH",
"81 700 OFFCURVE",
"50 669 OFFCURVE",
"50 629 CURVE SMOOTH"
);
}
);
width = 852;
}
);
unicode = 0048;
},
{
glyphname = I;
lastChange = "2022-11-29 10:24:44 +0000";
layers = (
{
layerId = "A69B6916-D86B-4DB4-B111-C864CDAF75E2";
paths = (
{
closed = 1;
nodes = (
"50 72 LINE SMOOTH",
"50 31 OFFCURVE",
"81 0 OFFCURVE",
"122 0 CURVE SMOOTH",
"730 0 LINE SMOOTH",
"771 0 OFFCURVE",
"802 31 OFFCURVE",
"802 72 CURVE SMOOTH",
"802 629 LINE SMOOTH",
"802 669 OFFCURVE",
"771 700 OFFCURVE",
"730 700 CURVE SMOOTH",
"122 700 LINE SMOOTH",
"81 700 OFFCURVE",
"50 669 OFFCURVE",
"50 629 CURVE SMOOTH"
);
}
);
width = 852;
},
{
layerId = "D5846C3A-916F-42E8-8837-99B20A1F62F9";
paths = (
{
closed = 1;
nodes = (
"50 72 LINE SMOOTH",
"50 31 OFFCURVE",
"81 0 OFFCURVE",
"122 0 CURVE SMOOTH",
"588 0 LINE SMOOTH",
"629 0 OFFCURVE",
"660 31 OFFCURVE",
"660 72 CURVE SMOOTH",
"660 629 LINE SMOOTH",
"660 669 OFFCURVE",
"629 700 OFFCURVE",
"588 700 CURVE SMOOTH",
"122 700 LINE SMOOTH",
"81 700 OFFCURVE",
"50 669 OFFCURVE",
"50 629 CURVE SMOOTH"
);
}
);
width = 710;
},
{
layerId = "B57C1444-1622-4D1A-A412-9270A2806B96";
paths = (
{
closed = 1;
nodes = (
"50 72 LINE SMOOTH",
"50 31 OFFCURVE",
"81 0 OFFCURVE",
"122 0 CURVE SMOOTH",
"438 0 LINE SMOOTH",
"479 0 OFFCURVE",
"510 31 OFFCURVE",
"510 72 CURVE SMOOTH",
"510 629 LINE SMOOTH",
"510 669 OFFCURVE",
"479 700 OFFCURVE",
"438 700 CURVE SMOOTH",
"122 700 LINE SMOOTH",
"81 700 OFFCURVE",
"50 669 OFFCURVE",
"50 629 CURVE SMOOTH"
);
}
);
width = 560;
},
{
layerId = "106BB046-A4A4-4FD5-B9BF-C98528C7FAAB";
paths = (
{
closed = 1;
nodes = (
"50 72 LINE SMOOTH",
"50 31 OFFCURVE",
"81 0 OFFCURVE",
"122 0 CURVE SMOOTH",
"314 0 LINE SMOOTH",
"355 0 OFFCURVE",
"386 31 OFFCURVE",
"386 72 CURVE SMOOTH",
"386 629 LINE SMOOTH",
"386 669 OFFCURVE",
"355 700 OFFCURVE",
"314 700 CURVE SMOOTH",
"122 700 LINE SMOOTH",
"81 700 OFFCURVE",
"50 669 OFFCURVE",
"50 629 CURVE SMOOTH"
);
}
);
width = 436;
}
);
unicode = 0049;
},
{
glyphname = J;
lastChange = "2022-11-29 10:26:49 +0000";
layers = (
{
layerId = "A69B6916-D86B-4DB4-B111-C864CDAF75E2";
paths = (
{
closed = 1;
nodes = (
"802 71 LINE SMOOTH",
"802 31 OFFCURVE",
"771 0 OFFCURVE",
"730 0 CURVE SMOOTH",
"121 0 LINE SMOOTH",
"81 0 OFFCURVE",
"50 31 OFFCURVE",
"50 71 CURVE SMOOTH",
"50 629 LINE SMOOTH",
"50 670 OFFCURVE",
"81 700 OFFCURVE",
"121 700 CURVE SMOOTH",
"161 700 LINE SMOOTH",
"201 700 OFFCURVE",
"219 700 OFFCURVE",
"225 700 CURVE",
"232 700 LINE SMOOTH",
"239 700 OFFCURVE",
"238 700 OFFCURVE",
"246 700 CURVE SMOOTH",
"260 700 LINE SMOOTH",
"268 700 OFFCURVE",
"266 700 OFFCURVE",
"274 700 CURVE SMOOTH",
"280 700 LINE",
"296 700 OFFCURVE",
"305 700 OFFCURVE",
"345 700 CURVE SMOOTH",
"730 700 LINE SMOOTH",
"771 700 OFFCURVE",
"802 669 OFFCURVE",
"802 629 CURVE SMOOTH"
);
}
);
width = 852;
},
{
layerId = "D5846C3A-916F-42E8-8837-99B20A1F62F9";
paths = (
{
closed = 1;
nodes = (
"802 71 LINE SMOOTH",
"802 31 OFFCURVE",
"771 0 OFFCURVE",
"730 0 CURVE SMOOTH",
"121 0 LINE SMOOTH",
"81 0 OFFCURVE",
"50 31 OFFCURVE",
"50 71 CURVE SMOOTH",
"50 629 LINE SMOOTH",
"50 670 OFFCURVE",
"81 700 OFFCURVE",
"121 700 CURVE SMOOTH",
"161 700 LINE SMOOTH",
"201 700 OFFCURVE",
"232 670 OFFCURVE",
"232 629 CURVE SMOOTH",
"232 616 LINE SMOOTH",
"232 608 OFFCURVE",
"238 602 OFFCURVE",
"246 602 CURVE SMOOTH",
"260 602 LINE SMOOTH",
"268 602 OFFCURVE",
"274 608 OFFCURVE",
"274 616 CURVE SMOOTH",
"274 629 LINE SMOOTH",
"274 669 OFFCURVE",
"305 700 OFFCURVE",
"345 700 CURVE SMOOTH",
"730 700 LINE SMOOTH",
"771 700 OFFCURVE",
"802 669 OFFCURVE",
"802 629 CURVE SMOOTH"
);
}
);
width = 852;
},
{
layerId = "B57C1444-1622-4D1A-A412-9270A2806B96";
paths = (
{
closed = 1;
nodes = (
"802 71 LINE SMOOTH",
"802 31 OFFCURVE",
"771 0 OFFCURVE",
"730 0 CURVE SMOOTH",
"121 0 LINE SMOOTH",
"81 0 OFFCURVE",
"50 31 OFFCURVE",
"50 71 CURVE SMOOTH",
"50 585 LINE SMOOTH",
"50 626 OFFCURVE",
"81 656 OFFCURVE",
"121 656 CURVE SMOOTH",
"161 656 LINE SMOOTH",
"201 656 OFFCURVE",
"232 626 OFFCURVE",
"232 585 CURVE SMOOTH",
"232 396 LINE SMOOTH",
"232 388 OFFCURVE",
"238 382 OFFCURVE",
"246 382 CURVE SMOOTH",
"260 382 LINE SMOOTH",
"268 382 OFFCURVE",
"274 388 OFFCURVE",
"274 396 CURVE SMOOTH",
"274 629 LINE SMOOTH",
"274 669 OFFCURVE",
"305 700 OFFCURVE",
"345 700 CURVE SMOOTH",
"730 700 LINE SMOOTH",
"771 700 OFFCURVE",
"802 669 OFFCURVE",
"802 629 CURVE SMOOTH"
);
}
);
width = 852;
},
{
layerId = "106BB046-A4A4-4FD5-B9BF-C98528C7FAAB";
paths = (
{
closed = 1;
nodes = (
"802 71 LINE SMOOTH",
"802 31 OFFCURVE",
"771 0 OFFCURVE",
"730 0 CURVE SMOOTH",
"121 0 LINE SMOOTH",
"81 0 OFFCURVE",
"50 31 OFFCURVE",
"50 71 CURVE SMOOTH",
"50 525 LINE SMOOTH",
"50 566 OFFCURVE",
"81 596 OFFCURVE",
"121 596 CURVE SMOOTH",
"161 596 LINE SMOOTH",
"201 596 OFFCURVE",
"232 566 OFFCURVE",
"232 525 CURVE SMOOTH",
"232 196 LINE SMOOTH",
"232 188 OFFCURVE",
"238 182 OFFCURVE",
"246 182 CURVE SMOOTH",
"260 182 LINE SMOOTH",
"268 182 OFFCURVE",
"274 188 OFFCURVE",
"274 196 CURVE SMOOTH",
"274 629 LINE SMOOTH",
"274 669 OFFCURVE",
"305 700 OFFCURVE",
"345 700 CURVE SMOOTH",
"730 700 LINE SMOOTH",
"771 700 OFFCURVE",
"802 669 OFFCURVE",
"802 629 CURVE SMOOTH"
);
}
);
width = 852;
}
);
unicode = 004A;
},
{
glyphname = K;
lastChange = "2022-11-29 10:31:07 +0000";
layers = (
{
layerId = "A69B6916-D86B-4DB4-B111-C864CDAF75E2";
paths = (
{
closed = 1;
nodes = (
"50 71 LINE SMOOTH",
"50 31 OFFCURVE",
"81 0 OFFCURVE",
"121 0 CURVE SMOOTH",
"161 0 LINE SMOOTH",
"201 0 OFFCURVE",
"210 0 OFFCURVE",
"228 0 CURVE",
"232 0 LINE SMOOTH",
"239 0 OFFCURVE",
"238 0 OFFCURVE",
"246 0 CURVE SMOOTH",
"260 0 LINE SMOOTH",
"268 0 OFFCURVE",
"267 0 OFFCURVE",
"274 0 CURVE SMOOTH",
"278 0 LINE",
"289 0 OFFCURVE",
"305 0 OFFCURVE",
"345 0 CURVE SMOOTH",
"730 0 LINE SMOOTH",
"771 0 OFFCURVE",
"802 31 OFFCURVE",
"802 71 CURVE SMOOTH",
"802 258 LINE SMOOTH",
"802 298 OFFCURVE",
"802 292 OFFCURVE",
"802 324 CURVE",
"802 329 LINE SMOOTH",
"802 337 OFFCURVE",
"802 335 OFFCURVE",
"802 343 CURVE SMOOTH",
"802 357 LINE SMOOTH",
"802 365 OFFCURVE",
"802 363 OFFCURVE",
"802 371 CURVE SMOOTH",
"802 376 LINE",
"802 397 OFFCURVE",
"802 402 OFFCURVE",
"802 442 CURVE SMOOTH",
"802 629 LINE SMOOTH",
"802 669 OFFCURVE",
"771 700 OFFCURVE",
"730 700 CURVE SMOOTH",
"345 700 LINE SMOOTH",
"305 700 OFFCURVE",
"299 700 OFFCURVE",
"280 700 CURVE",
"274 700 LINE SMOOTH",
"266 700 OFFCURVE",
"268 700 OFFCURVE",
"260 700 CURVE SMOOTH",
"246 700 LINE SMOOTH",
"238 700 OFFCURVE",
"239 700 OFFCURVE",
"232 700 CURVE SMOOTH",
"227 700 LINE",
"208 700 OFFCURVE",
"201 700 OFFCURVE",
"161 700 CURVE SMOOTH",
"121 700 LINE SMOOTH",
"81 700 OFFCURVE",
"50 669 OFFCURVE",
"50 629 CURVE SMOOTH"
);
}
);
width = 852;
},
{
layerId = "D5846C3A-916F-42E8-8837-99B20A1F62F9";
paths = (
{
closed = 1;
nodes = (
"50 71 LINE SMOOTH",
"50 31 OFFCURVE",
"81 0 OFFCURVE",
"121 0 CURVE SMOOTH",
"161 0 LINE SMOOTH",
"201 0 OFFCURVE",
"232 31 OFFCURVE",
"232 71 CURVE SMOOTH",
"232 85 LINE SMOOTH",
"232 93 OFFCURVE",
"238 99 OFFCURVE",
"246 99 CURVE SMOOTH",
"260 99 LINE SMOOTH",
"268 99 OFFCURVE",
"274 93 OFFCURVE",
"274 85 CURVE SMOOTH",
"274 71 LINE SMOOTH",
"274 31 OFFCURVE",
"305 0 OFFCURVE",
"345 0 CURVE SMOOTH",
"730 0 LINE SMOOTH",
"771 0 OFFCURVE",
"802 31 OFFCURVE",
"802 71 CURVE SMOOTH",
"802 258 LINE SMOOTH",
"802 298 OFFCURVE",
"771 329 OFFCURVE",
"730 329 CURVE SMOOTH",
"720 329 LINE SMOOTH",
"712 329 OFFCURVE",
"706 335 OFFCURVE",
"706 343 CURVE SMOOTH",
"706 357 LINE SMOOTH",
"706 365 OFFCURVE",
"712 371 OFFCURVE",
"720 371 CURVE SMOOTH",
"730 371 LINE SMOOTH",
"771 371 OFFCURVE",
"802 402 OFFCURVE",
"802 442 CURVE SMOOTH",
"802 629 LINE SMOOTH",
"802 669 OFFCURVE",
"771 700 OFFCURVE",
"730 700 CURVE SMOOTH",
"345 700 LINE SMOOTH",
"305 700 OFFCURVE",
"274 669 OFFCURVE",
"274 629 CURVE SMOOTH",
"274 624 LINE SMOOTH",
"274 616 OFFCURVE",
"268 610 OFFCURVE",
"260 610 CURVE SMOOTH",
"246 610 LINE SMOOTH",
"238 610 OFFCURVE",
"232 616 OFFCURVE",
"232 624 CURVE SMOOTH",
"232 629 LINE SMOOTH",
"232 669 OFFCURVE",
"201 700 OFFCURVE",
"161 700 CURVE SMOOTH",
"121 700 LINE SMOOTH",
"81 700 OFFCURVE",
"50 669 OFFCURVE",
"50 629 CURVE SMOOTH"
);
}
);
width = 852;
},
{
layerId = "B57C1444-1622-4D1A-A412-9270A2806B96";
paths = (
{
closed = 1;
nodes = (
"50 71 LINE SMOOTH",
"50 31 OFFCURVE",
"81 0 OFFCURVE",
"121 0 CURVE SMOOTH",
"161 0 LINE SMOOTH",
"201 0 OFFCURVE",
"232 31 OFFCURVE",
"232 71 CURVE SMOOTH",
"232 195 LINE SMOOTH",
"232 203 OFFCURVE",
"238 209 OFFCURVE",
"246 209 CURVE SMOOTH",
"260 209 LINE SMOOTH",
"268 209 OFFCURVE",
"274 203 OFFCURVE",
"274 195 CURVE SMOOTH",
"274 71 LINE SMOOTH",
"274 31 OFFCURVE",
"305 0 OFFCURVE",
"345 0 CURVE SMOOTH",
"730 0 LINE SMOOTH",
"771 0 OFFCURVE",
"802 31 OFFCURVE",
"802 71 CURVE SMOOTH",
"802 258 LINE SMOOTH",
"802 298 OFFCURVE",
"771 329 OFFCURVE",
"730 329 CURVE SMOOTH",
"520 329 LINE SMOOTH",
"512 329 OFFCURVE",
"506 335 OFFCURVE",
"506 343 CURVE SMOOTH",
"506 357 LINE SMOOTH",
"506 365 OFFCURVE",
"512 371 OFFCURVE",
"520 371 CURVE SMOOTH",
"730 371 LINE SMOOTH",
"771 371 OFFCURVE",
"802 402 OFFCURVE",
"802 442 CURVE SMOOTH",
"802 629 LINE SMOOTH",
"802 669 OFFCURVE",
"771 700 OFFCURVE",
"730 700 CURVE SMOOTH",
"345 700 LINE SMOOTH",
"305 700 OFFCURVE",
"274 669 OFFCURVE",
"274 629 CURVE SMOOTH",
"274 505 LINE SMOOTH",
"274 497 OFFCURVE",
"268 491 OFFCURVE",
"260 491 CURVE SMOOTH",
"246 491 LINE SMOOTH",
"238 491 OFFCURVE",
"232 497 OFFCURVE",
"232 505 CURVE SMOOTH",
"232 629 LINE SMOOTH",
"232 669 OFFCURVE",
"201 700 OFFCURVE",
"161 700 CURVE SMOOTH",
"121 700 LINE SMOOTH",
"81 700 OFFCURVE",
"50 669 OFFCURVE",
"50 629 CURVE SMOOTH"
);
}
);
width = 852;
},
{
layerId = "106BB046-A4A4-4FD5-B9BF-C98528C7FAAB";
paths = (
{
closed = 1;
nodes = (
"50 71 LINE SMOOTH",
"50 31 OFFCURVE",
"81 0 OFFCURVE",
"121 0 CURVE SMOOTH",
"161 0 LINE SMOOTH",
"201 0 OFFCURVE",
"232 31 OFFCURVE",
"232 71 CURVE SMOOTH",
"232 315 LINE SMOOTH",
"232 323 OFFCURVE",
"238 329 OFFCURVE",
"246 329 CURVE SMOOTH",
"260 329 LINE SMOOTH",
"268 329 OFFCURVE",
"274 323 OFFCURVE",
"274 315 CURVE SMOOTH",
"274 71 LINE SMOOTH",
"274 31 OFFCURVE",
"305 0 OFFCURVE",
"345 0 CURVE SMOOTH",
"730 0 LINE SMOOTH",
"771 0 OFFCURVE",
"802 31 OFFCURVE",
"802 71 CURVE SMOOTH",
"802 258 LINE SMOOTH",
"802 298 OFFCURVE",
"771 329 OFFCURVE",
"730 329 CURVE SMOOTH",
"330 329 LINE SMOOTH",
"322 329 OFFCURVE",
"316 335 OFFCURVE",
"316 343 CURVE SMOOTH",
"316 357 LINE SMOOTH",
"316 365 OFFCURVE",
"322 371 OFFCURVE",
"330 371 CURVE SMOOTH",
"730 371 LINE SMOOTH",
"771 371 OFFCURVE",
"802 402 OFFCURVE",
"802 442 CURVE SMOOTH",
"802 629 LINE SMOOTH",
"802 669 OFFCURVE",
"771 700 OFFCURVE",
"730 700 CURVE SMOOTH",
"345 700 LINE SMOOTH",
"305 700 OFFCURVE",
"274 669 OFFCURVE",
"274 629 CURVE SMOOTH",
"274 385 LINE SMOOTH",
"274 377 OFFCURVE",
"268 371 OFFCURVE",
"260 371 CURVE SMOOTH",
"246 371 LINE SMOOTH",
"238 371 OFFCURVE",
"232 377 OFFCURVE",
"232 385 CURVE SMOOTH",
"232 629 LINE SMOOTH",
"232 669 OFFCURVE",
"201 700 OFFCURVE",
"161 700 CURVE SMOOTH",
"121 700 LINE SMOOTH",
"81 700 OFFCURVE",
"50 669 OFFCURVE",
"50 629 CURVE SMOOTH"
);
}
);
width = 852;
}
);
unicode = 004B;
},
{
glyphname = L;
lastChange = "2022-11-29 10:33:38 +0000";
layers = (
{
layerId = "A69B6916-D86B-4DB4-B111-C864CDAF75E2";
paths = (
{
closed = 1;
nodes = (
"50 71 LINE SMOOTH",
"50 31 OFFCURVE",
"81 0 OFFCURVE",
"121 0 CURVE SMOOTH",
"730 0 LINE SMOOTH",
"771 0 OFFCURVE",
"802 31 OFFCURVE",
"802 71 CURVE SMOOTH",
"802 171 LINE SMOOTH",
"802 211 OFFCURVE",
"802 216 OFFCURVE",
"802 242 CURVE",
"802 247 LINE SMOOTH",
"802 254 OFFCURVE",
"802 253 OFFCURVE",
"802 261 CURVE SMOOTH",
"802 629 LINE SMOOTH",
"802 669 OFFCURVE",
"771 700 OFFCURVE",
"731 700 CURVE SMOOTH",
"121 700 LINE SMOOTH",
"81 700 OFFCURVE",
"50 669 OFFCURVE",
"50 629 CURVE SMOOTH"
);
}
);
width = 852;
},
{
layerId = "D5846C3A-916F-42E8-8837-99B20A1F62F9";
paths = (
{
closed = 1;
nodes = (
"50 71 LINE SMOOTH",
"50 31 OFFCURVE",
"81 0 OFFCURVE",
"121 0 CURVE SMOOTH",
"730 0 LINE SMOOTH",
"771 0 OFFCURVE",
"802 31 OFFCURVE",
"802 71 CURVE SMOOTH",
"802 171 LINE SMOOTH",
"802 211 OFFCURVE",
"771 242 OFFCURVE",
"730 242 CURVE SMOOTH",
"726 242 LINE SMOOTH",
"718 242 OFFCURVE",
"712 248 OFFCURVE",
"712 256 CURVE SMOOTH",
"712 629 LINE SMOOTH",
"712 669 OFFCURVE",
"681 700 OFFCURVE",
"641 700 CURVE SMOOTH",
"121 700 LINE SMOOTH",
"81 700 OFFCURVE",
"50 669 OFFCURVE",
"50 629 CURVE SMOOTH"
);
}
);
width = 852;
},
{
layerId = "B57C1444-1622-4D1A-A412-9270A2806B96";
paths = (
{
closed = 1;
nodes = (
"50 71 LINE SMOOTH",
"50 31 OFFCURVE",
"81 0 OFFCURVE",
"121 0 CURVE SMOOTH",
"730 0 LINE SMOOTH",
"771 0 OFFCURVE",
"802 31 OFFCURVE",
"802 71 CURVE SMOOTH",
"802 171 LINE SMOOTH",
"802 211 OFFCURVE",
"771 242 OFFCURVE",
"730 242 CURVE SMOOTH",
"616 242 LINE SMOOTH",
"608 242 OFFCURVE",
"602 248 OFFCURVE",
"602 256 CURVE SMOOTH",
"602 629 LINE SMOOTH",
"602 669 OFFCURVE",
"571 700 OFFCURVE",
"531 700 CURVE SMOOTH",
"121 700 LINE SMOOTH",
"81 700 OFFCURVE",
"50 669 OFFCURVE",
"50 629 CURVE SMOOTH"
);
}
);
width = 852;
},
{
layerId = "106BB046-A4A4-4FD5-B9BF-C98528C7FAAB";
paths = (
{
closed = 1;
nodes = (
"50 71 LINE SMOOTH",
"50 31 OFFCURVE",
"81 0 OFFCURVE",
"121 0 CURVE SMOOTH",
"730 0 LINE SMOOTH",
"771 0 OFFCURVE",
"802 31 OFFCURVE",
"802 71 CURVE SMOOTH",
"802 171 LINE SMOOTH",
"802 211 OFFCURVE",
"771 242 OFFCURVE",
"730 242 CURVE SMOOTH",
"526 242 LINE SMOOTH",
"518 242 OFFCURVE",
"512 248 OFFCURVE",
"512 256 CURVE SMOOTH",
"512 629 LINE SMOOTH",
"512 669 OFFCURVE",
"481 700 OFFCURVE",
"441 700 CURVE SMOOTH",
"121 700 LINE SMOOTH",
"81 700 OFFCURVE",
"50 669 OFFCURVE",
"50 629 CURVE SMOOTH"
);
}
);
width = 852;
}
);
unicode = 004C;
},
{
glyphname = M;
lastChange = "2022-11-29 10:36:46 +0000";
layers = (
{
layerId = "A69B6916-D86B-4DB4-B111-C864CDAF75E2";
paths = (
{
closed = 1;
nodes = (
"50 628 LINE SMOOTH",
"50 669 OFFCURVE",
"81 700 OFFCURVE",
"121 700 CURVE SMOOTH",
"334 700 LINE SMOOTH",
"374 700 OFFCURVE",
"385 700 OFFCURVE",
"400 700 CURVE",
"405 700 LINE SMOOTH",
"413 700 OFFCURVE",
"411 700 OFFCURVE",
"419 700 CURVE SMOOTH",
"433 700 LINE SMOOTH",
"441 700 OFFCURVE",
"439 700 OFFCURVE",
"447 700 CURVE SMOOTH",
"453 700 LINE",
"472 700 OFFCURVE",
"478 700 OFFCURVE",
"519 700 CURVE SMOOTH",
"730 700 LINE SMOOTH",
"771 700 OFFCURVE",
"802 669 OFFCURVE",
"802 628 CURVE SMOOTH",
"802 71 LINE SMOOTH",
"802 31 OFFCURVE",
"771 0 OFFCURVE",
"730 0 CURVE SMOOTH",
"691 0 LINE SMOOTH",
"650 0 OFFCURVE",
"641 0 OFFCURVE",
"624 0 CURVE",
"619 0 LINE SMOOTH",
"609 0 OFFCURVE",
"614 0 OFFCURVE",
"605 0 CURVE SMOOTH",
"591 0 LINE SMOOTH",
"583 0 OFFCURVE",
"585 0 OFFCURVE",
"577 0 CURVE SMOOTH",
"571 0 LINE",
"554 0 OFFCURVE",
"547 0 OFFCURVE",
"506 0 CURVE SMOOTH",
"345 0 LINE SMOOTH",
"305 0 OFFCURVE",
"298 0 OFFCURVE",
"279 0 CURVE",
"274 0 LINE SMOOTH",
"264 0 OFFCURVE",
"269 0 OFFCURVE",
"260 0 CURVE SMOOTH",
"246 0 LINE SMOOTH",
"238 0 OFFCURVE",
"242 0 OFFCURVE",
"232 0 CURVE SMOOTH",
"227 0 LINE",
"212 0 OFFCURVE",
"201 0 OFFCURVE",
"161 0 CURVE SMOOTH",
"121 0 LINE SMOOTH",
"81 0 OFFCURVE",
"50 31 OFFCURVE",
"50 71 CURVE SMOOTH"
);
}
);
width = 852;
},
{
layerId = "D5846C3A-916F-42E8-8837-99B20A1F62F9";
paths = (
{
closed = 1;
nodes = (
"50 628 LINE SMOOTH",
"50 669 OFFCURVE",
"81 700 OFFCURVE",
"121 700 CURVE SMOOTH",
"334 700 LINE SMOOTH",
"374 700 OFFCURVE",
"405 669 OFFCURVE",
"405 628 CURVE SMOOTH",
"405 620 LINE SMOOTH",
"405 612 OFFCURVE",
"411 606 OFFCURVE",
"419 606 CURVE SMOOTH",
"433 606 LINE SMOOTH",
"441 606 OFFCURVE",
"447 612 OFFCURVE",
"447 620 CURVE SMOOTH",
"447 628 LINE SMOOTH",
"447 669 OFFCURVE",
"478 700 OFFCURVE",
"519 700 CURVE SMOOTH",
"730 700 LINE SMOOTH",
"771 700 OFFCURVE",
"802 669 OFFCURVE",
"802 628 CURVE SMOOTH",
"802 71 LINE SMOOTH",
"802 31 OFFCURVE",
"771 0 OFFCURVE",
"730 0 CURVE SMOOTH",
"691 0 LINE SMOOTH",
"650 0 OFFCURVE",
"619 31 OFFCURVE",
"619 71 CURVE SMOOTH",
"619 82 LINE SMOOTH",
"619 91 OFFCURVE",
"614 96 OFFCURVE",
"605 96 CURVE SMOOTH",
"591 96 LINE SMOOTH",
"583 96 OFFCURVE",
"577 91 OFFCURVE",
"577 82 CURVE SMOOTH",
"577 71 LINE SMOOTH",
"577 31 OFFCURVE",
"547 0 OFFCURVE",
"506 0 CURVE SMOOTH",
"345 0 LINE SMOOTH",
"305 0 OFFCURVE",
"274 31 OFFCURVE",
"274 71 CURVE SMOOTH",
"274 82 LINE SMOOTH",
"274 91 OFFCURVE",
"269 96 OFFCURVE",
"260 96 CURVE SMOOTH",
"246 96 LINE SMOOTH",
"238 96 OFFCURVE",
"232 91 OFFCURVE",
"232 82 CURVE SMOOTH",
"232 71 LINE SMOOTH",
"232 31 OFFCURVE",
"201 0 OFFCURVE",
"161 0 CURVE SMOOTH",
"121 0 LINE SMOOTH",
"81 0 OFFCURVE",
"50 31 OFFCURVE",
"50 71 CURVE SMOOTH"
);
}
);
width = 852;
},
{
layerId = "B57C1444-1622-4D1A-A412-9270A2806B96";
paths = (
{
closed = 1;
nodes = (
"50 628 LINE SMOOTH",
"50 669 OFFCURVE",
"81 700 OFFCURVE",
"121 700 CURVE SMOOTH",
"334 700 LINE SMOOTH",
"374 700 OFFCURVE",
"405 669 OFFCURVE",
"405 628 CURVE SMOOTH",
"405 500 LINE SMOOTH",
"405 492 OFFCURVE",
"411 486 OFFCURVE",
"419 486 CURVE SMOOTH",
"433 486 LINE SMOOTH",
"441 486 OFFCURVE",
"447 492 OFFCURVE",
"447 500 CURVE SMOOTH",
"447 628 LINE SMOOTH",
"447 669 OFFCURVE",
"478 700 OFFCURVE",
"519 700 CURVE SMOOTH",
"730 700 LINE SMOOTH",
"771 700 OFFCURVE",
"802 669 OFFCURVE",
"802 628 CURVE SMOOTH",
"802 71 LINE SMOOTH",
"802 31 OFFCURVE",
"771 0 OFFCURVE",
"730 0 CURVE SMOOTH",
"691 0 LINE SMOOTH",
"650 0 OFFCURVE",
"619 31 OFFCURVE",
"619 71 CURVE SMOOTH",
"619 202 LINE SMOOTH",
"619 211 OFFCURVE",
"614 216 OFFCURVE",
"605 216 CURVE SMOOTH",
"591 216 LINE SMOOTH",
"583 216 OFFCURVE",
"577 211 OFFCURVE",
"577 202 CURVE SMOOTH",
"577 71 LINE SMOOTH",
"577 31 OFFCURVE",
"547 0 OFFCURVE",
"506 0 CURVE SMOOTH",
"345 0 LINE SMOOTH",
"305 0 OFFCURVE",
"274 31 OFFCURVE",
"274 71 CURVE SMOOTH",
"274 202 LINE SMOOTH",
"274 211 OFFCURVE",
"269 216 OFFCURVE",
"260 216 CURVE SMOOTH",
"246 216 LINE SMOOTH",
"238 216 OFFCURVE",
"232 211 OFFCURVE",
"232 202 CURVE SMOOTH",
"232 71 LINE SMOOTH",
"232 31 OFFCURVE",
"201 0 OFFCURVE",
"161 0 CURVE SMOOTH",
"121 0 LINE SMOOTH",
"81 0 OFFCURVE",
"50 31 OFFCURVE",
"50 71 CURVE SMOOTH"
);
}
);
width = 852;
},
{
layerId = "106BB046-A4A4-4FD5-B9BF-C98528C7FAAB";
paths = (
{
closed = 1;
nodes = (
"50 628 LINE SMOOTH",
"50 669 OFFCURVE",
"81 700 OFFCURVE",
"121 700 CURVE SMOOTH",
"334 700 LINE SMOOTH",
"374 700 OFFCURVE",
"405 669 OFFCURVE",
"405 628 CURVE SMOOTH",
"405 370 LINE SMOOTH",
"405 362 OFFCURVE",
"411 356 OFFCURVE",
"419 356 CURVE SMOOTH",
"433 356 LINE SMOOTH",
"441 356 OFFCURVE",
"447 362 OFFCURVE",
"447 370 CURVE SMOOTH",
"447 628 LINE SMOOTH",
"447 669 OFFCURVE",
"478 700 OFFCURVE",
"519 700 CURVE SMOOTH",
"730 700 LINE SMOOTH",
"771 700 OFFCURVE",
"802 669 OFFCURVE",
"802 628 CURVE SMOOTH",
"802 71 LINE SMOOTH",
"802 31 OFFCURVE",
"771 0 OFFCURVE",
"730 0 CURVE SMOOTH",
"691 0 LINE SMOOTH",
"650 0 OFFCURVE",
"619 31 OFFCURVE",
"619 71 CURVE SMOOTH",
"619 342 LINE SMOOTH",
"619 351 OFFCURVE",
"614 356 OFFCURVE",
"605 356 CURVE SMOOTH",
"591 356 LINE SMOOTH",
"583 356 OFFCURVE",
"577 351 OFFCURVE",
"577 342 CURVE SMOOTH",
"577 71 LINE SMOOTH",
"577 31 OFFCURVE",
"547 0 OFFCURVE",
"506 0 CURVE SMOOTH",
"345 0 LINE SMOOTH",
"305 0 OFFCURVE",
"274 31 OFFCURVE",
"274 71 CURVE SMOOTH",
"274 342 LINE SMOOTH",
"274 351 OFFCURVE",
"269 356 OFFCURVE",
"260 356 CURVE SMOOTH",
"246 356 LINE SMOOTH",
"238 356 OFFCURVE",
"232 351 OFFCURVE",
"232 342 CURVE SMOOTH",
"232 71 LINE SMOOTH",
"232 31 OFFCURVE",
"201 0 OFFCURVE",
"161 0 CURVE SMOOTH",
"121 0 LINE SMOOTH",
"81 0 OFFCURVE",
"50 31 OFFCURVE",
"50 71 CURVE SMOOTH"
);
}
);
width = 852;
}
);
unicode = 004D;
},
{
glyphname = N;
lastChange = "2022-11-29 10:39:47 +0000";
layers = (
{
layerId = "A69B6916-D86B-4DB4-B111-C864CDAF75E2";
paths = (
{
closed = 1;
nodes = (
"50 72 LINE SMOOTH",
"50 30 OFFCURVE",
"81 0 OFFCURVE",
"123 0 CURVE SMOOTH",
"162 0 LINE SMOOTH",
"202 0 OFFCURVE",
"213 0 OFFCURVE",
"228 0 CURVE",
"232 0 LINE SMOOTH",
"242 0 OFFCURVE",
"237 0 OFFCURVE",
"246 0 CURVE SMOOTH",
"260 0 LINE SMOOTH",
"268 0 OFFCURVE",
"264 0 OFFCURVE",
"274 0 CURVE SMOOTH",
"279 0 LINE",
"294 0 OFFCURVE",
"305 0 OFFCURVE",
"346 0 CURVE SMOOTH",
"730 0 LINE SMOOTH",
"771 0 OFFCURVE",
"802 31 OFFCURVE",
"802 72 CURVE SMOOTH",
"802 628 LINE SMOOTH",
"802 669 OFFCURVE",
"771 700 OFFCURVE",
"730 700 CURVE SMOOTH",
"691 700 LINE SMOOTH",
"650 700 OFFCURVE",
"639 700 OFFCURVE",
"625 700 CURVE",
"620 700 LINE SMOOTH",
"613 700 OFFCURVE",
"614 700 OFFCURVE",
"606 700 CURVE SMOOTH",
"592 700 LINE SMOOTH",
"583 700 OFFCURVE",
"585 700 OFFCURVE",
"578 700 CURVE SMOOTH",
"573 700 LINE",
"552 700 OFFCURVE",
"547 700 OFFCURVE",
"506 700 CURVE SMOOTH",
"122 700 LINE SMOOTH",
"81 700 OFFCURVE",
"50 669 OFFCURVE",
"50 628 CURVE SMOOTH"
);
}
);
width = 852;
},
{
layerId = "D5846C3A-916F-42E8-8837-99B20A1F62F9";
paths = (
{
closed = 1;
nodes = (
"50 72 LINE SMOOTH",
"50 30 OFFCURVE",
"81 0 OFFCURVE",
"123 0 CURVE SMOOTH",
"162 0 LINE SMOOTH",
"202 0 OFFCURVE",
"232 30 OFFCURVE",
"232 70 CURVE SMOOTH",
"232 86 LINE SMOOTH",
"232 95 OFFCURVE",
"237 100 OFFCURVE",
"246 100 CURVE SMOOTH",
"260 100 LINE SMOOTH",
"268 100 OFFCURVE",
"274 95 OFFCURVE",
"274 86 CURVE SMOOTH",
"274 72 LINE SMOOTH",
"274 31 OFFCURVE",
"305 0 OFFCURVE",
"346 0 CURVE SMOOTH",
"730 0 LINE SMOOTH",
"771 0 OFFCURVE",
"802 31 OFFCURVE",
"802 72 CURVE SMOOTH",
"802 628 LINE SMOOTH",
"802 669 OFFCURVE",
"771 700 OFFCURVE",
"730 700 CURVE SMOOTH",
"691 700 LINE SMOOTH",
"650 700 OFFCURVE",
"620 669 OFFCURVE",
"620 628 CURVE SMOOTH",
"620 623 LINE SMOOTH",
"620 615 OFFCURVE",
"614 610 OFFCURVE",
"606 610 CURVE SMOOTH",
"592 610 LINE SMOOTH",
"583 610 OFFCURVE",
"578 615 OFFCURVE",
"578 623 CURVE SMOOTH",
"578 628 LINE SMOOTH",
"578 669 OFFCURVE",
"547 700 OFFCURVE",
"506 700 CURVE SMOOTH",
"122 700 LINE SMOOTH",
"81 700 OFFCURVE",
"50 669 OFFCURVE",
"50 628 CURVE SMOOTH"
);
}
);
width = 852;
},
{
layerId = "B57C1444-1622-4D1A-A412-9270A2806B96";
paths = (
{
closed = 1;
nodes = (
"50 72 LINE SMOOTH",
"50 30 OFFCURVE",
"81 0 OFFCURVE",
"123 0 CURVE SMOOTH",
"162 0 LINE SMOOTH",
"202 0 OFFCURVE",
"232 30 OFFCURVE",
"232 70 CURVE SMOOTH",
"232 226 LINE SMOOTH",
"232 235 OFFCURVE",
"237 240 OFFCURVE",
"246 240 CURVE SMOOTH",
"260 240 LINE SMOOTH",
"268 240 OFFCURVE",
"274 235 OFFCURVE",
"274 226 CURVE SMOOTH",
"274 72 LINE SMOOTH",
"274 31 OFFCURVE",
"305 0 OFFCURVE",
"346 0 CURVE SMOOTH",
"730 0 LINE SMOOTH",
"771 0 OFFCURVE",
"802 31 OFFCURVE",
"802 72 CURVE SMOOTH",
"802 628 LINE SMOOTH",
"802 669 OFFCURVE",
"771 700 OFFCURVE",
"730 700 CURVE SMOOTH",
"691 700 LINE SMOOTH",
"650 700 OFFCURVE",
"620 669 OFFCURVE",
"620 628 CURVE SMOOTH",
"620 483 LINE SMOOTH",
"620 475 OFFCURVE",
"614 470 OFFCURVE",
"606 470 CURVE SMOOTH",
"592 470 LINE SMOOTH",
"583 470 OFFCURVE",
"578 475 OFFCURVE",
"578 483 CURVE SMOOTH",
"578 628 LINE SMOOTH",
"578 669 OFFCURVE",
"547 700 OFFCURVE",
"506 700 CURVE SMOOTH",
"122 700 LINE SMOOTH",
"81 700 OFFCURVE",
"50 669 OFFCURVE",
"50 628 CURVE SMOOTH"
);
}
);
width = 852;
},
{
layerId = "106BB046-A4A4-4FD5-B9BF-C98528C7FAAB";
paths = (
{
closed = 1;
nodes = (
"50 72 LINE SMOOTH",
"50 30 OFFCURVE",
"81 0 OFFCURVE",
"123 0 CURVE SMOOTH",
"162 0 LINE SMOOTH",
"202 0 OFFCURVE",
"232 30 OFFCURVE",
"232 70 CURVE SMOOTH",
"232 336 LINE SMOOTH",
"232 345 OFFCURVE",
"237 350 OFFCURVE",
"246 350 CURVE SMOOTH",
"260 350 LINE SMOOTH",
"268 350 OFFCURVE",
"274 345 OFFCURVE",
"274 336 CURVE SMOOTH",
"274 72 LINE SMOOTH",
"274 31 OFFCURVE",
"305 0 OFFCURVE",
"346 0 CURVE SMOOTH",
"730 0 LINE SMOOTH",
"771 0 OFFCURVE",
"802 31 OFFCURVE",
"802 72 CURVE SMOOTH",
"802 628 LINE SMOOTH",
"802 669 OFFCURVE",
"771 700 OFFCURVE",
"730 700 CURVE SMOOTH",
"691 700 LINE SMOOTH",
"650 700 OFFCURVE",
"620 669 OFFCURVE",
"620 628 CURVE SMOOTH",
"620 363 LINE SMOOTH",
"620 355 OFFCURVE",
"614 350 OFFCURVE",
"606 350 CURVE SMOOTH",
"592 350 LINE SMOOTH",
"583 350 OFFCURVE",
"578 355 OFFCURVE",
"578 363 CURVE SMOOTH",
"578 628 LINE SMOOTH",
"578 669 OFFCURVE",
"547 700 OFFCURVE",
"506 700 CURVE SMOOTH",
"122 700 LINE SMOOTH",
"81 700 OFFCURVE",
"50 669 OFFCURVE",
"50 628 CURVE SMOOTH"
);
}
);
width = 852;
}
);
unicode = 004E;
},
{
glyphname = O;
lastChange = "2022-11-29 10:42:25 +0000";
layers = (
{
layerId = "A69B6916-D86B-4DB4-B111-C864CDAF75E2";
paths = (
{
closed = 1;
nodes = (
"50 115 LINE SMOOTH",
"50 49 OFFCURVE",
"99 0 OFFCURVE",
"165 0 CURVE SMOOTH",
"686 0 LINE SMOOTH",
"752 0 OFFCURVE",
"802 49 OFFCURVE",
"802 115 CURVE SMOOTH",
"802 584 LINE SMOOTH",
"802 650 OFFCURVE",
"752 700 OFFCURVE",
"686 700 CURVE SMOOTH",
"165 700 LINE SMOOTH",
"99 700 OFFCURVE",
"50 650 OFFCURVE",
"50 584 CURVE SMOOTH"
);
},
{
closed = 1;
nodes = (
"434 329 LINE SMOOTH",
"442 329 OFFCURVE",
"443 329 OFFCURVE",
"447 329 CURVE SMOOTH",
"447 329 LINE SMOOTH",
"443 329 OFFCURVE",
"442 329 OFFCURVE",
"434 329 CURVE SMOOTH",
"420 329 LINE SMOOTH",
"412 329 OFFCURVE",
"410 329 OFFCURVE",
"405 329 CURVE SMOOTH",
"405 329 LINE SMOOTH",
"412 329 OFFCURVE",
"412 329 OFFCURVE",
"420 329 CURVE SMOOTH"
);
}
);
width = 852;
},
{
layerId = "D5846C3A-916F-42E8-8837-99B20A1F62F9";
paths = (
{
closed = 1;
nodes = (
"50 115 LINE SMOOTH",
"50 49 OFFCURVE",
"99 0 OFFCURVE",
"165 0 CURVE SMOOTH",
"686 0 LINE SMOOTH",
"752 0 OFFCURVE",
"802 49 OFFCURVE",
"802 115 CURVE SMOOTH",
"802 584 LINE SMOOTH",
"802 650 OFFCURVE",
"752 700 OFFCURVE",
"686 700 CURVE SMOOTH",
"165 700 LINE SMOOTH",
"99 700 OFFCURVE",
"50 650 OFFCURVE",
"50 584 CURVE SMOOTH"
);
},
{
closed = 1;
nodes = (
"433 355 LINE SMOOTH",
"441 355 OFFCURVE",
"447 349 OFFCURVE",
"447 341 CURVE SMOOTH",
"447 321 LINE SMOOTH",
"447 312 OFFCURVE",
"441 307 OFFCURVE",
"433 307 CURVE SMOOTH",
"419 307 LINE SMOOTH",
"411 307 OFFCURVE",
"405 312 OFFCURVE",
"405 321 CURVE SMOOTH",
"405 341 LINE SMOOTH",
"405 349 OFFCURVE",
"411 355 OFFCURVE",
"419 355 CURVE SMOOTH"
);
}
);
width = 852;
},
{
layerId = "B57C1444-1622-4D1A-A412-9270A2806B96";
paths = (
{
closed = 1;
nodes = (
"50 115 LINE SMOOTH",
"50 49 OFFCURVE",
"99 0 OFFCURVE",
"165 0 CURVE SMOOTH",
"686 0 LINE SMOOTH",
"752 0 OFFCURVE",
"802 49 OFFCURVE",
"802 115 CURVE SMOOTH",
"802 584 LINE SMOOTH",
"802 650 OFFCURVE",
"752 700 OFFCURVE",
"686 700 CURVE SMOOTH",
"165 700 LINE SMOOTH",
"99 700 OFFCURVE",
"50 650 OFFCURVE",
"50 584 CURVE SMOOTH"
);
},
{
closed = 1;
nodes = (
"433 418 LINE SMOOTH",
"441 418 OFFCURVE",
"447 412 OFFCURVE",
"447 404 CURVE SMOOTH",
"447 276 LINE SMOOTH",
"447 267 OFFCURVE",
"441 262 OFFCURVE",
"433 262 CURVE SMOOTH",
"419 262 LINE SMOOTH",
"411 262 OFFCURVE",
"405 267 OFFCURVE",
"405 276 CURVE SMOOTH",
"405 404 LINE SMOOTH",
"405 412 OFFCURVE",
"411 418 OFFCURVE",
"419 418 CURVE SMOOTH"
);
}
);
width = 852;
},
{
layerId = "106BB046-A4A4-4FD5-B9BF-C98528C7FAAB";
paths = (
{
closed = 1;
nodes = (
"50 115 LINE SMOOTH",
"50 49 OFFCURVE",
"99 0 OFFCURVE",
"165 0 CURVE SMOOTH",
"686 0 LINE SMOOTH",
"752 0 OFFCURVE",
"802 49 OFFCURVE",
"802 115 CURVE SMOOTH",
"802 584 LINE SMOOTH",
"802 650 OFFCURVE",
"752 700 OFFCURVE",
"686 700 CURVE SMOOTH",
"165 700 LINE SMOOTH",
"99 700 OFFCURVE",
"50 650 OFFCURVE",
"50 584 CURVE SMOOTH"
);
},
{
closed = 1;
nodes = (
"433 518 LINE SMOOTH",
"441 518 OFFCURVE",
"447 512 OFFCURVE",
"447 504 CURVE SMOOTH",
"447 196 LINE SMOOTH",
"447 187 OFFCURVE",
"441 182 OFFCURVE",
"433 182 CURVE SMOOTH",
"419 182 LINE SMOOTH",
"411 182 OFFCURVE",
"405 187 OFFCURVE",
"405 196 CURVE SMOOTH",
"405 504 LINE SMOOTH",
"405 512 OFFCURVE",
"411 518 OFFCURVE",
"419 518 CURVE SMOOTH"
);
}
);
width = 852;
}
);
unicode = 004F;
},
{
glyphname = P;
lastChange = "2022-11-29 10:45:44 +0000";
layers = (
{
layerId = "A69B6916-D86B-4DB4-B111-C864CDAF75E2";
paths = (
{
closed = 1;
nodes = (
"50 71 LINE SMOOTH",
"50 31 OFFCURVE",
"81 0 OFFCURVE",
"121 0 CURVE SMOOTH",
"161 0 LINE SMOOTH",
"201 0 OFFCURVE",
"226 0 OFFCURVE",
"232 0 CURVE",
"235 0 LINE SMOOTH",
"243 0 OFFCURVE",
"238 0 OFFCURVE",
"246 0 CURVE SMOOTH",
"687 0 LINE SMOOTH",
"753 0 OFFCURVE",
"802 49 OFFCURVE",
"802 115 CURVE SMOOTH",
"802 585 LINE SMOOTH",
"802 651 OFFCURVE",
"753 700 OFFCURVE",
"687 700 CURVE SMOOTH",
"121 700 LINE SMOOTH",
"81 700 OFFCURVE",
"50 669 OFFCURVE",
"50 629 CURVE SMOOTH"
);
},
{
closed = 1;
nodes = (
"426 372 LINE SMOOTH",
"426 376 OFFCURVE",
"426 378 OFFCURVE",
"426 386 CURVE SMOOTH",
"426 400 LINE SMOOTH",
"426 409 OFFCURVE",
"426 408 OFFCURVE",
"426 414 CURVE SMOOTH",
"426 414 LINE SMOOTH",
"426 408 OFFCURVE",
"426 409 OFFCURVE",
"426 400 CURVE SMOOTH",
"426 386 LINE SMOOTH",
"426 378 OFFCURVE",
"426 377 OFFCURVE",
"426 372 CURVE SMOOTH"
);
}
);
width = 852;
},
{
layerId = "D5846C3A-916F-42E8-8837-99B20A1F62F9";
paths = (
{
closed = 1;
nodes = (
"50 71 LINE SMOOTH",
"50 31 OFFCURVE",
"81 0 OFFCURVE",
"121 0 CURVE SMOOTH",
"161 0 LINE SMOOTH",
"201 0 OFFCURVE",
"232 -1 OFFCURVE",
"232 9 CURVE",
"232 13 LINE SMOOTH",
"232 21 OFFCURVE",
"238 27 OFFCURVE",
"246 27 CURVE SMOOTH",
"687 27 LINE SMOOTH",
"753 27 OFFCURVE",
"802 76 OFFCURVE",
"802 142 CURVE SMOOTH",
"802 585 LINE SMOOTH",
"802 651 OFFCURVE",
"753 700 OFFCURVE",
"687 700 CURVE SMOOTH",
"121 700 LINE SMOOTH",
"81 700 OFFCURVE",
"50 669 OFFCURVE",
"50 629 CURVE SMOOTH"
);
},
{
closed = 1;
nodes = (
"396 372 LINE SMOOTH",
"388 372 OFFCURVE",
"382 378 OFFCURVE",
"382 386 CURVE SMOOTH",
"382 400 LINE SMOOTH",
"382 409 OFFCURVE",
"388 414 OFFCURVE",
"396 414 CURVE SMOOTH",
"456 414 LINE SMOOTH",
"464 414 OFFCURVE",
"470 409 OFFCURVE",
"470 400 CURVE SMOOTH",
"470 386 LINE SMOOTH",
"470 378 OFFCURVE",
"464 372 OFFCURVE",
"456 372 CURVE SMOOTH"
);
}
);
width = 852;
},
{
layerId = "B57C1444-1622-4D1A-A412-9270A2806B96";
paths = (
{
closed = 1;
nodes = (
"50 71 LINE SMOOTH",
"50 31 OFFCURVE",
"81 0 OFFCURVE",
"121 0 CURVE SMOOTH",
"161 0 LINE SMOOTH",
"201 0 OFFCURVE",
"232 -9 OFFCURVE",
"232 31 CURVE SMOOTH",
"232 33 LINE SMOOTH",
"232 41 OFFCURVE",
"238 47 OFFCURVE",
"246 47 CURVE SMOOTH",
"687 47 LINE SMOOTH",
"753 47 OFFCURVE",
"802 96 OFFCURVE",
"802 162 CURVE SMOOTH",
"802 585 LINE SMOOTH",
"802 651 OFFCURVE",
"753 700 OFFCURVE",
"687 700 CURVE SMOOTH",
"121 700 LINE SMOOTH",
"81 700 OFFCURVE",
"50 669 OFFCURVE",
"50 629 CURVE SMOOTH"
);
},
{
closed = 1;
nodes = (
"306 372 LINE SMOOTH",
"298 372 OFFCURVE",
"292 378 OFFCURVE",
"292 386 CURVE SMOOTH",
"292 400 LINE SMOOTH",
"292 409 OFFCURVE",
"298 414 OFFCURVE",
"306 414 CURVE SMOOTH",
"536 414 LINE SMOOTH",
"544 414 OFFCURVE",
"550 409 OFFCURVE",
"550 400 CURVE SMOOTH",
"550 386 LINE SMOOTH",
"550 378 OFFCURVE",
"544 372 OFFCURVE",
"536 372 CURVE SMOOTH"
);
}
);
width = 852;
},
{
layerId = "106BB046-A4A4-4FD5-B9BF-C98528C7FAAB";
paths = (
{
closed = 1;
nodes = (
"50 71 LINE SMOOTH",
"50 31 OFFCURVE",
"81 0 OFFCURVE",
"121 0 CURVE SMOOTH",
"161 0 LINE SMOOTH",
"201 0 OFFCURVE",
"232 31 OFFCURVE",
"232 71 CURVE SMOOTH",
"232 73 LINE SMOOTH",
"232 81 OFFCURVE",
"238 87 OFFCURVE",
"246 87 CURVE SMOOTH",
"687 87 LINE SMOOTH",
"753 87 OFFCURVE",
"802 136 OFFCURVE",
"802 202 CURVE SMOOTH",
"802 585 LINE SMOOTH",
"802 651 OFFCURVE",
"753 700 OFFCURVE",
"687 700 CURVE SMOOTH",
"121 700 LINE SMOOTH",
"81 700 OFFCURVE",
"50 669 OFFCURVE",
"50 629 CURVE SMOOTH"
);
},
{
closed = 1;
nodes = (
"246 372 LINE SMOOTH",
"238 372 OFFCURVE",
"232 378 OFFCURVE",
"232 386 CURVE SMOOTH",
"232 400 LINE SMOOTH",
"232 409 OFFCURVE",
"238 414 OFFCURVE",
"246 414 CURVE SMOOTH",
"606 414 LINE SMOOTH",
"614 414 OFFCURVE",
"620 409 OFFCURVE",
"620 400 CURVE SMOOTH",
"620 386 LINE SMOOTH",
"620 378 OFFCURVE",
"614 372 OFFCURVE",
"606 372 CURVE SMOOTH"
);
}
);
width = 852;
}
);
unicode = 0050;
},
{
glyphname = Q;
lastChange = "2022-11-29 10:55:32 +0000";
layers = (
{
layerId = "A69B6916-D86B-4DB4-B111-C864CDAF75E2";
paths = (
{
closed = 1;
nodes = (
"50 115 LINE SMOOTH",
"50 48 OFFCURVE",
"99 0 OFFCURVE",
"165 0 CURVE SMOOTH",
"217 0 LINE SMOOTH",
"226 0 OFFCURVE",
"223 0 OFFCURVE",
"231 0 CURVE SMOOTH",
"232 0 LINE SMOOTH",
"240 0 OFFCURVE",
"238 0 OFFCURVE",
"246 0 CURVE SMOOTH",
"788 0 LINE SMOOTH",
"797 0 OFFCURVE",
"802 6 OFFCURVE",
"802 14 CURVE SMOOTH",
"802 168 LINE SMOOTH",
"802 177 OFFCURVE",
"802 173 OFFCURVE",
"802 182 CURVE SMOOTH",
"802 192 LINE SMOOTH",
"802 200 OFFCURVE",
"802 198 OFFCURVE",
"802 206 CURVE SMOOTH",
"802 586 LINE SMOOTH",
"802 651 OFFCURVE",
"753 700 OFFCURVE",
"687 700 CURVE SMOOTH",
"165 700 LINE SMOOTH",
"99 700 OFFCURVE",
"51 654 OFFCURVE",
"51 587 CURVE SMOOTH"
);
},
{
closed = 1;
nodes = (
"407 282 LINE SMOOTH",
"407 278 OFFCURVE",
"407 276 OFFCURVE",
"407 268 CURVE SMOOTH",
"407 254 LINE SMOOTH",
"407 245 OFFCURVE",
"407 249 OFFCURVE",
"407 240 CURVE",
"407 240 LINE",
"407 244 OFFCURVE",
"407 245 OFFCURVE",
"407 240 CURVE",
"407 244 LINE",
"407 248 OFFCURVE",
"407 252 OFFCURVE",
"407 258 CURVE",
"407 240 LINE",
"407 243 OFFCURVE",
"407 246 OFFCURVE",
"407 254 CURVE SMOOTH",
"407 268 LINE SMOOTH",
"407 276 OFFCURVE",
"407 275 OFFCURVE",
"407 282 CURVE SMOOTH"
);
}
);
width = 852;
},
{
layerId = "D5846C3A-916F-42E8-8837-99B20A1F62F9";
paths = (
{
closed = 1;
nodes = (
"50 144 LINE SMOOTH",
"50 77 OFFCURVE",
"99 29 OFFCURVE",
"165 29 CURVE SMOOTH",
"218 29 LINE SMOOTH",
"227 29 OFFCURVE",
"232 23 OFFCURVE",
"232 15 CURVE SMOOTH",
"232 14 LINE SMOOTH",
"232 6 OFFCURVE",
"238 0 OFFCURVE",
"246 0 CURVE SMOOTH",
"788 0 LINE SMOOTH",
"797 0 OFFCURVE",
"802 6 OFFCURVE",
"802 14 CURVE SMOOTH",
"802 168 LINE SMOOTH",
"802 177 OFFCURVE",
"797 182 OFFCURVE",
"788 182 CURVE SMOOTH",
"787 182 LINE SMOOTH",
"779 182 OFFCURVE",
"773 188 OFFCURVE",
"773 196 CURVE SMOOTH",
"773 586 LINE SMOOTH",
"773 651 OFFCURVE",
"724 700 OFFCURVE",
"658 700 CURVE SMOOTH",
"165 700 LINE SMOOTH",
"99 700 OFFCURVE",
"51 654 OFFCURVE",
"51 587 CURVE SMOOTH"
);
},
{
closed = 1;
nodes = (
"436 282 LINE SMOOTH",
"444 282 OFFCURVE",
"450 276 OFFCURVE",
"450 268 CURVE SMOOTH",
"450 254 LINE SMOOTH",
"450 245 OFFCURVE",
"444 240 OFFCURVE",
"436 240 CURVE SMOOTH",
"421 240 LINE SMOOTH",
"413 240 OFFCURVE",
"411 240 OFFCURVE",
"407 240 CURVE",
"404 240 LINE",
"400 240 OFFCURVE",
"399 240 OFFCURVE",
"390 240 CURVE SMOOTH",
"378 240 LINE SMOOTH",
"369 240 OFFCURVE",
"364 246 OFFCURVE",
"364 254 CURVE SMOOTH",
"364 268 LINE SMOOTH",
"364 276 OFFCURVE",
"369 282 OFFCURVE",
"378 282 CURVE SMOOTH"
);
}
);
width = 852;
},
{
layerId = "B57C1444-1622-4D1A-A412-9270A2806B96";
paths = (
{
closed = 1;
nodes = (
"50 157 LINE SMOOTH",
"50 90 OFFCURVE",
"99 42 OFFCURVE",
"165 42 CURVE SMOOTH",
"218 42 LINE SMOOTH",
"227 42 OFFCURVE",
"232 36 OFFCURVE",
"232 28 CURVE SMOOTH",
"232 14 LINE SMOOTH",
"232 6 OFFCURVE",
"238 0 OFFCURVE",
"246 0 CURVE SMOOTH",
"788 0 LINE SMOOTH",
"797 0 OFFCURVE",
"802 6 OFFCURVE",
"802 14 CURVE SMOOTH",
"802 168 LINE SMOOTH",
"802 177 OFFCURVE",
"797 182 OFFCURVE",
"788 182 CURVE SMOOTH",
"774 182 LINE SMOOTH",
"766 182 OFFCURVE",
"760 188 OFFCURVE",
"760 196 CURVE SMOOTH",
"760 586 LINE SMOOTH",
"760 651 OFFCURVE",
"711 700 OFFCURVE",
"645 700 CURVE SMOOTH",
"165 700 LINE SMOOTH",
"99 700 OFFCURVE",
"51 654 OFFCURVE",
"51 587 CURVE SMOOTH"
);
},
{
closed = 1;
nodes = (
"566 282 LINE SMOOTH",
"574 282 OFFCURVE",
"580 276 OFFCURVE",
"580 268 CURVE SMOOTH",
"580 254 LINE SMOOTH",
"580 245 OFFCURVE",
"574 240 OFFCURVE",
"566 240 CURVE SMOOTH",
"246 240 LINE SMOOTH",
"238 240 OFFCURVE",
"236 240 OFFCURVE",
"232 240 CURVE",
"229 240 LINE",
"224 240 OFFCURVE",
"224 240 OFFCURVE",
"215 240 CURVE SMOOTH",
"203 240 LINE SMOOTH",
"194 240 OFFCURVE",
"189 246 OFFCURVE",
"189 254 CURVE SMOOTH",
"189 268 LINE SMOOTH",
"189 276 OFFCURVE",
"194 282 OFFCURVE",
"203 282 CURVE SMOOTH"
);
}
);
width = 852;
},
{
layerId = "106BB046-A4A4-4FD5-B9BF-C98528C7FAAB";
paths = (
{
closed = 1;
nodes = (
"50 157 LINE SMOOTH",
"50 90 OFFCURVE",
"99 42 OFFCURVE",
"165 42 CURVE SMOOTH",
"218 42 LINE SMOOTH",
"227 42 OFFCURVE",
"232 36 OFFCURVE",
"232 28 CURVE SMOOTH",
"232 14 LINE SMOOTH",
"232 6 OFFCURVE",
"238 0 OFFCURVE",
"246 0 CURVE SMOOTH",
"788 0 LINE SMOOTH",
"797 0 OFFCURVE",
"802 6 OFFCURVE",
"802 14 CURVE SMOOTH",
"802 168 LINE SMOOTH",
"802 177 OFFCURVE",
"797 182 OFFCURVE",
"788 182 CURVE SMOOTH",
"774 182 LINE SMOOTH",
"766 182 OFFCURVE",
"760 188 OFFCURVE",
"760 196 CURVE SMOOTH",
"760 586 LINE SMOOTH",
"760 651 OFFCURVE",
"711 700 OFFCURVE",
"645 700 CURVE SMOOTH",
"165 700 LINE SMOOTH",
"99 700 OFFCURVE",
"51 654 OFFCURVE",
"51 587 CURVE SMOOTH"
);
},
{
closed = 1;
nodes = (
"566 282 LINE SMOOTH",
"574 282 OFFCURVE",
"580 276 OFFCURVE",
"580 268 CURVE SMOOTH",
"580 254 LINE SMOOTH",
"580 245 OFFCURVE",
"574 240 OFFCURVE",
"566 240 CURVE SMOOTH",
"246 240 LINE SMOOTH",
"238 240 OFFCURVE",
"232 234 OFFCURVE",
"232 226 CURVE SMOOTH",
"232 196 LINE SMOOTH",
"232 188 OFFCURVE",
"227 182 OFFCURVE",
"218 182 CURVE SMOOTH",
"203 182 LINE SMOOTH",
"194 182 OFFCURVE",
"189 188 OFFCURVE",
"189 196 CURVE SMOOTH",
"189 268 LINE SMOOTH",
"189 276 OFFCURVE",
"194 282 OFFCURVE",
"203 282 CURVE SMOOTH"
);
}
);
width = 852;
}
);
unicode = 0051;
},
{
glyphname = R;
lastChange = "2022-11-29 10:59:21 +0000";
layers = (
{
layerId = "A69B6916-D86B-4DB4-B111-C864CDAF75E2";
paths = (
{
closed = 1;
nodes = (
"50 71 LINE SMOOTH",
"50 31 OFFCURVE",
"81 0 OFFCURVE",
"121 0 CURVE SMOOTH",
"161 0 LINE SMOOTH",
"201 0 OFFCURVE",
"200 0 OFFCURVE",
"222 0 CURVE",
"232 0 LINE SMOOTH",
"242 0 OFFCURVE",
"238 0 OFFCURVE",
"246 0 CURVE SMOOTH",
"260 0 LINE SMOOTH",
"268 0 OFFCURVE",
"266 0 OFFCURVE",
"274 0 CURVE SMOOTH",
"286 0 LINE",
"309 0 OFFCURVE",
"305 0 OFFCURVE",
"345 0 CURVE SMOOTH",
"731 0 LINE SMOOTH",
"771 0 OFFCURVE",
"802 31 OFFCURVE",
"802 71 CURVE SMOOTH",
"802 234 LINE SMOOTH",
"802 274 OFFCURVE",
"802 281 OFFCURVE",
"802 298 CURVE",
"802 305 LINE SMOOTH",
"802 313 OFFCURVE",
"802 311 OFFCURVE",
"802 319 CURVE SMOOTH",
"802 336 LINE SMOOTH",
"802 344 OFFCURVE",
"802 342 OFFCURVE",
"802 350 CURVE SMOOTH",
"802 357 LINE",
"802 371 OFFCURVE",
"802 399 OFFCURVE",
"802 465 CURVE SMOOTH",
"802 585 LINE SMOOTH",
"802 651 OFFCURVE",
"753 700 OFFCURVE",
"687 700 CURVE SMOOTH",
"121 700 LINE SMOOTH",
"81 700 OFFCURVE",
"50 669 OFFCURVE",
"50 629 CURVE SMOOTH"
);
},
{
closed = 1;
nodes = (
"416 420 LINE SMOOTH",
"416 429 OFFCURVE",
"416 429 OFFCURVE",
"416 434 CURVE SMOOTH",
"416 434 LINE SMOOTH",
"416 428 OFFCURVE",
"416 429 OFFCURVE",
"416 420 CURVE SMOOTH",
"416 406 LINE SMOOTH",
"416 398 OFFCURVE",
"416 396 OFFCURVE",
"416 392 CURVE SMOOTH",
"416 392 LINE SMOOTH",
"416 398 OFFCURVE",
"416 398 OFFCURVE",
"416 406 CURVE SMOOTH"
);
}
);
width = 852;
},
{
layerId = "D5846C3A-916F-42E8-8837-99B20A1F62F9";
paths = (
{
closed = 1;
nodes = (
"50 71 LINE SMOOTH",
"50 31 OFFCURVE",
"81 0 OFFCURVE",
"121 0 CURVE SMOOTH",
"161 0 LINE SMOOTH",
"201 0 OFFCURVE",
"232 31 OFFCURVE",
"232 71 CURVE SMOOTH",
"232 81 LINE SMOOTH",
"232 90 OFFCURVE",
"238 95 OFFCURVE",
"246 95 CURVE SMOOTH",
"260 95 LINE SMOOTH",
"268 95 OFFCURVE",
"274 90 OFFCURVE",
"274 81 CURVE SMOOTH",
"274 71 LINE SMOOTH",
"274 31 OFFCURVE",
"305 0 OFFCURVE",
"345 0 CURVE SMOOTH",
"731 0 LINE SMOOTH",
"771 0 OFFCURVE",
"802 31 OFFCURVE",
"802 71 CURVE SMOOTH",
"802 234 LINE SMOOTH",
"802 274 OFFCURVE",
"771 305 OFFCURVE",
"731 305 CURVE SMOOTH",
"680 305 LINE SMOOTH",
"672 305 OFFCURVE",
"666 311 OFFCURVE",
"666 319 CURVE SMOOTH",
"666 336 LINE SMOOTH",
"666 344 OFFCURVE",
"672 350 OFFCURVE",
"680 350 CURVE SMOOTH",
"687 350 LINE SMOOTH",
"753 350 OFFCURVE",
"802 399 OFFCURVE",
"802 465 CURVE SMOOTH",
"802 585 LINE SMOOTH",
"802 651 OFFCURVE",
"753 700 OFFCURVE",
"687 700 CURVE SMOOTH",
"121 700 LINE SMOOTH",
"81 700 OFFCURVE",
"50 669 OFFCURVE",
"50 629 CURVE SMOOTH"
);
},
{
closed = 1;
nodes = (
"372 420 LINE SMOOTH",
"372 429 OFFCURVE",
"378 434 OFFCURVE",
"386 434 CURVE SMOOTH",
"466 434 LINE SMOOTH",
"474 434 OFFCURVE",
"480 429 OFFCURVE",
"480 420 CURVE SMOOTH",
"480 406 LINE SMOOTH",
"480 398 OFFCURVE",
"474 392 OFFCURVE",
"466 392 CURVE SMOOTH",
"386 392 LINE SMOOTH",
"378 392 OFFCURVE",
"372 398 OFFCURVE",
"372 406 CURVE SMOOTH"
);
}
);
width = 852;
},
{
layerId = "B57C1444-1622-4D1A-A412-9270A2806B96";
paths = (
{
closed = 1;
nodes = (
"50 71 LINE SMOOTH",
"50 31 OFFCURVE",
"81 0 OFFCURVE",
"121 0 CURVE SMOOTH",
"161 0 LINE SMOOTH",
"201 0 OFFCURVE",
"232 31 OFFCURVE",
"232 71 CURVE SMOOTH",
"232 181 LINE SMOOTH",
"232 190 OFFCURVE",
"238 195 OFFCURVE",
"246 195 CURVE SMOOTH",
"260 195 LINE SMOOTH",
"268 195 OFFCURVE",
"274 190 OFFCURVE",
"274 181 CURVE SMOOTH",
"274 71 LINE SMOOTH",
"274 31 OFFCURVE",
"305 0 OFFCURVE",
"345 0 CURVE SMOOTH",
"731 0 LINE SMOOTH",
"771 0 OFFCURVE",
"802 31 OFFCURVE",
"802 71 CURVE SMOOTH",
"802 234 LINE SMOOTH",
"802 274 OFFCURVE",
"771 305 OFFCURVE",
"731 305 CURVE SMOOTH",
"480 305 LINE SMOOTH",
"472 305 OFFCURVE",
"466 311 OFFCURVE",
"466 319 CURVE SMOOTH",
"466 336 LINE SMOOTH",
"466 344 OFFCURVE",
"472 350 OFFCURVE",
"480 350 CURVE SMOOTH",
"687 350 LINE SMOOTH",
"753 350 OFFCURVE",
"802 399 OFFCURVE",
"802 465 CURVE SMOOTH",
"802 585 LINE SMOOTH",
"802 651 OFFCURVE",
"753 700 OFFCURVE",
"687 700 CURVE SMOOTH",
"121 700 LINE SMOOTH",
"81 700 OFFCURVE",
"50 669 OFFCURVE",
"50 629 CURVE SMOOTH"
);
},
{
closed = 1;
nodes = (
"292 420 LINE SMOOTH",
"292 429 OFFCURVE",
"298 434 OFFCURVE",
"306 434 CURVE SMOOTH",
"546 434 LINE SMOOTH",
"554 434 OFFCURVE",
"560 429 OFFCURVE",
"560 420 CURVE SMOOTH",
"560 406 LINE SMOOTH",
"560 398 OFFCURVE",
"554 392 OFFCURVE",
"546 392 CURVE SMOOTH",
"306 392 LINE SMOOTH",
"298 392 OFFCURVE",
"292 398 OFFCURVE",
"292 406 CURVE SMOOTH"
);
}
);
width = 852;
},
{
layerId = "106BB046-A4A4-4FD5-B9BF-C98528C7FAAB";
paths = (
{
closed = 1;
nodes = (
"50 71 LINE SMOOTH",
"50 31 OFFCURVE",
"81 0 OFFCURVE",
"121 0 CURVE SMOOTH",
"161 0 LINE SMOOTH",
"201 0 OFFCURVE",
"232 31 OFFCURVE",
"232 71 CURVE SMOOTH",
"232 291 LINE SMOOTH",
"232 300 OFFCURVE",
"238 305 OFFCURVE",
"246 305 CURVE SMOOTH",
"260 305 LINE SMOOTH",
"268 305 OFFCURVE",
"274 300 OFFCURVE",
"274 291 CURVE SMOOTH",
"274 71 LINE SMOOTH",
"274 31 OFFCURVE",
"305 0 OFFCURVE",
"345 0 CURVE SMOOTH",
"731 0 LINE SMOOTH",
"771 0 OFFCURVE",
"802 31 OFFCURVE",
"802 71 CURVE SMOOTH",
"802 234 LINE SMOOTH",
"802 274 OFFCURVE",
"771 305 OFFCURVE",
"731 305 CURVE SMOOTH",
"330 305 LINE SMOOTH",
"322 305 OFFCURVE",
"316 311 OFFCURVE",
"316 319 CURVE SMOOTH",
"316 336 LINE SMOOTH",
"316 344 OFFCURVE",
"322 350 OFFCURVE",
"330 350 CURVE SMOOTH",
"687 350 LINE SMOOTH",
"753 350 OFFCURVE",
"802 399 OFFCURVE",
"802 465 CURVE SMOOTH",
"802 585 LINE SMOOTH",
"802 651 OFFCURVE",
"753 700 OFFCURVE",
"687 700 CURVE SMOOTH",
"121 700 LINE SMOOTH",
"81 700 OFFCURVE",
"50 669 OFFCURVE",
"50 629 CURVE SMOOTH"
);
},
{
closed = 1;
nodes = (
"232 420 LINE SMOOTH",
"232 429 OFFCURVE",
"238 434 OFFCURVE",
"246 434 CURVE SMOOTH",
"606 434 LINE SMOOTH",
"614 434 OFFCURVE",
"620 429 OFFCURVE",
"620 420 CURVE SMOOTH",
"620 406 LINE SMOOTH",
"620 398 OFFCURVE",
"614 392 OFFCURVE",
"606 392 CURVE SMOOTH",
"246 392 LINE SMOOTH",
"238 392 OFFCURVE",
"232 398 OFFCURVE",
"232 406 CURVE SMOOTH"
);
}
);
width = 852;
}
);
unicode = 0052;
},
{
glyphname = S;
lastChange = "2022-11-29 11:15:43 +0000";
layers = (
{
layerId = "A69B6916-D86B-4DB4-B111-C864CDAF75E2";
paths = (
{
closed = 1;
nodes = (
"50 339 LINE SMOOTH",
"50 273 OFFCURVE",
"50 251 OFFCURVE",
"50 230 CURVE",
"50 224 LINE SMOOTH",
"50 217 OFFCURVE",
"50 218 OFFCURVE",
"50 210 CURVE SMOOTH",
"50 196 LINE SMOOTH",
"50 188 OFFCURVE",
"50 189 OFFCURVE",
"50 182 CURVE SMOOTH",
"50 177 LINE",
"50 155 OFFCURVE",
"50 151 OFFCURVE",
"50 111 CURVE SMOOTH",
"50 71 LINE SMOOTH",
"50 31 OFFCURVE",
"81 0 OFFCURVE",
"121 0 CURVE SMOOTH",
"684 0 LINE SMOOTH",
"750 0 OFFCURVE",
"799 49 OFFCURVE",
"799 115 CURVE SMOOTH",
"799 361 LINE SMOOTH",
"799 427 OFFCURVE",
"799 421 OFFCURVE",
"799 466 CURVE",
"799 476 LINE SMOOTH",
"799 483 OFFCURVE",
"799 481 OFFCURVE",
"799 490 CURVE SMOOTH",
"799 504 LINE SMOOTH",
"799 512 OFFCURVE",
"799 510 OFFCURVE",
"799 518 CURVE SMOOTH",
"799 524 LINE",
"799 547 OFFCURVE",
"799 549 OFFCURVE",
"799 589 CURVE SMOOTH",
"799 628 LINE SMOOTH",
"799 669 OFFCURVE",
"768 700 OFFCURVE",
"727 700 CURVE SMOOTH",
"165 700 LINE SMOOTH",
"99 700 OFFCURVE",
"50 651 OFFCURVE",
"50 585 CURVE SMOOTH"
);
}
);
width = 849;
},
{
layerId = "D5846C3A-916F-42E8-8837-99B20A1F62F9";
paths = (
{
closed = 1;
nodes = (
"50 339 LINE SMOOTH",
"50 273 OFFCURVE",
"99 224 OFFCURVE",
"165 224 CURVE SMOOTH",
"173 224 LINE SMOOTH",
"181 224 OFFCURVE",
"187 218 OFFCURVE",
"187 210 CURVE SMOOTH",
"187 196 LINE SMOOTH",
"187 188 OFFCURVE",
"181 182 OFFCURVE",
"173 182 CURVE SMOOTH",
"121 182 LINE SMOOTH",
"81 182 OFFCURVE",
"50 151 OFFCURVE",
"50 111 CURVE SMOOTH",
"50 71 LINE SMOOTH",
"50 31 OFFCURVE",
"81 0 OFFCURVE",
"121 0 CURVE SMOOTH",
"684 0 LINE SMOOTH",
"750 0 OFFCURVE",
"799 49 OFFCURVE",
"799 115 CURVE SMOOTH",
"799 361 LINE SMOOTH",
"799 427 OFFCURVE",
"750 476 OFFCURVE",
"684 476 CURVE SMOOTH",
"676 476 LINE SMOOTH",
"668 476 OFFCURVE",
"662 481 OFFCURVE",
"662 490 CURVE SMOOTH",
"662 504 LINE SMOOTH",
"662 512 OFFCURVE",
"668 518 OFFCURVE",
"676 518 CURVE SMOOTH",
"727 518 LINE SMOOTH",
"768 518 OFFCURVE",
"799 549 OFFCURVE",
"799 589 CURVE SMOOTH",
"799 628 LINE SMOOTH",
"799 669 OFFCURVE",
"768 700 OFFCURVE",
"727 700 CURVE SMOOTH",
"165 700 LINE SMOOTH",
"99 700 OFFCURVE",
"50 651 OFFCURVE",
"50 585 CURVE SMOOTH"
);
}
);
width = 849;
},
{
layerId = "B57C1444-1622-4D1A-A412-9270A2806B96";
paths = (
{
closed = 1;
nodes = (
"50 339 LINE SMOOTH",
"50 273 OFFCURVE",
"99 224 OFFCURVE",
"165 224 CURVE SMOOTH",
"333 224 LINE SMOOTH",
"341 224 OFFCURVE",
"347 218 OFFCURVE",
"347 210 CURVE SMOOTH",
"347 196 LINE SMOOTH",
"347 188 OFFCURVE",
"341 182 OFFCURVE",
"333 182 CURVE SMOOTH",
"121 182 LINE SMOOTH",
"81 182 OFFCURVE",
"50 151 OFFCURVE",
"50 111 CURVE SMOOTH",
"50 71 LINE SMOOTH",
"50 31 OFFCURVE",
"81 0 OFFCURVE",
"121 0 CURVE SMOOTH",
"684 0 LINE SMOOTH",
"750 0 OFFCURVE",
"799 49 OFFCURVE",
"799 115 CURVE SMOOTH",
"799 361 LINE SMOOTH",
"799 427 OFFCURVE",
"750 476 OFFCURVE",
"684 476 CURVE SMOOTH",
"476 476 LINE SMOOTH",
"468 476 OFFCURVE",
"462 481 OFFCURVE",
"462 490 CURVE SMOOTH",
"462 504 LINE SMOOTH",
"462 512 OFFCURVE",
"468 518 OFFCURVE",
"476 518 CURVE SMOOTH",
"727 518 LINE SMOOTH",
"768 518 OFFCURVE",
"799 549 OFFCURVE",
"799 589 CURVE SMOOTH",
"799 628 LINE SMOOTH",
"799 669 OFFCURVE",
"768 700 OFFCURVE",
"727 700 CURVE SMOOTH",
"165 700 LINE SMOOTH",
"99 700 OFFCURVE",
"50 651 OFFCURVE",
"50 585 CURVE SMOOTH"
);
}
);
width = 849;
},
{
layerId = "106BB046-A4A4-4FD5-B9BF-C98528C7FAAB";
paths = (
{
closed = 1;
nodes = (
"50 339 LINE SMOOTH",
"50 273 OFFCURVE",
"99 224 OFFCURVE",
"165 224 CURVE SMOOTH",
"603 224 LINE SMOOTH",
"611 224 OFFCURVE",
"617 218 OFFCURVE",
"617 210 CURVE SMOOTH",
"617 196 LINE SMOOTH",
"617 188 OFFCURVE",
"611 182 OFFCURVE",
"603 182 CURVE SMOOTH",
"121 182 LINE SMOOTH",
"81 182 OFFCURVE",
"50 151 OFFCURVE",
"50 111 CURVE SMOOTH",
"50 71 LINE SMOOTH",
"50 31 OFFCURVE",
"81 0 OFFCURVE",
"121 0 CURVE SMOOTH",
"684 0 LINE SMOOTH",
"750 0 OFFCURVE",
"799 49 OFFCURVE",
"799 115 CURVE SMOOTH",
"799 361 LINE SMOOTH",
"799 427 OFFCURVE",
"750 476 OFFCURVE",
"684 476 CURVE SMOOTH",
"246 476 LINE SMOOTH",
"238 476 OFFCURVE",
"232 481 OFFCURVE",
"232 490 CURVE SMOOTH",
"232 504 LINE SMOOTH",
"232 512 OFFCURVE",
"238 518 OFFCURVE",
"246 518 CURVE SMOOTH",
"727 518 LINE SMOOTH",
"768 518 OFFCURVE",
"799 549 OFFCURVE",
"799 589 CURVE SMOOTH",
"799 628 LINE SMOOTH",
"799 669 OFFCURVE",
"768 700 OFFCURVE",
"727 700 CURVE SMOOTH",
"165 700 LINE SMOOTH",
"99 700 OFFCURVE",
"50 651 OFFCURVE",
"50 585 CURVE SMOOTH"
);
}
);
width = 849;
}
);
unicode = 0053;
},
{
glyphname = T;
lastChange = "2022-11-29 11:20:32 +0000";
layers = (
{
layerId = "A69B6916-D86B-4DB4-B111-C864CDAF75E2";
paths = (
{
closed = 1;
nodes = (
"161 0 LINE SMOOTH",
"201 0 OFFCURVE",
"206 0 OFFCURVE",
"222 0 CURVE",
"232 0 LINE SMOOTH",
"241 0 OFFCURVE",
"238 0 OFFCURVE",
"246 0 CURVE SMOOTH",
"260 0 LINE SMOOTH",
"268 0 OFFCURVE",
"265 0 OFFCURVE",
"274 0 CURVE SMOOTH",
"284 0 LINE",
"296 0 OFFCURVE",
"305 0 OFFCURVE",
"345 0 CURVE SMOOTH",
"506 0 LINE SMOOTH",
"547 0 OFFCURVE",
"549 0 OFFCURVE",
"568 0 CURVE",
"578 0 LINE SMOOTH",
"587 0 OFFCURVE",
"583 0 OFFCURVE",
"592 0 CURVE SMOOTH",
"606 0 LINE SMOOTH",
"614 0 OFFCURVE",
"611 0 OFFCURVE",
"620 0 CURVE SMOOTH",
"630 0 LINE",
"639 0 OFFCURVE",
"651 0 OFFCURVE",
"691 0 CURVE SMOOTH",
"731 0 LINE SMOOTH",
"771 0 OFFCURVE",
"802 31 OFFCURVE",
"802 71 CURVE SMOOTH",
"802 629 LINE SMOOTH",
"802 669 OFFCURVE",
"771 700 OFFCURVE",
"731 700 CURVE SMOOTH",
"121 700 LINE SMOOTH",
"81 700 OFFCURVE",
"50 669 OFFCURVE",
"50 629 CURVE SMOOTH",
"50 71 LINE SMOOTH",
"50 31 OFFCURVE",
"81 0 OFFCURVE",
"121 0 CURVE SMOOTH"
);
}
);
width = 852;
},
{
layerId = "D5846C3A-916F-42E8-8837-99B20A1F62F9";
paths = (
{
closed = 1;
nodes = (
"161 0 LINE SMOOTH",
"201 0 OFFCURVE",
"232 31 OFFCURVE",
"232 71 CURVE SMOOTH",
"232 218 LINE SMOOTH",
"232 227 OFFCURVE",
"238 232 OFFCURVE",
"246 232 CURVE SMOOTH",
"260 232 LINE SMOOTH",
"268 232 OFFCURVE",
"274 227 OFFCURVE",
"274 218 CURVE SMOOTH",
"274 71 LINE SMOOTH",
"274 31 OFFCURVE",
"305 0 OFFCURVE",
"345 0 CURVE SMOOTH",
"506 0 LINE SMOOTH",
"547 0 OFFCURVE",
"578 31 OFFCURVE",
"578 71 CURVE SMOOTH",
"578 218 LINE SMOOTH",
"578 227 OFFCURVE",
"583 232 OFFCURVE",
"592 232 CURVE SMOOTH",
"606 232 LINE SMOOTH",
"614 232 OFFCURVE",
"620 227 OFFCURVE",
"620 218 CURVE SMOOTH",
"620 71 LINE SMOOTH",
"620 31 OFFCURVE",
"651 0 OFFCURVE",
"691 0 CURVE SMOOTH",
"731 0 LINE SMOOTH",
"771 0 OFFCURVE",
"802 31 OFFCURVE",
"802 71 CURVE SMOOTH",
"802 629 LINE SMOOTH",
"802 669 OFFCURVE",
"771 700 OFFCURVE",
"731 700 CURVE SMOOTH",
"121 700 LINE SMOOTH",
"81 700 OFFCURVE",
"50 669 OFFCURVE",
"50 629 CURVE SMOOTH",
"50 71 LINE SMOOTH",
"50 31 OFFCURVE",
"81 0 OFFCURVE",
"121 0 CURVE SMOOTH"
);
}
);
width = 852;
},
{
layerId = "B57C1444-1622-4D1A-A412-9270A2806B96";
paths = (
{
closed = 1;
nodes = (
"161 55 LINE SMOOTH",
"201 55 OFFCURVE",
"232 86 OFFCURVE",
"232 126 CURVE SMOOTH",
"232 268 LINE SMOOTH",
"232 277 OFFCURVE",
"238 282 OFFCURVE",
"246 282 CURVE SMOOTH",
"260 282 LINE SMOOTH",
"268 282 OFFCURVE",
"274 277 OFFCURVE",
"274 268 CURVE SMOOTH",
"274 71 LINE SMOOTH",
"274 31 OFFCURVE",
"305 0 OFFCURVE",
"345 0 CURVE SMOOTH",
"506 0 LINE SMOOTH",
"547 0 OFFCURVE",
"578 31 OFFCURVE",
"578 71 CURVE SMOOTH",
"578 268 LINE SMOOTH",
"578 277 OFFCURVE",
"583 282 OFFCURVE",
"592 282 CURVE SMOOTH",
"606 282 LINE SMOOTH",
"614 282 OFFCURVE",
"620 277 OFFCURVE",
"620 268 CURVE SMOOTH",
"620 126 LINE SMOOTH",
"620 86 OFFCURVE",
"651 55 OFFCURVE",
"691 55 CURVE SMOOTH",
"731 55 LINE SMOOTH",
"771 55 OFFCURVE",
"802 86 OFFCURVE",
"802 126 CURVE SMOOTH",
"802 629 LINE SMOOTH",
"802 669 OFFCURVE",
"771 700 OFFCURVE",
"731 700 CURVE SMOOTH",
"121 700 LINE SMOOTH",
"81 700 OFFCURVE",
"50 669 OFFCURVE",
"50 629 CURVE SMOOTH",
"50 126 LINE SMOOTH",
"50 86 OFFCURVE",
"81 55 OFFCURVE",
"121 55 CURVE SMOOTH"
);
}
);
width = 852;
},
{
layerId = "106BB046-A4A4-4FD5-B9BF-C98528C7FAAB";
paths = (
{
closed = 1;
nodes = (
"161 98 LINE SMOOTH",
"201 98 OFFCURVE",
"232 129 OFFCURVE",
"232 169 CURVE SMOOTH",
"232 438 LINE SMOOTH",
"232 447 OFFCURVE",
"238 452 OFFCURVE",
"246 452 CURVE SMOOTH",
"260 452 LINE SMOOTH",
"268 452 OFFCURVE",
"274 447 OFFCURVE",
"274 438 CURVE SMOOTH",
"274 71 LINE SMOOTH",
"274 31 OFFCURVE",
"305 0 OFFCURVE",
"345 0 CURVE SMOOTH",
"506 0 LINE SMOOTH",
"547 0 OFFCURVE",
"578 31 OFFCURVE",
"578 71 CURVE SMOOTH",
"578 438 LINE SMOOTH",
"578 447 OFFCURVE",
"583 452 OFFCURVE",
"592 452 CURVE SMOOTH",
"606 452 LINE SMOOTH",
"614 452 OFFCURVE",
"620 447 OFFCURVE",
"620 438 CURVE SMOOTH",
"620 169 LINE SMOOTH",
"620 129 OFFCURVE",
"651 98 OFFCURVE",
"691 98 CURVE SMOOTH",
"731 98 LINE SMOOTH",
"771 98 OFFCURVE",
"802 129 OFFCURVE",
"802 169 CURVE SMOOTH",
"802 629 LINE SMOOTH",
"802 669 OFFCURVE",
"771 700 OFFCURVE",
"731 700 CURVE SMOOTH",
"121 700 LINE SMOOTH",
"81 700 OFFCURVE",
"50 669 OFFCURVE",
"50 629 CURVE SMOOTH",
"50 169 LINE SMOOTH",
"50 129 OFFCURVE",
"81 98 OFFCURVE",
"121 98 CURVE SMOOTH"
);
}
);
width = 852;
}
);
unicode = 0054;
},
{
glyphname = U;
lastChange = "2022-11-29 11:40:08 +0000";
layers = (
{
layerId = "A69B6916-D86B-4DB4-B111-C864CDAF75E2";
paths = (
{
closed = 1;
nodes = (
"50 115 LINE SMOOTH",
"50 49 OFFCURVE",
"99 0 OFFCURVE",
"165 0 CURVE SMOOTH",
"689 0 LINE SMOOTH",
"754 0 OFFCURVE",
"803 49 OFFCURVE",
"803 115 CURVE SMOOTH",
"803 629 LINE SMOOTH",
"803 669 OFFCURVE",
"773 700 OFFCURVE",
"732 700 CURVE SMOOTH",
"529 700 LINE SMOOTH",
"489 700 OFFCURVE",
"483 700 OFFCURVE",
"458 700 CURVE",
"448 700 LINE SMOOTH",
"439 700 OFFCURVE",
"442 700 OFFCURVE",
"434 700 CURVE SMOOTH",
"420 700 LINE SMOOTH",
"411 700 OFFCURVE",
"415 700 OFFCURVE",
"406 700 CURVE SMOOTH",
"396 700 LINE",
"381 700 OFFCURVE",
"375 700 OFFCURVE",
"334 700 CURVE SMOOTH",
"121 700 LINE SMOOTH",
"81 700 OFFCURVE",
"50 669 OFFCURVE",
"50 629 CURVE SMOOTH"
);
}
);
width = 853;
},
{
layerId = "D5846C3A-916F-42E8-8837-99B20A1F62F9";
paths = (
{
closed = 1;
nodes = (
"50 115 LINE SMOOTH",
"50 49 OFFCURVE",
"99 0 OFFCURVE",
"165 0 CURVE SMOOTH",
"689 0 LINE SMOOTH",
"754 0 OFFCURVE",
"803 49 OFFCURVE",
"803 115 CURVE SMOOTH",
"803 629 LINE SMOOTH",
"803 669 OFFCURVE",
"773 700 OFFCURVE",
"732 700 CURVE SMOOTH",
"519 700 LINE SMOOTH",
"479 700 OFFCURVE",
"448 669 OFFCURVE",
"448 629 CURVE SMOOTH",
"448 616 LINE SMOOTH",
"448 607 OFFCURVE",
"442 602 OFFCURVE",
"434 602 CURVE SMOOTH",
"420 602 LINE SMOOTH",
"411 602 OFFCURVE",
"406 607 OFFCURVE",
"406 616 CURVE SMOOTH",
"406 629 LINE SMOOTH",
"406 669 OFFCURVE",
"375 700 OFFCURVE",
"334 700 CURVE SMOOTH",
"121 700 LINE SMOOTH",
"81 700 OFFCURVE",
"50 669 OFFCURVE",
"50 629 CURVE SMOOTH"
);
}
);
width = 853;
},
{
layerId = "B57C1444-1622-4D1A-A412-9270A2806B96";
paths = (
{
closed = 1;
nodes = (
"50 115 LINE SMOOTH",
"50 49 OFFCURVE",
"99 0 OFFCURVE",
"165 0 CURVE SMOOTH",
"689 0 LINE SMOOTH",
"754 0 OFFCURVE",
"803 49 OFFCURVE",
"803 115 CURVE SMOOTH",
"803 629 LINE SMOOTH",
"803 669 OFFCURVE",
"773 700 OFFCURVE",
"732 700 CURVE SMOOTH",
"519 700 LINE SMOOTH",
"479 700 OFFCURVE",
"448 669 OFFCURVE",
"448 629 CURVE SMOOTH",
"448 406 LINE SMOOTH",
"448 397 OFFCURVE",
"442 392 OFFCURVE",
"434 392 CURVE SMOOTH",
"420 392 LINE SMOOTH",
"411 392 OFFCURVE",
"406 397 OFFCURVE",
"406 406 CURVE SMOOTH",
"406 629 LINE SMOOTH",
"406 669 OFFCURVE",
"375 700 OFFCURVE",
"334 700 CURVE SMOOTH",
"121 700 LINE SMOOTH",
"81 700 OFFCURVE",
"50 669 OFFCURVE",
"50 629 CURVE SMOOTH"
);
}
);
width = 853;
},
{
layerId = "106BB046-A4A4-4FD5-B9BF-C98528C7FAAB";
paths = (
{
closed = 1;
nodes = (
"50 115 LINE SMOOTH",
"50 49 OFFCURVE",
"99 0 OFFCURVE",
"165 0 CURVE SMOOTH",
"689 0 LINE SMOOTH",
"754 0 OFFCURVE",
"803 49 OFFCURVE",
"803 115 CURVE SMOOTH",
"803 629 LINE SMOOTH",
"803 669 OFFCURVE",
"773 700 OFFCURVE",
"732 700 CURVE SMOOTH",
"519 700 LINE SMOOTH",
"479 700 OFFCURVE",
"448 669 OFFCURVE",
"448 629 CURVE SMOOTH",
"448 216 LINE SMOOTH",
"448 207 OFFCURVE",
"442 202 OFFCURVE",
"434 202 CURVE SMOOTH",
"420 202 LINE SMOOTH",
"411 202 OFFCURVE",
"406 207 OFFCURVE",
"406 216 CURVE SMOOTH",
"406 629 LINE SMOOTH",
"406 669 OFFCURVE",
"375 700 OFFCURVE",
"334 700 CURVE SMOOTH",
"121 700 LINE SMOOTH",
"81 700 OFFCURVE",
"50 669 OFFCURVE",
"50 629 CURVE SMOOTH"
);
}
);
width = 853;
}
);
unicode = 0055;
},
{
glyphname = V;
lastChange = "2022-11-29 11:45:21 +0000";
layers = (
{
layerId = "A69B6916-D86B-4DB4-B111-C864CDAF75E2";
paths = (
{
closed = 1;
nodes = (
"50 71 LINE SMOOTH",
"50 31 OFFCURVE",
"81 0 OFFCURVE",
"121 0 CURVE SMOOTH",
"217 0 LINE SMOOTH",
"225 0 OFFCURVE",
"222 0 OFFCURVE",
"231 0 CURVE SMOOTH",
"235 0 LINE",
"245 0 OFFCURVE",
"265 0 OFFCURVE",
"306 0 CURVE SMOOTH",
"549 0 LINE SMOOTH",
"590 0 OFFCURVE",
"603 0 OFFCURVE",
"621 0 CURVE",
"631 0 LINE SMOOTH",
"641 0 OFFCURVE",
"636 0 OFFCURVE",
"645 0 CURVE SMOOTH",
"730 0 LINE SMOOTH",
"771 0 OFFCURVE",
"801 31 OFFCURVE",
"801 71 CURVE SMOOTH",
"801 628 LINE SMOOTH",
"801 669 OFFCURVE",
"771 700 OFFCURVE",
"730 700 CURVE SMOOTH",
"517 700 LINE SMOOTH",
"477 700 OFFCURVE",
"469 700 OFFCURVE",
"456 700 CURVE",
"446 700 LINE SMOOTH",
"437 700 OFFCURVE",
"440 700 OFFCURVE",
"432 700 CURVE SMOOTH",
"418 700 LINE SMOOTH",
"410 700 OFFCURVE",
"413 700 OFFCURVE",
"404 700 CURVE SMOOTH",
"394 700 LINE",
"379 700 OFFCURVE",
"373 700 OFFCURVE",
"333 700 CURVE SMOOTH",
"121 700 LINE SMOOTH",
"81 700 OFFCURVE",
"50 669 OFFCURVE",
"50 628 CURVE SMOOTH"
);
}
);
width = 851;
},
{
layerId = "D5846C3A-916F-42E8-8837-99B20A1F62F9";
paths = (
{
closed = 1;
nodes = (
"50 108 LINE SMOOTH",
"50 68 OFFCURVE",
"81 37 OFFCURVE",
"121 37 CURVE SMOOTH",
"221 37 LINE SMOOTH",
"229 37 OFFCURVE",
"235 31 OFFCURVE",
"235 23 CURVE SMOOTH",
"235 21 LINE SMOOTH",
"235 -3 OFFCURVE",
"265 0 OFFCURVE",
"306 0 CURVE SMOOTH",
"549 0 LINE SMOOTH",
"590 0 OFFCURVE",
"621 -3 OFFCURVE",
"621 21 CURVE SMOOTH",
"621 23 LINE SMOOTH",
"621 31 OFFCURVE",
"626 37 OFFCURVE",
"635 37 CURVE SMOOTH",
"730 37 LINE SMOOTH",
"771 37 OFFCURVE",
"801 68 OFFCURVE",
"801 108 CURVE SMOOTH",
"801 628 LINE SMOOTH",
"801 669 OFFCURVE",
"771 700 OFFCURVE",
"730 700 CURVE SMOOTH",
"517 700 LINE SMOOTH",
"477 700 OFFCURVE",
"446 669 OFFCURVE",
"446 628 CURVE SMOOTH",
"446 619 LINE SMOOTH",
"446 611 OFFCURVE",
"440 605 OFFCURVE",
"432 605 CURVE SMOOTH",
"418 605 LINE SMOOTH",
"410 605 OFFCURVE",
"404 611 OFFCURVE",
"404 619 CURVE SMOOTH",
"404 628 LINE SMOOTH",
"404 669 OFFCURVE",
"373 700 OFFCURVE",
"333 700 CURVE SMOOTH",
"121 700 LINE SMOOTH",
"81 700 OFFCURVE",
"50 669 OFFCURVE",
"50 628 CURVE SMOOTH"
);
}
);
width = 851;
},
{
layerId = "B57C1444-1622-4D1A-A412-9270A2806B96";
paths = (
{
closed = 1;
nodes = (
"50 128 LINE SMOOTH",
"50 88 OFFCURVE",
"81 57 OFFCURVE",
"121 57 CURVE SMOOTH",
"221 57 LINE SMOOTH",
"229 57 OFFCURVE",
"235 51 OFFCURVE",
"235 43 CURVE SMOOTH",
"235 41 LINE SMOOTH",
"235 1 OFFCURVE",
"265 0 OFFCURVE",
"306 0 CURVE SMOOTH",
"549 0 LINE SMOOTH",
"590 0 OFFCURVE",
"621 1 OFFCURVE",
"621 41 CURVE SMOOTH",
"621 43 LINE SMOOTH",
"621 51 OFFCURVE",
"626 57 OFFCURVE",
"635 57 CURVE SMOOTH",
"730 57 LINE SMOOTH",
"771 57 OFFCURVE",
"801 88 OFFCURVE",
"801 128 CURVE SMOOTH",
"801 628 LINE SMOOTH",
"801 669 OFFCURVE",
"771 700 OFFCURVE",
"730 700 CURVE SMOOTH",
"517 700 LINE SMOOTH",
"477 700 OFFCURVE",
"446 669 OFFCURVE",
"446 628 CURVE SMOOTH",
"446 405 LINE SMOOTH",
"446 397 OFFCURVE",
"440 391 OFFCURVE",
"432 391 CURVE SMOOTH",
"418 391 LINE SMOOTH",
"410 391 OFFCURVE",
"404 397 OFFCURVE",
"404 405 CURVE SMOOTH",
"404 628 LINE SMOOTH",
"404 669 OFFCURVE",
"373 700 OFFCURVE",
"333 700 CURVE SMOOTH",
"121 700 LINE SMOOTH",
"81 700 OFFCURVE",
"50 669 OFFCURVE",
"50 628 CURVE SMOOTH"
);
}
);
width = 851;
},
{
layerId = "106BB046-A4A4-4FD5-B9BF-C98528C7FAAB";
paths = (
{
closed = 1;
nodes = (
"50 158 LINE SMOOTH",
"50 118 OFFCURVE",
"81 87 OFFCURVE",
"121 87 CURVE SMOOTH",
"221 87 LINE SMOOTH",
"229 87 OFFCURVE",
"235 81 OFFCURVE",
"235 73 CURVE SMOOTH",
"235 71 LINE SMOOTH",
"235 31 OFFCURVE",
"265 0 OFFCURVE",
"306 0 CURVE SMOOTH",
"549 0 LINE SMOOTH",
"590 0 OFFCURVE",
"621 31 OFFCURVE",
"621 71 CURVE SMOOTH",
"621 73 LINE SMOOTH",
"621 81 OFFCURVE",
"626 87 OFFCURVE",
"635 87 CURVE SMOOTH",
"730 87 LINE SMOOTH",
"771 87 OFFCURVE",
"801 118 OFFCURVE",
"801 158 CURVE SMOOTH",
"801 628 LINE SMOOTH",
"801 669 OFFCURVE",
"771 700 OFFCURVE",
"730 700 CURVE SMOOTH",
"517 700 LINE SMOOTH",
"477 700 OFFCURVE",
"446 669 OFFCURVE",
"446 628 CURVE SMOOTH",
"446 215 LINE SMOOTH",
"446 207 OFFCURVE",
"440 201 OFFCURVE",
"432 201 CURVE SMOOTH",
"418 201 LINE SMOOTH",
"410 201 OFFCURVE",
"404 207 OFFCURVE",
"404 215 CURVE SMOOTH",
"404 628 LINE SMOOTH",
"404 669 OFFCURVE",
"373 700 OFFCURVE",
"333 700 CURVE SMOOTH",
"121 700 LINE SMOOTH",
"81 700 OFFCURVE",
"50 669 OFFCURVE",
"50 628 CURVE SMOOTH"
);
}
);
width = 851;
}
);
unicode = 0056;
},
{
glyphname = W;
lastChange = "2022-11-29 11:49:17 +0000";
layers = (
{
layerId = "A69B6916-D86B-4DB4-B111-C864CDAF75E2";
paths = (
{
closed = 1;
nodes = (
"50 71 LINE SMOOTH",
"50 31 OFFCURVE",
"81 0 OFFCURVE",
"121 0 CURVE SMOOTH",
"329 0 LINE SMOOTH",
"369 0 OFFCURVE",
"379 0 OFFCURVE",
"390 0 CURVE",
"400 0 LINE SMOOTH",
"407 0 OFFCURVE",
"406 0 OFFCURVE",
"414 0 CURVE SMOOTH",
"428 0 LINE SMOOTH",
"436 0 OFFCURVE",
"435 0 OFFCURVE",
"442 0 CURVE SMOOTH",
"452 0 LINE",
"463 0 OFFCURVE",
"473 0 OFFCURVE",
"513 0 CURVE SMOOTH",
"730 0 LINE SMOOTH",
"771 0 OFFCURVE",
"802 31 OFFCURVE",
"802 71 CURVE SMOOTH",
"802 629 LINE SMOOTH",
"802 669 OFFCURVE",
"771 700 OFFCURVE",
"730 700 CURVE SMOOTH",
"691 700 LINE SMOOTH",
"651 700 OFFCURVE",
"643 700 OFFCURVE",
"630 700 CURVE",
"620 700 LINE SMOOTH",
"612 700 OFFCURVE",
"614 700 OFFCURVE",
"606 700 CURVE SMOOTH",
"592 700 LINE SMOOTH",
"583 700 OFFCURVE",
"586 700 OFFCURVE",
"578 700 CURVE SMOOTH",
"568 700 LINE",
"556 700 OFFCURVE",
"547 700 OFFCURVE",
"506 700 CURVE SMOOTH",
"345 700 LINE SMOOTH",
"305 700 OFFCURVE",
"293 700 OFFCURVE",
"284 700 CURVE",
"274 700 LINE SMOOTH",
"266 700 OFFCURVE",
"268 700 OFFCURVE",
"260 700 CURVE SMOOTH",
"246 700 LINE SMOOTH",
"238 700 OFFCURVE",
"240 700 OFFCURVE",
"232 700 CURVE SMOOTH",
"222 700 LINE",
"213 700 OFFCURVE",
"201 700 OFFCURVE",
"161 700 CURVE SMOOTH",
"121 700 LINE SMOOTH",
"81 700 OFFCURVE",
"50 669 OFFCURVE",
"50 629 CURVE SMOOTH"
);
}
);
width = 852;
},
{
layerId = "D5846C3A-916F-42E8-8837-99B20A1F62F9";
paths = (
{
closed = 1;
nodes = (
"50 71 LINE SMOOTH",
"50 31 OFFCURVE",
"81 0 OFFCURVE",
"121 0 CURVE SMOOTH",
"329 0 LINE SMOOTH",
"369 0 OFFCURVE",
"400 31 OFFCURVE",
"400 71 CURVE SMOOTH",
"400 86 LINE SMOOTH",
"400 94 OFFCURVE",
"406 100 OFFCURVE",
"414 100 CURVE SMOOTH",
"428 100 LINE SMOOTH",
"436 100 OFFCURVE",
"442 94 OFFCURVE",
"442 86 CURVE SMOOTH",
"442 71 LINE SMOOTH",
"442 31 OFFCURVE",
"473 0 OFFCURVE",
"513 0 CURVE SMOOTH",
"730 0 LINE SMOOTH",
"771 0 OFFCURVE",
"802 31 OFFCURVE",
"802 71 CURVE SMOOTH",
"802 629 LINE SMOOTH",
"802 669 OFFCURVE",
"771 700 OFFCURVE",
"730 700 CURVE SMOOTH",
"691 700 LINE SMOOTH",
"651 700 OFFCURVE",
"620 669 OFFCURVE",
"620 629 CURVE SMOOTH",
"620 618 LINE SMOOTH",
"620 610 OFFCURVE",
"614 604 OFFCURVE",
"606 604 CURVE SMOOTH",
"592 604 LINE SMOOTH",
"583 604 OFFCURVE",
"578 610 OFFCURVE",
"578 618 CURVE SMOOTH",
"578 629 LINE SMOOTH",
"578 669 OFFCURVE",
"547 700 OFFCURVE",
"506 700 CURVE SMOOTH",
"345 700 LINE SMOOTH",
"305 700 OFFCURVE",
"274 669 OFFCURVE",
"274 629 CURVE SMOOTH",
"274 618 LINE SMOOTH",
"274 610 OFFCURVE",
"268 604 OFFCURVE",
"260 604 CURVE SMOOTH",
"246 604 LINE SMOOTH",
"238 604 OFFCURVE",
"232 610 OFFCURVE",
"232 618 CURVE SMOOTH",
"232 629 LINE SMOOTH",
"232 669 OFFCURVE",
"201 700 OFFCURVE",
"161 700 CURVE SMOOTH",
"121 700 LINE SMOOTH",
"81 700 OFFCURVE",
"50 669 OFFCURVE",
"50 629 CURVE SMOOTH"
);
}
);
width = 852;
},
{
layerId = "B57C1444-1622-4D1A-A412-9270A2806B96";
paths = (
{
closed = 1;
nodes = (
"50 71 LINE SMOOTH",
"50 31 OFFCURVE",
"81 0 OFFCURVE",
"121 0 CURVE SMOOTH",
"329 0 LINE SMOOTH",
"369 0 OFFCURVE",
"400 31 OFFCURVE",
"400 71 CURVE SMOOTH",
"400 226 LINE SMOOTH",
"400 234 OFFCURVE",
"406 240 OFFCURVE",
"414 240 CURVE SMOOTH",
"428 240 LINE SMOOTH",
"436 240 OFFCURVE",
"442 234 OFFCURVE",
"442 226 CURVE SMOOTH",
"442 71 LINE SMOOTH",
"442 31 OFFCURVE",
"473 0 OFFCURVE",
"513 0 CURVE SMOOTH",
"730 0 LINE SMOOTH",
"771 0 OFFCURVE",
"802 31 OFFCURVE",
"802 71 CURVE SMOOTH",
"802 629 LINE SMOOTH",
"802 669 OFFCURVE",
"771 700 OFFCURVE",
"730 700 CURVE SMOOTH",
"691 700 LINE SMOOTH",
"651 700 OFFCURVE",
"620 669 OFFCURVE",
"620 629 CURVE SMOOTH",
"620 498 LINE SMOOTH",
"620 490 OFFCURVE",
"614 484 OFFCURVE",
"606 484 CURVE SMOOTH",
"592 484 LINE SMOOTH",
"583 484 OFFCURVE",
"578 490 OFFCURVE",
"578 498 CURVE SMOOTH",
"578 629 LINE SMOOTH",
"578 669 OFFCURVE",
"547 700 OFFCURVE",
"506 700 CURVE SMOOTH",
"345 700 LINE SMOOTH",
"305 700 OFFCURVE",
"274 669 OFFCURVE",
"274 629 CURVE SMOOTH",
"274 498 LINE SMOOTH",
"274 490 OFFCURVE",
"268 484 OFFCURVE",
"260 484 CURVE SMOOTH",
"246 484 LINE SMOOTH",
"238 484 OFFCURVE",
"232 490 OFFCURVE",
"232 498 CURVE SMOOTH",
"232 629 LINE SMOOTH",
"232 669 OFFCURVE",
"201 700 OFFCURVE",
"161 700 CURVE SMOOTH",
"121 700 LINE SMOOTH",
"81 700 OFFCURVE",
"50 669 OFFCURVE",
"50 629 CURVE SMOOTH"
);
}
);
width = 852;
},
{
layerId = "106BB046-A4A4-4FD5-B9BF-C98528C7FAAB";
paths = (
{
closed = 1;
nodes = (
"50 71 LINE SMOOTH",
"50 31 OFFCURVE",
"81 0 OFFCURVE",
"121 0 CURVE SMOOTH",
"329 0 LINE SMOOTH",
"369 0 OFFCURVE",
"400 31 OFFCURVE",
"400 71 CURVE SMOOTH",
"400 336 LINE SMOOTH",
"400 344 OFFCURVE",
"406 350 OFFCURVE",
"414 350 CURVE SMOOTH",
"428 350 LINE SMOOTH",
"436 350 OFFCURVE",
"442 344 OFFCURVE",
"442 336 CURVE SMOOTH",
"442 71 LINE SMOOTH",
"442 31 OFFCURVE",
"473 0 OFFCURVE",
"513 0 CURVE SMOOTH",
"730 0 LINE SMOOTH",
"771 0 OFFCURVE",
"802 31 OFFCURVE",
"802 71 CURVE SMOOTH",
"802 629 LINE SMOOTH",
"802 669 OFFCURVE",
"771 700 OFFCURVE",
"730 700 CURVE SMOOTH",
"691 700 LINE SMOOTH",
"651 700 OFFCURVE",
"620 669 OFFCURVE",
"620 629 CURVE SMOOTH",
"620 378 LINE SMOOTH",
"620 370 OFFCURVE",
"614 364 OFFCURVE",
"606 364 CURVE SMOOTH",
"592 364 LINE SMOOTH",
"583 364 OFFCURVE",
"578 370 OFFCURVE",
"578 378 CURVE SMOOTH",
"578 629 LINE SMOOTH",
"578 669 OFFCURVE",
"547 700 OFFCURVE",
"506 700 CURVE SMOOTH",
"345 700 LINE SMOOTH",
"305 700 OFFCURVE",
"274 669 OFFCURVE",
"274 629 CURVE SMOOTH",
"274 378 LINE SMOOTH",
"274 370 OFFCURVE",
"268 364 OFFCURVE",
"260 364 CURVE SMOOTH",
"246 364 LINE SMOOTH",
"238 364 OFFCURVE",
"232 370 OFFCURVE",
"232 378 CURVE SMOOTH",
"232 629 LINE SMOOTH",
"232 669 OFFCURVE",
"201 700 OFFCURVE",
"161 700 CURVE SMOOTH",
"121 700 LINE SMOOTH",
"81 700 OFFCURVE",
"50 669 OFFCURVE",
"50 629 CURVE SMOOTH"
);
}
);
width = 852;
}
);
unicode = 0057;
},
{
glyphname = X;
lastChange = "2022-11-29 11:54:10 +0000";
layers = (
{
layerId = "A69B6916-D86B-4DB4-B111-C864CDAF75E2";
paths = (
{
closed = 1;
nodes = (
"50 442 LINE SMOOTH",
"50 402 OFFCURVE",
"50 394 OFFCURVE",
"50 381 CURVE",
"50 371 LINE SMOOTH",
"50 364 OFFCURVE",
"50 365 OFFCURVE",
"50 357 CURVE SMOOTH",
"50 343 LINE SMOOTH",
"50 335 OFFCURVE",
"50 336 OFFCURVE",
"50 329 CURVE SMOOTH",
"50 319 LINE",
"50 309 OFFCURVE",
"50 298 OFFCURVE",
"50 258 CURVE SMOOTH",
"50 71 LINE SMOOTH",
"50 31 OFFCURVE",
"81 0 OFFCURVE",
"121 0 CURVE SMOOTH",
"333 0 LINE SMOOTH",
"373 0 OFFCURVE",
"383 0 OFFCURVE",
"394 0 CURVE",
"404 0 LINE SMOOTH",
"413 0 OFFCURVE",
"410 0 OFFCURVE",
"418 0 CURVE SMOOTH",
"432 0 LINE SMOOTH",
"441 0 OFFCURVE",
"437 0 OFFCURVE",
"446 0 CURVE SMOOTH",
"456 0 LINE",
"467 0 OFFCURVE",
"477 0 OFFCURVE",
"518 0 CURVE SMOOTH",
"730 0 LINE SMOOTH",
"771 0 OFFCURVE",
"802 31 OFFCURVE",
"802 71 CURVE SMOOTH",
"802 258 LINE SMOOTH",
"802 298 OFFCURVE",
"802 303 OFFCURVE",
"802 319 CURVE",
"802 329 LINE SMOOTH",
"802 337 OFFCURVE",
"802 335 OFFCURVE",
"802 343 CURVE SMOOTH",
"802 357 LINE SMOOTH",
"802 365 OFFCURVE",
"802 363 OFFCURVE",
"802 371 CURVE SMOOTH",
"802 381 LINE",
"802 397 OFFCURVE",
"802 402 OFFCURVE",
"802 442 CURVE SMOOTH",
"802 629 LINE SMOOTH",
"802 669 OFFCURVE",
"771 700 OFFCURVE",
"730 700 CURVE SMOOTH",
"518 700 LINE SMOOTH",
"477 700 OFFCURVE",
"472 700 OFFCURVE",
"456 700 CURVE",
"446 700 LINE SMOOTH",
"437 700 OFFCURVE",
"441 700 OFFCURVE",
"432 700 CURVE SMOOTH",
"418 700 LINE SMOOTH",
"410 700 OFFCURVE",
"413 700 OFFCURVE",
"404 700 CURVE SMOOTH",
"394 700 LINE",
"380 700 OFFCURVE",
"373 700 OFFCURVE",
"333 700 CURVE SMOOTH",
"121 700 LINE SMOOTH",
"81 700 OFFCURVE",
"50 669 OFFCURVE",
"50 629 CURVE SMOOTH"
);
}
);
width = 852;
},
{
layerId = "D5846C3A-916F-42E8-8837-99B20A1F62F9";
paths = (
{
closed = 1;
nodes = (
"50 442 LINE SMOOTH",
"50 402 OFFCURVE",
"81 371 OFFCURVE",
"121 371 CURVE SMOOTH",
"126 371 LINE SMOOTH",
"134 371 OFFCURVE",
"140 365 OFFCURVE",
"140 357 CURVE SMOOTH",
"140 343 LINE SMOOTH",
"140 335 OFFCURVE",
"134 329 OFFCURVE",
"126 329 CURVE SMOOTH",
"121 329 LINE SMOOTH",
"81 329 OFFCURVE",
"50 298 OFFCURVE",
"50 258 CURVE SMOOTH",
"50 71 LINE SMOOTH",
"50 31 OFFCURVE",
"81 0 OFFCURVE",
"121 0 CURVE SMOOTH",
"333 0 LINE SMOOTH",
"373 0 OFFCURVE",
"404 31 OFFCURVE",
"404 71 CURVE SMOOTH",
"404 81 LINE SMOOTH",
"404 89 OFFCURVE",
"410 95 OFFCURVE",
"418 95 CURVE SMOOTH",
"432 95 LINE SMOOTH",
"441 95 OFFCURVE",
"446 89 OFFCURVE",
"446 81 CURVE SMOOTH",
"446 71 LINE SMOOTH",
"446 31 OFFCURVE",
"477 0 OFFCURVE",
"518 0 CURVE SMOOTH",
"730 0 LINE SMOOTH",
"771 0 OFFCURVE",
"802 31 OFFCURVE",
"802 71 CURVE SMOOTH",
"802 258 LINE SMOOTH",
"802 298 OFFCURVE",
"771 329 OFFCURVE",
"730 329 CURVE SMOOTH",
"724 329 LINE SMOOTH",
"716 329 OFFCURVE",
"710 335 OFFCURVE",
"710 343 CURVE SMOOTH",
"710 357 LINE SMOOTH",
"710 365 OFFCURVE",
"716 371 OFFCURVE",
"724 371 CURVE SMOOTH",
"730 371 LINE SMOOTH",
"771 371 OFFCURVE",
"802 402 OFFCURVE",
"802 442 CURVE SMOOTH",
"802 629 LINE SMOOTH",
"802 669 OFFCURVE",
"771 700 OFFCURVE",
"730 700 CURVE SMOOTH",
"518 700 LINE SMOOTH",
"477 700 OFFCURVE",
"446 669 OFFCURVE",
"446 629 CURVE SMOOTH",
"446 619 LINE SMOOTH",
"446 611 OFFCURVE",
"441 605 OFFCURVE",
"432 605 CURVE SMOOTH",
"418 605 LINE SMOOTH",
"410 605 OFFCURVE",
"404 611 OFFCURVE",
"404 619 CURVE SMOOTH",
"404 629 LINE SMOOTH",
"404 669 OFFCURVE",
"373 700 OFFCURVE",
"333 700 CURVE SMOOTH",
"121 700 LINE SMOOTH",
"81 700 OFFCURVE",
"50 669 OFFCURVE",
"50 629 CURVE SMOOTH"
);
}
);
width = 852;
},
{
layerId = "B57C1444-1622-4D1A-A412-9270A2806B96";
paths = (
{
closed = 1;
nodes = (
"50 442 LINE SMOOTH",
"50 402 OFFCURVE",
"81 371 OFFCURVE",
"121 371 CURVE SMOOTH",
"296 371 LINE SMOOTH",
"304 371 OFFCURVE",
"310 365 OFFCURVE",
"310 357 CURVE SMOOTH",
"310 343 LINE SMOOTH",
"310 335 OFFCURVE",
"304 329 OFFCURVE",
"296 329 CURVE SMOOTH",
"121 329 LINE SMOOTH",
"81 329 OFFCURVE",
"50 298 OFFCURVE",
"50 258 CURVE SMOOTH",
"50 71 LINE SMOOTH",
"50 31 OFFCURVE",
"81 0 OFFCURVE",
"121 0 CURVE SMOOTH",
"333 0 LINE SMOOTH",
"373 0 OFFCURVE",
"404 31 OFFCURVE",
"404 71 CURVE SMOOTH",
"404 201 LINE SMOOTH",
"404 209 OFFCURVE",
"410 215 OFFCURVE",
"418 215 CURVE SMOOTH",
"432 215 LINE SMOOTH",
"441 215 OFFCURVE",
"446 209 OFFCURVE",
"446 201 CURVE SMOOTH",
"446 71 LINE SMOOTH",
"446 31 OFFCURVE",
"477 0 OFFCURVE",
"518 0 CURVE SMOOTH",
"730 0 LINE SMOOTH",
"771 0 OFFCURVE",
"802 31 OFFCURVE",
"802 71 CURVE SMOOTH",
"802 258 LINE SMOOTH",
"802 298 OFFCURVE",
"771 329 OFFCURVE",
"730 329 CURVE SMOOTH",
"564 329 LINE SMOOTH",
"556 329 OFFCURVE",
"550 335 OFFCURVE",
"550 343 CURVE SMOOTH",
"550 357 LINE SMOOTH",
"550 365 OFFCURVE",
"556 371 OFFCURVE",
"564 371 CURVE SMOOTH",
"730 371 LINE SMOOTH",
"771 371 OFFCURVE",
"802 402 OFFCURVE",
"802 442 CURVE SMOOTH",
"802 629 LINE SMOOTH",
"802 669 OFFCURVE",
"771 700 OFFCURVE",
"730 700 CURVE SMOOTH",
"518 700 LINE SMOOTH",
"477 700 OFFCURVE",
"446 669 OFFCURVE",
"446 629 CURVE SMOOTH",
"446 489 LINE SMOOTH",
"446 481 OFFCURVE",
"441 475 OFFCURVE",
"432 475 CURVE SMOOTH",
"418 475 LINE SMOOTH",
"410 475 OFFCURVE",
"404 481 OFFCURVE",
"404 489 CURVE SMOOTH",
"404 629 LINE SMOOTH",
"404 669 OFFCURVE",
"373 700 OFFCURVE",
"333 700 CURVE SMOOTH",
"121 700 LINE SMOOTH",
"81 700 OFFCURVE",
"50 669 OFFCURVE",
"50 629 CURVE SMOOTH"
);
}
);
width = 852;
},
{
layerId = "106BB046-A4A4-4FD5-B9BF-C98528C7FAAB";
paths = (
{
closed = 1;
nodes = (
"50 442 LINE SMOOTH",
"50 402 OFFCURVE",
"81 371 OFFCURVE",
"121 371 CURVE SMOOTH",
"386 371 LINE SMOOTH",
"394 371 OFFCURVE",
"400 365 OFFCURVE",
"400 357 CURVE SMOOTH",
"400 343 LINE SMOOTH",
"400 335 OFFCURVE",
"394 329 OFFCURVE",
"386 329 CURVE SMOOTH",
"121 329 LINE SMOOTH",
"81 329 OFFCURVE",
"50 298 OFFCURVE",
"50 258 CURVE SMOOTH",
"50 71 LINE SMOOTH",
"50 31 OFFCURVE",
"81 0 OFFCURVE",
"121 0 CURVE SMOOTH",
"333 0 LINE SMOOTH",
"373 0 OFFCURVE",
"404 31 OFFCURVE",
"404 71 CURVE SMOOTH",
"404 311 LINE SMOOTH",
"404 319 OFFCURVE",
"410 325 OFFCURVE",
"418 325 CURVE SMOOTH",
"432 325 LINE SMOOTH",
"441 325 OFFCURVE",
"446 319 OFFCURVE",
"446 311 CURVE SMOOTH",
"446 71 LINE SMOOTH",
"446 31 OFFCURVE",
"477 0 OFFCURVE",
"518 0 CURVE SMOOTH",
"730 0 LINE SMOOTH",
"771 0 OFFCURVE",
"802 31 OFFCURVE",
"802 71 CURVE SMOOTH",
"802 258 LINE SMOOTH",
"802 298 OFFCURVE",
"771 329 OFFCURVE",
"730 329 CURVE SMOOTH",
"464 329 LINE SMOOTH",
"456 329 OFFCURVE",
"450 335 OFFCURVE",
"450 343 CURVE SMOOTH",
"450 357 LINE SMOOTH",
"450 365 OFFCURVE",
"456 371 OFFCURVE",
"464 371 CURVE SMOOTH",
"730 371 LINE SMOOTH",
"771 371 OFFCURVE",
"802 402 OFFCURVE",
"802 442 CURVE SMOOTH",
"802 629 LINE SMOOTH",
"802 669 OFFCURVE",
"771 700 OFFCURVE",
"730 700 CURVE SMOOTH",
"518 700 LINE SMOOTH",
"477 700 OFFCURVE",
"446 669 OFFCURVE",
"446 629 CURVE SMOOTH",
"446 389 LINE SMOOTH",
"446 381 OFFCURVE",
"441 375 OFFCURVE",
"432 375 CURVE SMOOTH",
"418 375 LINE SMOOTH",
"410 375 OFFCURVE",
"404 381 OFFCURVE",
"404 389 CURVE SMOOTH",
"404 629 LINE SMOOTH",
"404 669 OFFCURVE",
"373 700 OFFCURVE",
"333 700 CURVE SMOOTH",
"121 700 LINE SMOOTH",
"81 700 OFFCURVE",
"50 669 OFFCURVE",
"50 629 CURVE SMOOTH"
);
}
);
width = 852;
}
);
unicode = 0058;
},
{
glyphname = Y;
lastChange = "2022-11-29 12:38:05 +0000";
layers = (
{
layerId = "A69B6916-D86B-4DB4-B111-C864CDAF75E2";
paths = (
{
closed = 1;
nodes = (
"50 422 LINE SMOOTH",
"50 381 OFFCURVE",
"50 370 OFFCURVE",
"50 350 CURVE",
"50 339 LINE SMOOTH",
"50 331 OFFCURVE",
"50 334 OFFCURVE",
"50 326 CURVE SMOOTH",
"50 71 LINE SMOOTH",
"50 31 OFFCURVE",
"81 0 OFFCURVE",
"121 0 CURVE SMOOTH",
"732 0 LINE SMOOTH",
"773 0 OFFCURVE",
"803 31 OFFCURVE",
"803 71 CURVE SMOOTH",
"803 326 LINE SMOOTH",
"803 334 OFFCURVE",
"803 332 OFFCURVE",
"803 339 CURVE SMOOTH",
"803 350 LINE",
"803 363 OFFCURVE",
"803 381 OFFCURVE",
"803 422 CURVE SMOOTH",
"803 629 LINE SMOOTH",
"803 669 OFFCURVE",
"773 700 OFFCURVE",
"732 700 CURVE SMOOTH",
"520 700 LINE SMOOTH",
"479 700 OFFCURVE",
"471 700 OFFCURVE",
"458 700 CURVE",
"448 700 LINE SMOOTH",
"440 700 OFFCURVE",
"443 700 OFFCURVE",
"434 700 CURVE SMOOTH",
"420 700 LINE SMOOTH",
"412 700 OFFCURVE",
"414 700 OFFCURVE",
"406 700 CURVE SMOOTH",
"396 700 LINE",
"384 700 OFFCURVE",
"375 700 OFFCURVE",
"335 700 CURVE SMOOTH",
"121 700 LINE SMOOTH",
"81 700 OFFCURVE",
"50 669 OFFCURVE",
"50 629 CURVE SMOOTH"
);
}
);
width = 853;
},
{
layerId = "D5846C3A-916F-42E8-8837-99B20A1F62F9";
paths = (
{
closed = 1;
nodes = (
"50 422 LINE SMOOTH",
"50 381 OFFCURVE",
"81 350 OFFCURVE",
"121 350 CURVE SMOOTH",
"128 350 LINE SMOOTH",
"136 350 OFFCURVE",
"142 344 OFFCURVE",
"142 336 CURVE SMOOTH",
"142 71 LINE SMOOTH",
"142 31 OFFCURVE",
"173 0 OFFCURVE",
"213 0 CURVE SMOOTH",
"642 0 LINE SMOOTH",
"683 0 OFFCURVE",
"713 31 OFFCURVE",
"713 71 CURVE SMOOTH",
"713 336 LINE SMOOTH",
"713 344 OFFCURVE",
"719 350 OFFCURVE",
"727 350 CURVE SMOOTH",
"732 350 LINE SMOOTH",
"773 350 OFFCURVE",
"803 381 OFFCURVE",
"803 422 CURVE SMOOTH",
"803 629 LINE SMOOTH",
"803 669 OFFCURVE",
"773 700 OFFCURVE",
"732 700 CURVE SMOOTH",
"520 700 LINE SMOOTH",
"479 700 OFFCURVE",
"448 669 OFFCURVE",
"448 629 CURVE SMOOTH",
"448 622 LINE SMOOTH",
"448 614 OFFCURVE",
"443 608 OFFCURVE",
"434 608 CURVE SMOOTH",
"420 608 LINE SMOOTH",
"412 608 OFFCURVE",
"406 614 OFFCURVE",
"406 622 CURVE SMOOTH",
"406 629 LINE SMOOTH",
"406 669 OFFCURVE",
"375 700 OFFCURVE",
"335 700 CURVE SMOOTH",
"121 700 LINE SMOOTH",
"81 700 OFFCURVE",
"50 669 OFFCURVE",
"50 629 CURVE SMOOTH"
);
}
);
width = 853;
},
{
layerId = "B57C1444-1622-4D1A-A412-9270A2806B96";
paths = (
{
closed = 1;
nodes = (
"50 422 LINE SMOOTH",
"50 381 OFFCURVE",
"81 350 OFFCURVE",
"121 350 CURVE SMOOTH",
"158 350 LINE SMOOTH",
"166 350 OFFCURVE",
"172 344 OFFCURVE",
"172 336 CURVE SMOOTH",
"172 71 LINE SMOOTH",
"172 31 OFFCURVE",
"203 0 OFFCURVE",
"243 0 CURVE SMOOTH",
"610 0 LINE SMOOTH",
"651 0 OFFCURVE",
"681 31 OFFCURVE",
"681 71 CURVE SMOOTH",
"681 336 LINE SMOOTH",
"681 344 OFFCURVE",
"687 350 OFFCURVE",
"695 350 CURVE SMOOTH",
"732 350 LINE SMOOTH",
"773 350 OFFCURVE",
"803 381 OFFCURVE",
"803 422 CURVE SMOOTH",
"803 629 LINE SMOOTH",
"803 669 OFFCURVE",
"773 700 OFFCURVE",
"732 700 CURVE SMOOTH",
"520 700 LINE SMOOTH",
"479 700 OFFCURVE",
"448 669 OFFCURVE",
"448 629 CURVE SMOOTH",
"448 502 LINE SMOOTH",
"448 494 OFFCURVE",
"443 488 OFFCURVE",
"434 488 CURVE SMOOTH",
"420 488 LINE SMOOTH",
"412 488 OFFCURVE",
"406 494 OFFCURVE",
"406 502 CURVE SMOOTH",
"406 629 LINE SMOOTH",
"406 669 OFFCURVE",
"375 700 OFFCURVE",
"335 700 CURVE SMOOTH",
"121 700 LINE SMOOTH",
"81 700 OFFCURVE",
"50 669 OFFCURVE",
"50 629 CURVE SMOOTH"
);
}
);
width = 853;
},
{
layerId = "106BB046-A4A4-4FD5-B9BF-C98528C7FAAB";
paths = (
{
closed = 1;
nodes = (
"50 422 LINE SMOOTH",
"50 381 OFFCURVE",
"81 350 OFFCURVE",
"121 350 CURVE SMOOTH",
"218 350 LINE SMOOTH",
"226 350 OFFCURVE",
"232 344 OFFCURVE",
"232 336 CURVE SMOOTH",
"232 71 LINE SMOOTH",
"232 31 OFFCURVE",
"263 0 OFFCURVE",
"303 0 CURVE SMOOTH",
"550 0 LINE SMOOTH",
"591 0 OFFCURVE",
"621 31 OFFCURVE",
"621 71 CURVE SMOOTH",
"621 336 LINE SMOOTH",
"621 344 OFFCURVE",
"627 350 OFFCURVE",
"635 350 CURVE SMOOTH",
"732 350 LINE SMOOTH",
"773 350 OFFCURVE",
"803 381 OFFCURVE",
"803 422 CURVE SMOOTH",
"803 629 LINE SMOOTH",
"803 669 OFFCURVE",
"773 700 OFFCURVE",
"732 700 CURVE SMOOTH",
"520 700 LINE SMOOTH",
"479 700 OFFCURVE",
"448 669 OFFCURVE",
"448 629 CURVE SMOOTH",
"448 372 LINE SMOOTH",
"448 364 OFFCURVE",
"443 358 OFFCURVE",
"434 358 CURVE SMOOTH",
"420 358 LINE SMOOTH",
"412 358 OFFCURVE",
"406 364 OFFCURVE",
"406 372 CURVE SMOOTH",
"406 629 LINE SMOOTH",
"406 669 OFFCURVE",
"375 700 OFFCURVE",
"335 700 CURVE SMOOTH",
"121 700 LINE SMOOTH",
"81 700 OFFCURVE",
"50 669 OFFCURVE",
"50 629 CURVE SMOOTH"
);
}
);
width = 853;
}
);
unicode = 0059;
},
{
glyphname = Z;
lastChange = "2022-11-29 12:41:04 +0000";
layers = (
{
layerId = "A69B6916-D86B-4DB4-B111-C864CDAF75E2";
paths = (
{
closed = 1;
nodes = (
"731 700 LINE SMOOTH",
"771 700 OFFCURVE",
"802 670 OFFCURVE",
"802 629 CURVE SMOOTH",
"802 296 LINE SMOOTH",
"802 255 OFFCURVE",
"802 259 OFFCURVE",
"802 234 CURVE",
"802 224 LINE SMOOTH",
"802 216 OFFCURVE",
"802 219 OFFCURVE",
"802 210 CURVE SMOOTH",
"802 196 LINE SMOOTH",
"802 188 OFFCURVE",
"802 190 OFFCURVE",
"802 182 CURVE SMOOTH",
"802 172 LINE",
"802 155 OFFCURVE",
"802 151 OFFCURVE",
"802 111 CURVE SMOOTH",
"802 71 LINE SMOOTH",
"802 31 OFFCURVE",
"771 0 OFFCURVE",
"731 0 CURVE SMOOTH",
"121 0 LINE SMOOTH",
"81 0 OFFCURVE",
"50 31 OFFCURVE",
"50 71 CURVE SMOOTH",
"50 405 LINE SMOOTH",
"50 445 OFFCURVE",
"50 450 OFFCURVE",
"50 466 CURVE",
"50 476 LINE SMOOTH",
"50 484 OFFCURVE",
"50 482 OFFCURVE",
"50 490 CURVE SMOOTH",
"50 504 LINE SMOOTH",
"50 513 OFFCURVE",
"50 510 OFFCURVE",
"50 518 CURVE SMOOTH",
"50 528 LINE",
"50 549 OFFCURVE",
"50 549 OFFCURVE",
"50 590 CURVE SMOOTH",
"50 629 LINE SMOOTH",
"50 670 OFFCURVE",
"81 700 OFFCURVE",
"121 700 CURVE SMOOTH"
);
}
);
width = 852;
},
{
layerId = "D5846C3A-916F-42E8-8837-99B20A1F62F9";
paths = (
{
closed = 1;
nodes = (
"731 700 LINE SMOOTH",
"771 700 OFFCURVE",
"802 670 OFFCURVE",
"802 629 CURVE SMOOTH",
"802 296 LINE SMOOTH",
"802 255 OFFCURVE",
"771 224 OFFCURVE",
"731 224 CURVE SMOOTH",
"715 224 LINE SMOOTH",
"707 224 OFFCURVE",
"701 219 OFFCURVE",
"701 210 CURVE SMOOTH",
"701 196 LINE SMOOTH",
"701 188 OFFCURVE",
"707 182 OFFCURVE",
"715 182 CURVE SMOOTH",
"731 182 LINE SMOOTH",
"771 182 OFFCURVE",
"802 151 OFFCURVE",
"802 111 CURVE SMOOTH",
"802 71 LINE SMOOTH",
"802 31 OFFCURVE",
"771 0 OFFCURVE",
"731 0 CURVE SMOOTH",
"121 0 LINE SMOOTH",
"81 0 OFFCURVE",
"50 31 OFFCURVE",
"50 71 CURVE SMOOTH",
"50 405 LINE SMOOTH",
"50 445 OFFCURVE",
"81 476 OFFCURVE",
"121 476 CURVE SMOOTH",
"135 476 LINE SMOOTH",
"143 476 OFFCURVE",
"149 482 OFFCURVE",
"149 490 CURVE SMOOTH",
"149 504 LINE SMOOTH",
"149 513 OFFCURVE",
"143 518 OFFCURVE",
"135 518 CURVE SMOOTH",
"121 518 LINE SMOOTH",
"81 518 OFFCURVE",
"50 549 OFFCURVE",
"50 590 CURVE SMOOTH",
"50 629 LINE SMOOTH",
"50 670 OFFCURVE",
"81 700 OFFCURVE",
"121 700 CURVE SMOOTH"
);
}
);
width = 852;
},
{
layerId = "B57C1444-1622-4D1A-A412-9270A2806B96";
paths = (
{
closed = 1;
nodes = (
"731 700 LINE SMOOTH",
"771 700 OFFCURVE",
"802 670 OFFCURVE",
"802 629 CURVE SMOOTH",
"802 296 LINE SMOOTH",
"802 255 OFFCURVE",
"771 224 OFFCURVE",
"731 224 CURVE SMOOTH",
"455 224 LINE SMOOTH",
"447 224 OFFCURVE",
"441 219 OFFCURVE",
"441 210 CURVE SMOOTH",
"441 196 LINE SMOOTH",
"441 188 OFFCURVE",
"447 182 OFFCURVE",
"455 182 CURVE SMOOTH",
"731 182 LINE SMOOTH",
"771 182 OFFCURVE",
"802 151 OFFCURVE",
"802 111 CURVE SMOOTH",
"802 71 LINE SMOOTH",
"802 31 OFFCURVE",
"771 0 OFFCURVE",
"731 0 CURVE SMOOTH",
"121 0 LINE SMOOTH",
"81 0 OFFCURVE",
"50 31 OFFCURVE",
"50 71 CURVE SMOOTH",
"50 405 LINE SMOOTH",
"50 445 OFFCURVE",
"81 476 OFFCURVE",
"121 476 CURVE SMOOTH",
"425 476 LINE SMOOTH",
"433 476 OFFCURVE",
"439 482 OFFCURVE",
"439 490 CURVE SMOOTH",
"439 504 LINE SMOOTH",
"439 513 OFFCURVE",
"433 518 OFFCURVE",
"425 518 CURVE SMOOTH",
"121 518 LINE SMOOTH",
"81 518 OFFCURVE",
"50 549 OFFCURVE",
"50 590 CURVE SMOOTH",
"50 629 LINE SMOOTH",
"50 670 OFFCURVE",
"81 700 OFFCURVE",
"121 700 CURVE SMOOTH"
);
}
);
width = 852;
},
{
layerId = "106BB046-A4A4-4FD5-B9BF-C98528C7FAAB";
paths = (
{
closed = 1;
nodes = (
"731 700 LINE SMOOTH",
"771 700 OFFCURVE",
"802 670 OFFCURVE",
"802 629 CURVE SMOOTH",
"802 296 LINE SMOOTH",
"802 255 OFFCURVE",
"771 224 OFFCURVE",
"731 224 CURVE SMOOTH",
"225 224 LINE SMOOTH",
"217 224 OFFCURVE",
"211 219 OFFCURVE",
"211 210 CURVE SMOOTH",
"211 196 LINE SMOOTH",
"211 188 OFFCURVE",
"217 182 OFFCURVE",
"225 182 CURVE SMOOTH",
"731 182 LINE SMOOTH",
"771 182 OFFCURVE",
"802 151 OFFCURVE",
"802 111 CURVE SMOOTH",
"802 71 LINE SMOOTH",
"802 31 OFFCURVE",
"771 0 OFFCURVE",
"731 0 CURVE SMOOTH",
"121 0 LINE SMOOTH",
"81 0 OFFCURVE",
"50 31 OFFCURVE",
"50 71 CURVE SMOOTH",
"50 405 LINE SMOOTH",
"50 445 OFFCURVE",
"81 476 OFFCURVE",
"121 476 CURVE SMOOTH",
"595 476 LINE SMOOTH",
"603 476 OFFCURVE",
"609 482 OFFCURVE",
"609 490 CURVE SMOOTH",
"609 504 LINE SMOOTH",
"609 513 OFFCURVE",
"603 518 OFFCURVE",
"595 518 CURVE SMOOTH",
"121 518 LINE SMOOTH",
"81 518 OFFCURVE",
"50 549 OFFCURVE",
"50 590 CURVE SMOOTH",
"50 629 LINE SMOOTH",
"50 670 OFFCURVE",
"81 700 OFFCURVE",
"121 700 CURVE SMOOTH"
);
}
);
width = 852;
}
);
unicode = 005A;
},
{
glyphname = a;
lastChange = "2023-01-16 13:14:24 +0000";
layers = (
{
layerId = "A69B6916-D86B-4DB4-B111-C864CDAF75E2";
paths = (
{
closed = 1;
nodes = (
"50 449 LINE SMOOTH",
"50 477 OFFCURVE",
"71 500 OFFCURVE",
"98 500 CURVE SMOOTH",
"535 500 LINE SMOOTH",
"563 500 OFFCURVE",
"586 477 OFFCURVE",
"586 449 CURVE SMOOTH",
"586 48 LINE SMOOTH",
"586 21 OFFCURVE",
"563 0 OFFCURVE",
"535 0 CURVE SMOOTH",
"504 0 LINE SMOOTH",
"475 0 OFFCURVE",
"463 0 OFFCURVE",
"456 0 CURVE",
"454 0 LINE",
"452 0 OFFCURVE",
"449 0 OFFCURVE",
"444 0 CURVE SMOOTH",
"192 0 LINE SMOOTH",
"188 0 OFFCURVE",
"188 0 OFFCURVE",
"183 0 CURVE",
"181 0 LINE",
"174 0 OFFCURVE",
"161 0 OFFCURVE",
"132 0 CURVE SMOOTH",
"98 0 LINE SMOOTH",
"71 0 OFFCURVE",
"50 22 OFFCURVE",
"50 49 CURVE SMOOTH"
);
},
{
closed = 1;
nodes = (
"311 192 LINE SMOOTH",
"311 196 OFFCURVE",
"311 195 OFFCURVE",
"311 202 CURVE SMOOTH",
"311 212 LINE SMOOTH",
"311 218 OFFCURVE",
"311 215 OFFCURVE",
"311 222 CURVE SMOOTH",
"311 222 LINE SMOOTH",
"311 218 OFFCURVE",
"311 218 OFFCURVE",
"311 212 CURVE SMOOTH",
"311 202 LINE SMOOTH",
"311 195 OFFCURVE",
"311 196 OFFCURVE",
"311 192 CURVE SMOOTH"
);
}
);
width = 636;
},
{
layerId = "D5846C3A-916F-42E8-8837-99B20A1F62F9";
paths = (
{
closed = 1;
nodes = (
"50 449 LINE SMOOTH",
"50 477 OFFCURVE",
"71 500 OFFCURVE",
"99 500 CURVE SMOOTH",
"537 500 LINE SMOOTH",
"566 500 OFFCURVE",
"589 477 OFFCURVE",
"589 449 CURVE SMOOTH",
"589 50 LINE SMOOTH",
"589 21 OFFCURVE",
"566 0 OFFCURVE",
"537 0 CURVE SMOOTH",
"506 0 LINE SMOOTH",
"477 0 OFFCURVE",
"456 -4 OFFCURVE",
"456 24 CURVE SMOOTH",
"456 26 LINE SMOOTH",
"456 32 OFFCURVE",
"451 36 OFFCURVE",
"446 36 CURVE SMOOTH",
"193 36 LINE SMOOTH",
"188 36 OFFCURVE",
"183 32 OFFCURVE",
"183 26 CURVE SMOOTH",
"183 24 LINE SMOOTH",
"183 -4 OFFCURVE",
"161 0 OFFCURVE",
"133 0 CURVE SMOOTH",
"99 0 LINE SMOOTH",
"71 0 OFFCURVE",
"50 23 OFFCURVE",
"50 50 CURVE SMOOTH"
);
},
{
closed = 1;
nodes = (
"348 193 LINE SMOOTH",
"354 193 OFFCURVE",
"358 197 OFFCURVE",
"358 203 CURVE SMOOTH",
"358 213 LINE SMOOTH",
"358 219 OFFCURVE",
"354 223 OFFCURVE",
"348 223 CURVE SMOOTH",
"276 223 LINE SMOOTH",
"271 223 OFFCURVE",
"266 219 OFFCURVE",
"266 213 CURVE SMOOTH",
"266 203 LINE SMOOTH",
"266 197 OFFCURVE",
"271 193 OFFCURVE",
"276 193 CURVE SMOOTH"
);
}
);
width = 639;
},
{
layerId = "B57C1444-1622-4D1A-A412-9270A2806B96";
paths = (
{
closed = 1;
nodes = (
"50 450 LINE SMOOTH",
"50 477 OFFCURVE",
"71 500 OFFCURVE",
"99 500 CURVE SMOOTH",
"536 500 LINE SMOOTH",
"565 500 OFFCURVE",
"587 477 OFFCURVE",
"587 450 CURVE SMOOTH",
"587 49 LINE SMOOTH",
"587 21 OFFCURVE",
"565 0 OFFCURVE",
"536 0 CURVE SMOOTH",
"505 0 LINE SMOOTH",
"476 0 OFFCURVE",
"455 8 OFFCURVE",
"455 36 CURVE SMOOTH",
"455 38 LINE SMOOTH",
"455 44 OFFCURVE",
"450 48 OFFCURVE",
"444 48 CURVE SMOOTH",
"193 48 LINE SMOOTH",
"187 48 OFFCURVE",
"183 44 OFFCURVE",
"183 38 CURVE SMOOTH",
"183 36 LINE SMOOTH",
"183 8 OFFCURVE",
"161 0 OFFCURVE",
"133 0 CURVE SMOOTH",
"99 0 LINE SMOOTH",
"71 0 OFFCURVE",
"50 22 OFFCURVE",
"50 50 CURVE SMOOTH"
);
},
{
closed = 1;
nodes = (
"383 192 LINE SMOOTH",
"389 192 OFFCURVE",
"393 196 OFFCURVE",
"393 202 CURVE SMOOTH",
"393 212 LINE SMOOTH",
"393 218 OFFCURVE",
"389 222 OFFCURVE",
"383 222 CURVE SMOOTH",
"240 222 LINE SMOOTH",
"234 222 OFFCURVE",
"230 218 OFFCURVE",
"230 212 CURVE SMOOTH",
"230 202 LINE SMOOTH",
"230 196 OFFCURVE",
"234 192 OFFCURVE",
"240 192 CURVE SMOOTH"
);
}
);
width = 637;
},
{
layerId = "106BB046-A4A4-4FD5-B9BF-C98528C7FAAB";
paths = (
{
closed = 1;
nodes = (
"50 449 LINE SMOOTH",
"50 477 OFFCURVE",
"71 500 OFFCURVE",
"99 500 CURVE SMOOTH",
"536 500 LINE SMOOTH",
"564 500 OFFCURVE",
"587 477 OFFCURVE",
"587 449 CURVE SMOOTH",
"587 49 LINE SMOOTH",
"587 21 OFFCURVE",
"564 0 OFFCURVE",
"536 0 CURVE SMOOTH",
"504 0 LINE SMOOTH",
"476 0 OFFCURVE",
"454 22 OFFCURVE",
"454 50 CURVE SMOOTH",
"454 52 LINE SMOOTH",
"454 58 OFFCURVE",
"450 62 OFFCURVE",
"444 62 CURVE SMOOTH",
"193 62 LINE SMOOTH",
"187 62 OFFCURVE",
"183 58 OFFCURVE",
"183 52 CURVE SMOOTH",
"183 50 LINE SMOOTH",
"183 22 OFFCURVE",
"161 0 OFFCURVE",
"133 0 CURVE SMOOTH",
"99 0 LINE SMOOTH",
"71 0 OFFCURVE",
"50 22 OFFCURVE",
"50 50 CURVE SMOOTH"
);
},
{
closed = 1;
nodes = (
"447 192 LINE SMOOTH",
"453 192 OFFCURVE",
"457 196 OFFCURVE",
"457 202 CURVE SMOOTH",
"457 212 LINE SMOOTH",
"457 218 OFFCURVE",
"453 222 OFFCURVE",
"447 222 CURVE SMOOTH",
"190 222 LINE SMOOTH",
"184 222 OFFCURVE",
"180 218 OFFCURVE",
"180 212 CURVE SMOOTH",
"180 202 LINE SMOOTH",
"180 196 OFFCURVE",
"184 192 OFFCURVE",
"190 192 CURVE SMOOTH"
);
}
);
width = 637;
}
);
unicode = 0061;
},
{
glyphname = b;
lastChange = "2022-11-29 12:46:46 +0000";
layers = (
{
layerId = "A69B6916-D86B-4DB4-B111-C864CDAF75E2";
paths = (
{
closed = 1;
nodes = (
"505 500 LINE SMOOTH",
"552 500 OFFCURVE",
"587 465 OFFCURVE",
"587 418 CURVE SMOOTH",
"587 316 LINE SMOOTH",
"587 287 OFFCURVE",
"587 275 OFFCURVE",
"587 265 CURVE",
"587 261 LINE",
"587 257 OFFCURVE",
"587 261 OFFCURVE",
"587 255 CURVE SMOOTH",
"587 245 LINE SMOOTH",
"587 239 OFFCURVE",
"587 241 OFFCURVE",
"587 239 CURVE",
"587 235 LINE",
"587 217 OFFCURVE",
"587 213 OFFCURVE",
"587 184 CURVE",
"586 82 LINE SMOOTH",
"585 35 OFFCURVE",
"551 0 OFFCURVE",
"504 0 CURVE SMOOTH",
"101 0 LINE SMOOTH",
"72 0 OFFCURVE",
"50 22 OFFCURVE",
"50 51 CURVE SMOOTH",
"50 449 LINE SMOOTH",
"50 478 OFFCURVE",
"72 500 OFFCURVE",
"101 500 CURVE SMOOTH"
);
},
{
closed = 1;
nodes = (
"317 235 LINE SMOOTH",
"317 229 OFFCURVE",
"317 231 OFFCURVE",
"317 225 CURVE SMOOTH",
"317 215 LINE SMOOTH",
"317 209 OFFCURVE",
"317 208 OFFCURVE",
"317 205 CURVE SMOOTH",
"317 205 LINE SMOOTH",
"317 208 OFFCURVE",
"317 209 OFFCURVE",
"317 215 CURVE SMOOTH",
"317 225 LINE SMOOTH",
"317 231 OFFCURVE",
"317 231 OFFCURVE",
"317 235 CURVE SMOOTH"
);
},
{
closed = 1;
nodes = (
"317 295 LINE SMOOTH",
"317 290 OFFCURVE",
"317 291 OFFCURVE",
"317 285 CURVE SMOOTH",
"317 275 LINE SMOOTH",
"317 269 OFFCURVE",
"317 269 OFFCURVE",
"317 265 CURVE SMOOTH",
"317 265 LINE SMOOTH",
"317 269 OFFCURVE",
"317 269 OFFCURVE",
"317 275 CURVE SMOOTH",
"317 285 LINE SMOOTH",
"317 291 OFFCURVE",
"317 289 OFFCURVE",
"317 295 CURVE SMOOTH"
);
}
);
width = 637;
},
{
layerId = "D5846C3A-916F-42E8-8837-99B20A1F62F9";
paths = (
{
closed = 1;
nodes = (
"505 500 LINE SMOOTH",
"552 500 OFFCURVE",
"587 465 OFFCURVE",
"587 418 CURVE SMOOTH",
"587 316 LINE SMOOTH",
"587 287 OFFCURVE",
"589 265 OFFCURVE",
"568 265 CURVE SMOOTH",
"560 265 LINE SMOOTH",
"554 265 OFFCURVE",
"550 261 OFFCURVE",
"550 255 CURVE SMOOTH",
"550 245 LINE SMOOTH",
"550 239 OFFCURVE",
"554 235 OFFCURVE",
"560 235 CURVE SMOOTH",
"568 235 LINE SMOOTH",
"586 235 OFFCURVE",
"586 213 OFFCURVE",
"586 184 CURVE SMOOTH",
"586 82 LINE SMOOTH",
"586 35 OFFCURVE",
"551 0 OFFCURVE",
"504 0 CURVE SMOOTH",
"101 0 LINE SMOOTH",
"72 0 OFFCURVE",
"50 22 OFFCURVE",
"50 51 CURVE SMOOTH",
"50 449 LINE SMOOTH",
"50 478 OFFCURVE",
"72 500 OFFCURVE",
"101 500 CURVE SMOOTH"
);
},
{
closed = 1;
nodes = (
"304 235 LINE SMOOTH",
"297 235 OFFCURVE",
"294 231 OFFCURVE",
"294 225 CURVE SMOOTH",
"294 215 LINE SMOOTH",
"294 209 OFFCURVE",
"297 205 OFFCURVE",
"304 205 CURVE SMOOTH",
"331 205 LINE SMOOTH",
"338 205 OFFCURVE",
"341 209 OFFCURVE",
"341 215 CURVE SMOOTH",
"341 225 LINE SMOOTH",
"341 231 OFFCURVE",
"338 235 OFFCURVE",
"331 235 CURVE SMOOTH"
);
},
{
closed = 1;
nodes = (
"304 295 LINE SMOOTH",
"297 295 OFFCURVE",
"294 291 OFFCURVE",
"294 285 CURVE SMOOTH",
"294 275 LINE SMOOTH",
"294 269 OFFCURVE",
"297 265 OFFCURVE",
"304 265 CURVE SMOOTH",
"331 265 LINE SMOOTH",
"338 265 OFFCURVE",
"341 269 OFFCURVE",
"341 275 CURVE SMOOTH",
"341 285 LINE SMOOTH",
"341 291 OFFCURVE",
"338 295 OFFCURVE",
"331 295 CURVE SMOOTH"
);
}
);
width = 637;
},
{
layerId = "B57C1444-1622-4D1A-A412-9270A2806B96";
paths = (
{
closed = 1;
nodes = (
"505 500 LINE SMOOTH",
"552 500 OFFCURVE",
"587 465 OFFCURVE",
"587 418 CURVE SMOOTH",
"587 316 LINE SMOOTH",
"587 287 OFFCURVE",
"565 265 OFFCURVE",
"536 265 CURVE SMOOTH",
"524 265 LINE SMOOTH",
"519 265 OFFCURVE",
"514 261 OFFCURVE",
"514 255 CURVE SMOOTH",
"514 245 LINE SMOOTH",
"514 239 OFFCURVE",
"519 235 OFFCURVE",
"524 235 CURVE SMOOTH",
"535 235 LINE SMOOTH",
"564 235 OFFCURVE",
"586 213 OFFCURVE",
"586 184 CURVE SMOOTH",
"586 82 LINE SMOOTH",
"586 35 OFFCURVE",
"551 0 OFFCURVE",
"504 0 CURVE SMOOTH",
"101 0 LINE SMOOTH",
"72 0 OFFCURVE",
"50 22 OFFCURVE",
"50 51 CURVE SMOOTH",
"50 449 LINE SMOOTH",
"50 478 OFFCURVE",
"72 500 OFFCURVE",
"101 500 CURVE SMOOTH"
);
},
{
closed = 1;
nodes = (
"246 235 LINE SMOOTH",
"240 235 OFFCURVE",
"236 231 OFFCURVE",
"236 225 CURVE SMOOTH",
"236 215 LINE SMOOTH",
"236 209 OFFCURVE",
"240 205 OFFCURVE",
"246 205 CURVE SMOOTH",
"389 205 LINE SMOOTH",
"395 205 OFFCURVE",
"399 209 OFFCURVE",
"399 215 CURVE SMOOTH",
"399 225 LINE SMOOTH",
"399 231 OFFCURVE",
"395 235 OFFCURVE",
"389 235 CURVE SMOOTH"
);
},
{
closed = 1;
nodes = (
"246 295 LINE SMOOTH",
"240 295 OFFCURVE",
"236 291 OFFCURVE",
"236 285 CURVE SMOOTH",
"236 275 LINE SMOOTH",
"236 269 OFFCURVE",
"240 265 OFFCURVE",
"246 265 CURVE SMOOTH",
"389 265 LINE SMOOTH",
"395 265 OFFCURVE",
"399 269 OFFCURVE",
"399 275 CURVE SMOOTH",
"399 285 LINE SMOOTH",
"399 291 OFFCURVE",
"395 295 OFFCURVE",
"389 295 CURVE SMOOTH"
);
}
);
width = 637;
},
{
layerId = "106BB046-A4A4-4FD5-B9BF-C98528C7FAAB";
paths = (
{
closed = 1;
nodes = (
"505 500 LINE SMOOTH",
"552 500 OFFCURVE",
"587 465 OFFCURVE",
"587 418 CURVE SMOOTH",
"587 316 LINE SMOOTH",
"587 287 OFFCURVE",
"565 265 OFFCURVE",
"536 265 CURVE SMOOTH",
"503 265 LINE SMOOTH",
"497 265 OFFCURVE",
"493 261 OFFCURVE",
"493 255 CURVE SMOOTH",
"493 245 LINE SMOOTH",
"493 239 OFFCURVE",
"497 235 OFFCURVE",
"503 235 CURVE SMOOTH",
"535 235 LINE SMOOTH",
"564 235 OFFCURVE",
"586 213 OFFCURVE",
"586 184 CURVE SMOOTH",
"586 82 LINE SMOOTH",
"586 35 OFFCURVE",
"551 0 OFFCURVE",
"504 0 CURVE SMOOTH",
"101 0 LINE SMOOTH",
"72 0 OFFCURVE",
"50 22 OFFCURVE",
"50 51 CURVE SMOOTH",
"50 449 LINE SMOOTH",
"50 478 OFFCURVE",
"72 500 OFFCURVE",
"101 500 CURVE SMOOTH"
);
},
{
closed = 1;
nodes = (
"218 235 LINE SMOOTH",
"211 235 OFFCURVE",
"208 231 OFFCURVE",
"208 225 CURVE SMOOTH",
"208 215 LINE SMOOTH",
"208 209 OFFCURVE",
"211 205 OFFCURVE",
"218 205 CURVE SMOOTH",
"417 205 LINE SMOOTH",
"424 205 OFFCURVE",
"427 209 OFFCURVE",
"427 215 CURVE SMOOTH",
"427 225 LINE SMOOTH",
"427 231 OFFCURVE",
"424 235 OFFCURVE",
"417 235 CURVE SMOOTH"
);
},
{
closed = 1;
nodes = (
"218 295 LINE SMOOTH",
"211 295 OFFCURVE",
"208 291 OFFCURVE",
"208 285 CURVE SMOOTH",
"208 275 LINE SMOOTH",
"208 269 OFFCURVE",
"211 265 OFFCURVE",
"218 265 CURVE SMOOTH",
"417 265 LINE SMOOTH",
"424 265 OFFCURVE",
"427 269 OFFCURVE",
"427 275 CURVE SMOOTH",
"427 285 LINE SMOOTH",
"427 291 OFFCURVE",
"424 295 OFFCURVE",
"417 295 CURVE SMOOTH"
);
}
);
width = 637;
}
);
unicode = 0062;
},
{
glyphname = c;
lastChange = "2023-01-16 13:06:48 +0000";
layers = (
{
layerId = "A69B6916-D86B-4DB4-B111-C864CDAF75E2";
paths = (
{
closed = 1;
nodes = (
"50 51 LINE SMOOTH",
"50 22 OFFCURVE",
"72 0 OFFCURVE",
"101 0 CURVE SMOOTH",
"536 0 LINE SMOOTH",
"565 0 OFFCURVE",
"587 22 OFFCURVE",
"587 51 CURVE SMOOTH",
"587 184 LINE SMOOTH",
"587 213 OFFCURVE",
"587 205 OFFCURVE",
"587 235 CURVE",
"587 242 LINE",
"587 239 OFFCURVE",
"587 239 OFFCURVE",
"587 245 CURVE",
"587 255 LINE",
"587 261 OFFCURVE",
"587 261 OFFCURVE",
"587 258 CURVE",
"587 265 LINE",
"587 294 OFFCURVE",
"587 287 OFFCURVE",
"587 316 CURVE SMOOTH",
"587 449 LINE SMOOTH",
"587 478 OFFCURVE",
"565 500 OFFCURVE",
"536 500 CURVE SMOOTH",
"101 500 LINE SMOOTH",
"72 500 OFFCURVE",
"50 478 OFFCURVE",
"50 449 CURVE SMOOTH"
);
}
);
width = 637;
},
{
layerId = "D5846C3A-916F-42E8-8837-99B20A1F62F9";
paths = (
{
closed = 1;
nodes = (
"50 51 LINE SMOOTH",
"50 22 OFFCURVE",
"72 0 OFFCURVE",
"101 0 CURVE SMOOTH",
"536 0 LINE SMOOTH",
"565 0 OFFCURVE",
"587 22 OFFCURVE",
"587 51 CURVE SMOOTH",
"587 184 LINE SMOOTH",
"587 213 OFFCURVE",
"565 235 OFFCURVE",
"536 235 CURVE SMOOTH",
"526 235 LINE SMOOTH",
"520 235 OFFCURVE",
"516 239 OFFCURVE",
"516 245 CURVE SMOOTH",
"516 255 LINE SMOOTH",
"516 261 OFFCURVE",
"520 265 OFFCURVE",
"526 265 CURVE SMOOTH",
"536 265 LINE SMOOTH",
"565 265 OFFCURVE",
"587 287 OFFCURVE",
"587 316 CURVE SMOOTH",
"587 449 LINE SMOOTH",
"587 478 OFFCURVE",
"565 500 OFFCURVE",
"536 500 CURVE SMOOTH",
"101 500 LINE SMOOTH",
"72 500 OFFCURVE",
"50 478 OFFCURVE",
"50 449 CURVE SMOOTH"
);
}
);
width = 637;
},
{
layerId = "B57C1444-1622-4D1A-A412-9270A2806B96";
paths = (
{
closed = 1;
nodes = (
"50 51 LINE SMOOTH",
"50 22 OFFCURVE",
"72 0 OFFCURVE",
"101 0 CURVE SMOOTH",
"536 0 LINE SMOOTH",
"565 0 OFFCURVE",
"587 22 OFFCURVE",
"587 51 CURVE SMOOTH",
"587 184 LINE SMOOTH",
"587 213 OFFCURVE",
"565 235 OFFCURVE",
"536 235 CURVE SMOOTH",
"319 235 LINE SMOOTH",
"313 235 OFFCURVE",
"309 239 OFFCURVE",
"309 245 CURVE SMOOTH",
"309 255 LINE SMOOTH",
"309 261 OFFCURVE",
"313 265 OFFCURVE",
"319 265 CURVE SMOOTH",
"536 265 LINE SMOOTH",
"565 265 OFFCURVE",
"587 287 OFFCURVE",
"587 316 CURVE SMOOTH",
"587 449 LINE SMOOTH",
"587 478 OFFCURVE",
"565 500 OFFCURVE",
"536 500 CURVE SMOOTH",
"101 500 LINE SMOOTH",
"72 500 OFFCURVE",
"50 478 OFFCURVE",
"50 449 CURVE SMOOTH"
);
}
);
width = 637;
},
{
layerId = "106BB046-A4A4-4FD5-B9BF-C98528C7FAAB";
paths = (
{
closed = 1;
nodes = (
"50 51 LINE SMOOTH",
"50 22 OFFCURVE",
"72 0 OFFCURVE",
"101 0 CURVE SMOOTH",
"536 0 LINE SMOOTH",
"565 0 OFFCURVE",
"587 22 OFFCURVE",
"587 51 CURVE SMOOTH",
"587 184 LINE SMOOTH",
"587 213 OFFCURVE",
"565 235 OFFCURVE",
"536 235 CURVE SMOOTH",
"190 235 LINE SMOOTH",
"184 235 OFFCURVE",
"180 239 OFFCURVE",
"180 245 CURVE SMOOTH",
"180 255 LINE SMOOTH",
"180 261 OFFCURVE",
"184 265 OFFCURVE",
"190 265 CURVE SMOOTH",
"536 265 LINE SMOOTH",
"565 265 OFFCURVE",
"587 287 OFFCURVE",
"587 316 CURVE SMOOTH",
"587 449 LINE SMOOTH",
"587 478 OFFCURVE",
"565 500 OFFCURVE",
"536 500 CURVE SMOOTH",
"101 500 LINE SMOOTH",
"72 500 OFFCURVE",
"50 478 OFFCURVE",
"50 449 CURVE SMOOTH"
);
}
);
width = 637;
}
);
unicode = 0063;
},
{
glyphname = d;
lastChange = "2023-01-16 13:07:00 +0000";
layers = (
{
layerId = "A69B6916-D86B-4DB4-B111-C864CDAF75E2";
paths = (
{
closed = 1;
nodes = (
"50 22 OFFCURVE",
"72 0 OFFCURVE",
"101 0 CURVE",
"506 0 LINE",
"552 0 OFFCURVE",
"587 34 OFFCURVE",
"587 82 CURVE",
"587 418 LINE",
"587 465 OFFCURVE",
"552 500 OFFCURVE",
"506 500 CURVE",
"101 500 LINE",
"72 500 OFFCURVE",
"50 478 OFFCURVE",
"50 449 CURVE",
"50 51 LINE"
);
},
{
closed = 1;
nodes = (
"327 265 LINE",
"327 262 OFFCURVE",
"327 261 OFFCURVE",
"327 255 CURVE",
"327 245 LINE",
"327 239 OFFCURVE",
"327 238 OFFCURVE",
"327 235 CURVE",
"327 235 LINE",
"327 238 OFFCURVE",
"327 239 OFFCURVE",
"327 245 CURVE",
"327 255 LINE",
"327 261 OFFCURVE",
"327 262 OFFCURVE",
"327 265 CURVE"
);
}
);
width = 637;
},
{
layerId = "D5846C3A-916F-42E8-8837-99B20A1F62F9";
paths = (
{
closed = 1;
nodes = (
"50 22 OFFCURVE",
"72 0 OFFCURVE",
"101 0 CURVE",
"506 0 LINE",
"552 0 OFFCURVE",
"586 34 OFFCURVE",
"586 82 CURVE",
"586 418 LINE",
"586 465 OFFCURVE",
"552 500 OFFCURVE",
"506 500 CURVE",
"101 500 LINE",
"72 500 OFFCURVE",
"50 478 OFFCURVE",
"50 449 CURVE",
"50 51 LINE"
);
},
{
closed = 1;
nodes = (
"340 266 LINE",
"346 266 OFFCURVE",
"349 261 OFFCURVE",
"349 256 CURVE",
"349 245 LINE",
"349 239 OFFCURVE",
"346 235 OFFCURVE",
"340 235 CURVE",
"314 235 LINE",
"308 235 OFFCURVE",
"304 239 OFFCURVE",
"304 245 CURVE",
"304 256 LINE",
"304 261 OFFCURVE",
"308 266 OFFCURVE",
"314 266 CURVE"
);
}
);
width = 636;
},
{
layerId = "B57C1444-1622-4D1A-A412-9270A2806B96";
paths = (
{
closed = 1;
nodes = (
"50 22 OFFCURVE",
"72 0 OFFCURVE",
"101 0 CURVE",
"506 0 LINE",
"552 0 OFFCURVE",
"586 34 OFFCURVE",
"586 82 CURVE",
"586 418 LINE",
"586 465 OFFCURVE",
"552 500 OFFCURVE",
"506 500 CURVE",
"101 500 LINE",
"72 500 OFFCURVE",
"50 478 OFFCURVE",
"50 449 CURVE",
"50 51 LINE"
);
},
{
closed = 1;
nodes = (
"419 266 LINE",
"424 266 OFFCURVE",
"428 261 OFFCURVE",
"428 256 CURVE",
"428 245 LINE",
"428 239 OFFCURVE",
"424 235 OFFCURVE",
"419 235 CURVE",
"256 235 LINE",
"251 235 OFFCURVE",
"246 239 OFFCURVE",
"246 245 CURVE",
"246 256 LINE",
"246 261 OFFCURVE",
"251 266 OFFCURVE",
"256 266 CURVE"
);
}
);
width = 636;
},
{
layerId = "106BB046-A4A4-4FD5-B9BF-C98528C7FAAB";
paths = (
{
closed = 1;
nodes = (
"50 22 OFFCURVE",
"72 0 OFFCURVE",
"101 0 CURVE SMOOTH",
"505 0 LINE SMOOTH",
"552 0 OFFCURVE",
"587 35 OFFCURVE",
"587 82 CURVE SMOOTH",
"587 418 LINE SMOOTH",
"587 465 OFFCURVE",
"552 500 OFFCURVE",
"505 500 CURVE SMOOTH",
"101 500 LINE SMOOTH",
"72 500 OFFCURVE",
"50 478 OFFCURVE",
"50 449 CURVE SMOOTH",
"50 51 LINE SMOOTH"
);
},
{
closed = 1;
nodes = (
"447 265 LINE SMOOTH",
"453 265 OFFCURVE",
"457 261 OFFCURVE",
"457 255 CURVE SMOOTH",
"457 245 LINE SMOOTH",
"457 239 OFFCURVE",
"453 235 OFFCURVE",
"447 235 CURVE SMOOTH",
"228 235 LINE SMOOTH",
"222 235 OFFCURVE",
"218 239 OFFCURVE",
"218 245 CURVE SMOOTH",
"218 255 LINE SMOOTH",
"218 261 OFFCURVE",
"222 265 OFFCURVE",
"228 265 CURVE SMOOTH"
);
}
);
width = 637;
}
);
unicode = 0064;
},
{
glyphname = e;
lastChange = "2023-01-16 13:07:14 +0000";
layers = (
{
anchors = (
{
name = top;
position = "{288, 500}";
}
);
layerId = "A69B6916-D86B-4DB4-B111-C864CDAF75E2";
paths = (
{
closed = 1;
nodes = (
"50 51 LINE SMOOTH",
"50 22 OFFCURVE",
"72 0 OFFCURVE",
"101 0 CURVE SMOOTH",
"536 0 LINE SMOOTH",
"565 0 OFFCURVE",
"587 22 OFFCURVE",
"587 51 CURVE SMOOTH",
"587 79 LINE SMOOTH",
"587 108 OFFCURVE",
"587 117 OFFCURVE",
"587 130 CURVE",
"587 137 LINE",
"587 141 OFFCURVE",
"587 134 OFFCURVE",
"587 140 CURVE SMOOTH",
"587 150 LINE SMOOTH",
"587 156 OFFCURVE",
"587 149 OFFCURVE",
"587 153 CURVE",
"587 160 LINE",
"587 170 OFFCURVE",
"587 182 OFFCURVE",
"587 211 CURVE SMOOTH",
"587 289 LINE SMOOTH",
"587 318 OFFCURVE",
"587 324 OFFCURVE",
"587 340 CURVE",
"587 344 LINE",
"587 347 OFFCURVE",
"587 344 OFFCURVE",
"587 350 CURVE SMOOTH",
"587 360 LINE SMOOTH",
"587 366 OFFCURVE",
"587 365 OFFCURVE",
"587 367 CURVE",
"587 370 LINE",
"587 379 OFFCURVE",
"587 392 OFFCURVE",
"587 421 CURVE SMOOTH",
"587 449 LINE SMOOTH",
"587 478 OFFCURVE",
"565 500 OFFCURVE",
"536 500 CURVE SMOOTH",
"101 500 LINE SMOOTH",
"72 500 OFFCURVE",
"50 478 OFFCURVE",
"50 449 CURVE SMOOTH"
);
}
);
width = 637;
},
{
anchors = (
{
name = top;
position = "{288, 500}";
}
);
layerId = "D5846C3A-916F-42E8-8837-99B20A1F62F9";
paths = (
{
closed = 1;
nodes = (
"50 51 LINE SMOOTH",
"50 22 OFFCURVE",
"72 0 OFFCURVE",
"101 0 CURVE SMOOTH",
"536 0 LINE SMOOTH",
"565 0 OFFCURVE",
"587 22 OFFCURVE",
"587 51 CURVE SMOOTH",
"587 79 LINE SMOOTH",
"587 108 OFFCURVE",
"565 130 OFFCURVE",
"536 130 CURVE SMOOTH",
"501 130 LINE SMOOTH",
"495 130 OFFCURVE",
"491 134 OFFCURVE",
"491 140 CURVE SMOOTH",
"491 150 LINE SMOOTH",
"491 156 OFFCURVE",
"495 160 OFFCURVE",
"501 160 CURVE SMOOTH",
"536 160 LINE SMOOTH",
"565 160 OFFCURVE",
"587 182 OFFCURVE",
"587 211 CURVE SMOOTH",
"587 289 LINE SMOOTH",
"587 318 OFFCURVE",
"565 340 OFFCURVE",
"536 340 CURVE SMOOTH",
"501 340 LINE SMOOTH",
"495 340 OFFCURVE",
"491 344 OFFCURVE",
"491 350 CURVE SMOOTH",
"491 360 LINE SMOOTH",
"491 366 OFFCURVE",
"495 370 OFFCURVE",
"501 370 CURVE SMOOTH",
"536 370 LINE SMOOTH",
"565 370 OFFCURVE",
"587 392 OFFCURVE",
"587 421 CURVE SMOOTH",
"587 449 LINE SMOOTH",
"587 478 OFFCURVE",
"565 500 OFFCURVE",
"536 500 CURVE SMOOTH",
"101 500 LINE SMOOTH",
"72 500 OFFCURVE",
"50 478 OFFCURVE",
"50 449 CURVE SMOOTH"
);
}
);
width = 637;
},
{
anchors = (
{
name = top;
position = "{288, 500}";
}
);
layerId = "B57C1444-1622-4D1A-A412-9270A2806B96";
paths = (
{
closed = 1;
nodes = (
"50 51 LINE SMOOTH",
"50 22 OFFCURVE",
"72 0 OFFCURVE",
"101 0 CURVE SMOOTH",
"536 0 LINE SMOOTH",
"565 0 OFFCURVE",
"587 22 OFFCURVE",
"587 51 CURVE SMOOTH",
"587 79 LINE SMOOTH",
"587 108 OFFCURVE",
"565 130 OFFCURVE",
"536 130 CURVE SMOOTH",
"323 130 LINE SMOOTH",
"316 130 OFFCURVE",
"313 134 OFFCURVE",
"313 140 CURVE SMOOTH",
"313 150 LINE SMOOTH",
"313 156 OFFCURVE",
"316 160 OFFCURVE",
"323 160 CURVE SMOOTH",
"494 160 LINE SMOOTH",
"523 160 OFFCURVE",
"545 182 OFFCURVE",
"545 211 CURVE SMOOTH",
"545 289 LINE SMOOTH",
"545 318 OFFCURVE",
"523 340 OFFCURVE",
"494 340 CURVE SMOOTH",
"323 340 LINE SMOOTH",
"316 340 OFFCURVE",
"313 344 OFFCURVE",
"313 350 CURVE SMOOTH",
"313 360 LINE SMOOTH",
"313 366 OFFCURVE",
"316 370 OFFCURVE",
"323 370 CURVE SMOOTH",
"536 370 LINE SMOOTH",
"565 370 OFFCURVE",
"587 392 OFFCURVE",
"587 421 CURVE SMOOTH",
"587 449 LINE SMOOTH",
"587 478 OFFCURVE",
"565 500 OFFCURVE",
"536 500 CURVE SMOOTH",
"101 500 LINE SMOOTH",
"72 500 OFFCURVE",
"50 478 OFFCURVE",
"50 449 CURVE SMOOTH"
);
}
);
width = 637;
},
{
anchors = (
{
name = top;
position = "{318, 500}";
}
);
layerId = "106BB046-A4A4-4FD5-B9BF-C98528C7FAAB";
paths = (
{
closed = 1;
nodes = (
"50 51 LINE SMOOTH",
"50 22 OFFCURVE",
"72 0 OFFCURVE",
"101 0 CURVE SMOOTH",
"536 0 LINE SMOOTH",
"565 0 OFFCURVE",
"587 22 OFFCURVE",
"587 51 CURVE SMOOTH",
"587 79 LINE SMOOTH",
"587 108 OFFCURVE",
"565 130 OFFCURVE",
"536 130 CURVE SMOOTH",
"194 130 LINE SMOOTH",
"188 130 OFFCURVE",
"184 134 OFFCURVE",
"184 140 CURVE SMOOTH",
"184 150 LINE SMOOTH",
"184 156 OFFCURVE",
"188 160 OFFCURVE",
"194 160 CURVE SMOOTH",
"458 160 LINE SMOOTH",
"487 160 OFFCURVE",
"509 182 OFFCURVE",
"509 211 CURVE SMOOTH",
"509 289 LINE SMOOTH",
"509 318 OFFCURVE",
"487 340 OFFCURVE",
"458 340 CURVE SMOOTH",
"194 340 LINE SMOOTH",
"188 340 OFFCURVE",
"184 344 OFFCURVE",
"184 350 CURVE SMOOTH",
"184 360 LINE SMOOTH",
"184 366 OFFCURVE",
"188 370 OFFCURVE",
"194 370 CURVE SMOOTH",
"536 370 LINE SMOOTH",
"565 370 OFFCURVE",
"587 392 OFFCURVE",
"587 421 CURVE SMOOTH",
"587 449 LINE SMOOTH",
"587 478 OFFCURVE",
"565 500 OFFCURVE",
"536 500 CURVE SMOOTH",
"101 500 LINE SMOOTH",
"72 500 OFFCURVE",
"50 478 OFFCURVE",
"50 449 CURVE SMOOTH"
);
}
);
width = 637;
}
);
unicode = 0065;
},
{
glyphname = f;
lastChange = "2023-01-16 13:07:24 +0000";
layers = (
{
layerId = "A69B6916-D86B-4DB4-B111-C864CDAF75E2";
paths = (
{
closed = 1;
nodes = (
"50 51 LINE SMOOTH",
"50 22 OFFCURVE",
"72 0 OFFCURVE",
"101 0 CURVE SMOOTH",
"129 0 LINE SMOOTH",
"158 0 OFFCURVE",
"169 0 OFFCURVE",
"179 0 CURVE",
"180 0 LINE",
"184 0 OFFCURVE",
"184 0 OFFCURVE",
"190 0 CURVE SMOOTH",
"536 0 LINE SMOOTH",
"565 0 OFFCURVE",
"587 22 OFFCURVE",
"587 51 CURVE SMOOTH",
"587 215 LINE SMOOTH",
"587 244 OFFCURVE",
"587 251 OFFCURVE",
"587 266 CURVE",
"587 269 LINE SMOOTH",
"587 275 OFFCURVE",
"587 270 OFFCURVE",
"587 276 CURVE SMOOTH",
"587 286 LINE SMOOTH",
"587 292 OFFCURVE",
"587 286 OFFCURVE",
"587 293 CURVE SMOOTH",
"587 296 LINE",
"587 309 OFFCURVE",
"587 318 OFFCURVE",
"587 347 CURVE SMOOTH",
"587 449 LINE SMOOTH",
"587 478 OFFCURVE",
"565 500 OFFCURVE",
"536 500 CURVE SMOOTH",
"101 500 LINE SMOOTH",
"72 500 OFFCURVE",
"50 478 OFFCURVE",
"50 449 CURVE SMOOTH"
);
}
);
width = 637;
},
{
layerId = "D5846C3A-916F-42E8-8837-99B20A1F62F9";
paths = (
{
closed = 1;
nodes = (
"50 51 LINE SMOOTH",
"50 23 OFFCURVE",
"72 0 OFFCURVE",
"101 0 CURVE SMOOTH",
"129 0 LINE SMOOTH",
"158 0 OFFCURVE",
"180 -1 OFFCURVE",
"180 8 CURVE SMOOTH",
"180 10 LINE SMOOTH",
"180 15 OFFCURVE",
"184 20 OFFCURVE",
"190 20 CURVE SMOOTH",
"535 20 LINE SMOOTH",
"565 20 OFFCURVE",
"587 42 OFFCURVE",
"587 71 CURVE SMOOTH",
"587 216 LINE SMOOTH",
"587 245 OFFCURVE",
"565 266 OFFCURVE",
"535 266 CURVE SMOOTH",
"526 266 LINE SMOOTH",
"521 266 OFFCURVE",
"516 270 OFFCURVE",
"516 275 CURVE SMOOTH",
"516 285 LINE SMOOTH",
"516 292 OFFCURVE",
"521 295 OFFCURVE",
"526 295 CURVE SMOOTH",
"535 295 LINE SMOOTH",
"565 295 OFFCURVE",
"587 319 OFFCURVE",
"587 348 CURVE SMOOTH",
"587 450 LINE SMOOTH",
"587 479 OFFCURVE",
"565 500 OFFCURVE",
"535 500 CURVE SMOOTH",
"101 500 LINE SMOOTH",
"72 500 OFFCURVE",
"50 479 OFFCURVE",
"50 450 CURVE SMOOTH"
);
}
);
width = 637;
},
{
layerId = "B57C1444-1622-4D1A-A412-9270A2806B96";
paths = (
{
closed = 1;
nodes = (
"50 51 LINE SMOOTH",
"50 22 OFFCURVE",
"72 0 OFFCURVE",
"101 0 CURVE SMOOTH",
"129 0 LINE SMOOTH",
"158 0 OFFCURVE",
"180 1 OFFCURVE",
"180 29 CURVE SMOOTH",
"180 31 LINE SMOOTH",
"180 36 OFFCURVE",
"184 41 OFFCURVE",
"190 41 CURVE SMOOTH",
"463 41 LINE SMOOTH",
"492 41 OFFCURVE",
"514 63 OFFCURVE",
"514 91 CURVE SMOOTH",
"514 215 LINE SMOOTH",
"514 244 OFFCURVE",
"492 266 OFFCURVE",
"463 266 CURVE SMOOTH",
"326 266 LINE SMOOTH",
"320 266 OFFCURVE",
"316 270 OFFCURVE",
"316 276 CURVE SMOOTH",
"316 286 LINE SMOOTH",
"316 292 OFFCURVE",
"320 296 OFFCURVE",
"326 296 CURVE SMOOTH",
"536 296 LINE SMOOTH",
"565 296 OFFCURVE",
"587 318 OFFCURVE",
"587 347 CURVE SMOOTH",
"587 449 LINE SMOOTH",
"587 478 OFFCURVE",
"565 500 OFFCURVE",
"536 500 CURVE SMOOTH",
"101 500 LINE SMOOTH",
"72 500 OFFCURVE",
"50 478 OFFCURVE",
"50 449 CURVE SMOOTH"
);
}
);
width = 637;
},
{
layerId = "106BB046-A4A4-4FD5-B9BF-C98528C7FAAB";
paths = (
{
closed = 1;
nodes = (
"50 51 LINE SMOOTH",
"50 22 OFFCURVE",
"72 0 OFFCURVE",
"101 0 CURVE SMOOTH",
"129 0 LINE SMOOTH",
"158 0 OFFCURVE",
"180 22 OFFCURVE",
"180 51 CURVE SMOOTH",
"180 52 LINE SMOOTH",
"180 58 OFFCURVE",
"184 62 OFFCURVE",
"190 62 CURVE SMOOTH",
"406 62 LINE SMOOTH",
"435 62 OFFCURVE",
"457 84 OFFCURVE",
"457 113 CURVE SMOOTH",
"457 215 LINE SMOOTH",
"457 244 OFFCURVE",
"435 266 OFFCURVE",
"406 266 CURVE SMOOTH",
"190 266 LINE SMOOTH",
"184 266 OFFCURVE",
"180 270 OFFCURVE",
"180 276 CURVE SMOOTH",
"180 286 LINE SMOOTH",
"180 292 OFFCURVE",
"184 296 OFFCURVE",
"190 296 CURVE SMOOTH",
"536 296 LINE SMOOTH",
"565 296 OFFCURVE",
"587 318 OFFCURVE",
"587 347 CURVE SMOOTH",
"587 449 LINE SMOOTH",
"587 478 OFFCURVE",
"565 500 OFFCURVE",
"536 500 CURVE SMOOTH",
"101 500 LINE SMOOTH",
"72 500 OFFCURVE",
"50 478 OFFCURVE",
"50 449 CURVE SMOOTH"
);
}
);
width = 637;
}
);
unicode = 0066;
},
{
glyphname = g;
lastChange = "2023-01-16 13:07:36 +0000";
layers = (
{
layerId = "A69B6916-D86B-4DB4-B111-C864CDAF75E2";
paths = (
{
closed = 1;
nodes = (
"50 82 LINE SMOOTH",
"50 35 OFFCURVE",
"85 0 OFFCURVE",
"132 0 CURVE SMOOTH",
"505 0 LINE SMOOTH",
"552 0 OFFCURVE",
"587 35 OFFCURVE",
"587 82 CURVE SMOOTH",
"587 169 LINE SMOOTH",
"587 198 OFFCURVE",
"587 166 OFFCURVE",
"587 196 CURVE",
"587 200 LINE",
"587 206 OFFCURVE",
"587 206 OFFCURVE",
"587 210 CURVE",
"587 211 LINE",
"587 216 OFFCURVE",
"587 209 OFFCURVE",
"587 211 CURVE",
"587 212 LINE",
"587 213 OFFCURVE",
"587 211 OFFCURVE",
"587 214 CURVE",
"587 214 LINE",
"587 216 OFFCURVE",
"587 211 OFFCURVE",
"587 217 CURVE",
"587 220 LINE SMOOTH",
"587 226 OFFCURVE",
"587 224 OFFCURVE",
"587 229 CURVE SMOOTH",
"587 240 LINE SMOOTH",
"587 246 OFFCURVE",
"587 244 OFFCURVE",
"587 248 CURVE",
"587 250 LINE",
"587 266 OFFCURVE",
"587 272 OFFCURVE",
"587 301 CURVE SMOOTH",
"587 449 LINE SMOOTH",
"587 478 OFFCURVE",
"565 500 OFFCURVE",
"536 500 CURVE SMOOTH",
"132 500 LINE SMOOTH",
"85 500 OFFCURVE",
"50 465 OFFCURVE",
"50 418 CURVE SMOOTH"
);
}
);
width = 637;
},
{
layerId = "D5846C3A-916F-42E8-8837-99B20A1F62F9";
paths = (
{
closed = 1;
nodes = (
"50 82 LINE SMOOTH",
"50 35 OFFCURVE",
"85 0 OFFCURVE",
"132 0 CURVE SMOOTH",
"505 0 LINE SMOOTH",
"552 0 OFFCURVE",
"587 35 OFFCURVE",
"587 82 CURVE SMOOTH",
"587 169 LINE SMOOTH",
"587 198 OFFCURVE",
"565 220 OFFCURVE",
"536 220 CURVE SMOOTH",
"427 220 LINE SMOOTH",
"421 220 OFFCURVE",
"421 220 OFFCURVE",
"417 220 CURVE",
"416 220 LINE SMOOTH",
"411 220 OFFCURVE",
"418 220 OFFCURVE",
"416 220 CURVE",
"415 220 LINE",
"414 220 OFFCURVE",
"416 220 OFFCURVE",
"414 220 CURVE",
"413 220 LINE",
"411 220 OFFCURVE",
"413 220 OFFCURVE",
"407 220 CURVE SMOOTH",
"397 220 LINE SMOOTH",
"391 220 OFFCURVE",
"387 224 OFFCURVE",
"387 229 CURVE SMOOTH",
"387 240 LINE SMOOTH",
"387 246 OFFCURVE",
"391 250 OFFCURVE",
"397 250 CURVE SMOOTH",
"536 250 LINE SMOOTH",
"565 250 OFFCURVE",
"587 272 OFFCURVE",
"587 301 CURVE SMOOTH",
"587 449 LINE SMOOTH",
"587 478 OFFCURVE",
"565 500 OFFCURVE",
"536 500 CURVE SMOOTH",
"132 500 LINE SMOOTH",
"85 500 OFFCURVE",
"50 465 OFFCURVE",
"50 418 CURVE SMOOTH"
);
}
);
width = 637;
},
{
layerId = "B57C1444-1622-4D1A-A412-9270A2806B96";
paths = (
{
closed = 1;
nodes = (
"50 82 LINE SMOOTH",
"50 35 OFFCURVE",
"85 0 OFFCURVE",
"132 0 CURVE SMOOTH",
"505 0 LINE SMOOTH",
"552 0 OFFCURVE",
"587 35 OFFCURVE",
"587 82 CURVE SMOOTH",
"587 169 LINE SMOOTH",
"587 198 OFFCURVE",
"565 220 OFFCURVE",
"536 220 CURVE SMOOTH",
"220 220 LINE SMOOTH",
"214 220 OFFCURVE",
"210 216 OFFCURVE",
"210 210 CURVE SMOOTH",
"210 200 LINE SMOOTH",
"210 194 OFFCURVE",
"210 192 OFFCURVE",
"210 190 CURVE",
"210 189 LINE SMOOTH",
"210 184 OFFCURVE",
"210 186 OFFCURVE",
"210 180 CURVE SMOOTH",
"210 170 LINE SMOOTH",
"210 164 OFFCURVE",
"206 160 OFFCURVE",
"200 160 CURVE SMOOTH",
"190 160 LINE SMOOTH",
"184 160 OFFCURVE",
"180 164 OFFCURVE",
"180 170 CURVE SMOOTH",
"180 240 LINE SMOOTH",
"180 246 OFFCURVE",
"184 250 OFFCURVE",
"190 250 CURVE SMOOTH",
"536 250 LINE SMOOTH",
"565 250 OFFCURVE",
"587 272 OFFCURVE",
"587 301 CURVE SMOOTH",
"587 449 LINE SMOOTH",
"587 478 OFFCURVE",
"565 500 OFFCURVE",
"536 500 CURVE SMOOTH",
"132 500 LINE SMOOTH",
"85 500 OFFCURVE",
"50 465 OFFCURVE",
"50 418 CURVE SMOOTH"
);
}
);
width = 637;
},
{
layerId = "106BB046-A4A4-4FD5-B9BF-C98528C7FAAB";
paths = (
{
closed = 1;
nodes = (
"50 82 LINE SMOOTH",
"50 35 OFFCURVE",
"85 0 OFFCURVE",
"132 0 CURVE SMOOTH",
"505 0 LINE SMOOTH",
"552 0 OFFCURVE",
"587 35 OFFCURVE",
"587 82 CURVE SMOOTH",
"587 169 LINE SMOOTH",
"587 198 OFFCURVE",
"565 220 OFFCURVE",
"536 220 CURVE SMOOTH",
"220 220 LINE SMOOTH",
"214 220 OFFCURVE",
"210 216 OFFCURVE",
"210 210 CURVE SMOOTH",
"210 200 LINE SMOOTH",
"210 194 OFFCURVE",
"214 190 OFFCURVE",
"220 190 CURVE SMOOTH",
"447 190 LINE SMOOTH",
"453 190 OFFCURVE",
"457 186 OFFCURVE",
"457 180 CURVE SMOOTH",
"457 170 LINE SMOOTH",
"457 164 OFFCURVE",
"453 160 OFFCURVE",
"447 160 CURVE SMOOTH",
"190 160 LINE SMOOTH",
"184 160 OFFCURVE",
"180 164 OFFCURVE",
"180 170 CURVE SMOOTH",
"180 240 LINE SMOOTH",
"180 246 OFFCURVE",
"184 250 OFFCURVE",
"190 250 CURVE SMOOTH",
"536 250 LINE SMOOTH",
"565 250 OFFCURVE",
"587 272 OFFCURVE",
"587 301 CURVE SMOOTH",
"587 449 LINE SMOOTH",
"587 478 OFFCURVE",
"565 500 OFFCURVE",
"536 500 CURVE SMOOTH",
"132 500 LINE SMOOTH",
"85 500 OFFCURVE",
"50 465 OFFCURVE",
"50 418 CURVE SMOOTH"
);
}
);
width = 637;
}
);
unicode = 0067;
},
{
glyphname = h;
lastChange = "2023-01-16 13:07:48 +0000";
layers = (
{
layerId = "A69B6916-D86B-4DB4-B111-C864CDAF75E2";
paths = (
{
closed = 1;
nodes = (
"50 51 LINE SMOOTH",
"50 22 OFFCURVE",
"72 0 OFFCURVE",
"101 0 CURVE SMOOTH",
"253 0 LINE SMOOTH",
"282 0 OFFCURVE",
"293 0 OFFCURVE",
"302 0 CURVE",
"304 0 LINE",
"308 0 OFFCURVE",
"308 0 OFFCURVE",
"314 0 CURVE SMOOTH",
"324 0 LINE SMOOTH",
"330 0 OFFCURVE",
"330 0 OFFCURVE",
"334 0 CURVE",
"336 0 LINE",
"345 0 OFFCURVE",
"355 0 OFFCURVE",
"385 0 CURVE SMOOTH",
"535 0 LINE SMOOTH",
"565 0 OFFCURVE",
"587 22 OFFCURVE",
"587 51 CURVE SMOOTH",
"587 449 LINE SMOOTH",
"587 477 OFFCURVE",
"565 500 OFFCURVE",
"535 500 CURVE SMOOTH",
"385 500 LINE SMOOTH",
"355 500 OFFCURVE",
"355 500 OFFCURVE",
"341 500 CURVE",
"334 500 LINE SMOOTH",
"328 500 OFFCURVE",
"330 500 OFFCURVE",
"324 500 CURVE SMOOTH",
"314 500 LINE SMOOTH",
"308 500 OFFCURVE",
"310 500 OFFCURVE",
"304 500 CURVE SMOOTH",
"300 500 LINE",
"289 500 OFFCURVE",
"282 500 OFFCURVE",
"253 500 CURVE SMOOTH",
"101 500 LINE SMOOTH",
"72 500 OFFCURVE",
"50 477 OFFCURVE",
"50 449 CURVE SMOOTH"
);
}
);
width = 637;
},
{
layerId = "D5846C3A-916F-42E8-8837-99B20A1F62F9";
paths = (
{
closed = 1;
nodes = (
"50 51 LINE SMOOTH",
"50 22 OFFCURVE",
"72 0 OFFCURVE",
"101 0 CURVE SMOOTH",
"253 0 LINE SMOOTH",
"282 0 OFFCURVE",
"304 22 OFFCURVE",
"304 51 CURVE SMOOTH",
"304 61 LINE SMOOTH",
"304 66 OFFCURVE",
"308 71 OFFCURVE",
"314 71 CURVE SMOOTH",
"324 71 LINE SMOOTH",
"330 71 OFFCURVE",
"334 66 OFFCURVE",
"334 61 CURVE SMOOTH",
"334 51 LINE SMOOTH",
"334 22 OFFCURVE",
"356 0 OFFCURVE",
"385 0 CURVE SMOOTH",
"536 0 LINE SMOOTH",
"565 0 OFFCURVE",
"587 22 OFFCURVE",
"587 51 CURVE SMOOTH",
"587 449 LINE SMOOTH",
"587 478 OFFCURVE",
"565 500 OFFCURVE",
"536 500 CURVE SMOOTH",
"385 500 LINE SMOOTH",
"356 500 OFFCURVE",
"334 478 OFFCURVE",
"334 449 CURVE SMOOTH",
"334 440 LINE SMOOTH",
"334 434 OFFCURVE",
"330 430 OFFCURVE",
"324 430 CURVE SMOOTH",
"314 430 LINE SMOOTH",
"308 430 OFFCURVE",
"304 434 OFFCURVE",
"304 440 CURVE SMOOTH",
"304 449 LINE SMOOTH",
"304 478 OFFCURVE",
"282 500 OFFCURVE",
"253 500 CURVE SMOOTH",
"101 500 LINE SMOOTH",
"72 500 OFFCURVE",
"50 478 OFFCURVE",
"50 449 CURVE SMOOTH"
);
}
);
width = 637;
},
{
layerId = "B57C1444-1622-4D1A-A412-9270A2806B96";
paths = (
{
closed = 1;
nodes = (
"50 51 LINE SMOOTH",
"50 22 OFFCURVE",
"72 0 OFFCURVE",
"101 0 CURVE SMOOTH",
"253 0 LINE SMOOTH",
"282 0 OFFCURVE",
"304 22 OFFCURVE",
"304 51 CURVE SMOOTH",
"304 147 LINE SMOOTH",
"304 152 OFFCURVE",
"308 157 OFFCURVE",
"314 157 CURVE SMOOTH",
"324 157 LINE SMOOTH",
"330 157 OFFCURVE",
"335 152 OFFCURVE",
"335 147 CURVE SMOOTH",
"335 51 LINE SMOOTH",
"335 22 OFFCURVE",
"356 0 OFFCURVE",
"385 0 CURVE SMOOTH",
"536 0 LINE SMOOTH",
"565 0 OFFCURVE",
"588 22 OFFCURVE",
"588 51 CURVE SMOOTH",
"588 450 LINE SMOOTH",
"588 478 OFFCURVE",
"565 500 OFFCURVE",
"536 500 CURVE SMOOTH",
"385 500 LINE SMOOTH",
"356 500 OFFCURVE",
"335 478 OFFCURVE",
"335 450 CURVE SMOOTH",
"335 354 LINE SMOOTH",
"335 348 OFFCURVE",
"330 344 OFFCURVE",
"324 344 CURVE SMOOTH",
"314 344 LINE SMOOTH",
"308 344 OFFCURVE",
"304 348 OFFCURVE",
"304 354 CURVE SMOOTH",
"304 450 LINE SMOOTH",
"304 478 OFFCURVE",
"282 500 OFFCURVE",
"253 500 CURVE SMOOTH",
"101 500 LINE SMOOTH",
"72 500 OFFCURVE",
"50 478 OFFCURVE",
"50 450 CURVE SMOOTH"
);
}
);
width = 638;
},
{
layerId = "106BB046-A4A4-4FD5-B9BF-C98528C7FAAB";
paths = (
{
closed = 1;
nodes = (
"50 51 LINE SMOOTH",
"50 22 OFFCURVE",
"72 0 OFFCURVE",
"101 0 CURVE SMOOTH",
"253 0 LINE SMOOTH",
"282 0 OFFCURVE",
"304 22 OFFCURVE",
"304 51 CURVE SMOOTH",
"304 225 LINE SMOOTH",
"304 231 OFFCURVE",
"308 235 OFFCURVE",
"314 235 CURVE SMOOTH",
"324 235 LINE SMOOTH",
"330 235 OFFCURVE",
"334 231 OFFCURVE",
"334 225 CURVE SMOOTH",
"334 51 LINE SMOOTH",
"334 22 OFFCURVE",
"356 0 OFFCURVE",
"385 0 CURVE SMOOTH",
"536 0 LINE SMOOTH",
"565 0 OFFCURVE",
"587 22 OFFCURVE",
"587 51 CURVE SMOOTH",
"587 449 LINE SMOOTH",
"587 478 OFFCURVE",
"565 500 OFFCURVE",
"536 500 CURVE SMOOTH",
"385 500 LINE SMOOTH",
"356 500 OFFCURVE",
"334 478 OFFCURVE",
"334 449 CURVE SMOOTH",
"334 275 LINE SMOOTH",
"334 269 OFFCURVE",
"330 265 OFFCURVE",
"324 265 CURVE SMOOTH",
"314 265 LINE SMOOTH",
"308 265 OFFCURVE",
"304 269 OFFCURVE",
"304 275 CURVE SMOOTH",
"304 449 LINE SMOOTH",
"304 478 OFFCURVE",
"282 500 OFFCURVE",
"253 500 CURVE SMOOTH",
"101 500 LINE SMOOTH",
"72 500 OFFCURVE",
"50 478 OFFCURVE",
"50 449 CURVE SMOOTH"
);
}
);
width = 637;
}
);
unicode = 0068;
},
{
glyphname = i;
lastChange = "2022-11-29 16:10:27 +0000";
layers = (
{
layerId = "A69B6916-D86B-4DB4-B111-C864CDAF75E2";
paths = (
{
closed = 1;
nodes = (
"50 51 LINE SMOOTH",
"50 22 OFFCURVE",
"72 0 OFFCURVE",
"101 0 CURVE SMOOTH",
"536 0 LINE SMOOTH",
"565 0 OFFCURVE",
"587 22 OFFCURVE",
"587 51 CURVE SMOOTH",
"587 449 LINE SMOOTH",
"587 478 OFFCURVE",
"565 500 OFFCURVE",
"536 500 CURVE SMOOTH",
"101 500 LINE SMOOTH",
"72 500 OFFCURVE",
"50 478 OFFCURVE",
"50 449 CURVE SMOOTH"
);
}
);
width = 637;
},
{
layerId = "D5846C3A-916F-42E8-8837-99B20A1F62F9";
paths = (
{
closed = 1;
nodes = (
"50 51 LINE SMOOTH",
"50 22 OFFCURVE",
"72 0 OFFCURVE",
"101 0 CURVE SMOOTH",
"434 0 LINE SMOOTH",
"464 0 OFFCURVE",
"486 22 OFFCURVE",
"486 51 CURVE SMOOTH",
"486 449 LINE SMOOTH",
"486 478 OFFCURVE",
"464 500 OFFCURVE",
"434 500 CURVE SMOOTH",
"101 500 LINE SMOOTH",
"72 500 OFFCURVE",
"50 478 OFFCURVE",
"50 449 CURVE SMOOTH"
);
}
);
width = 536;
},
{
layerId = "B57C1444-1622-4D1A-A412-9270A2806B96";
paths = (
{
closed = 1;
nodes = (
"50 51 LINE SMOOTH",
"50 22 OFFCURVE",
"72 0 OFFCURVE",
"101 0 CURVE SMOOTH",
"327 0 LINE SMOOTH",
"356 0 OFFCURVE",
"379 22 OFFCURVE",
"379 51 CURVE SMOOTH",
"379 449 LINE SMOOTH",
"379 478 OFFCURVE",
"356 500 OFFCURVE",
"327 500 CURVE SMOOTH",
"101 500 LINE SMOOTH",
"72 500 OFFCURVE",
"50 478 OFFCURVE",
"50 449 CURVE SMOOTH"
);
}
);
width = 429;
},
{
layerId = "106BB046-A4A4-4FD5-B9BF-C98528C7FAAB";
paths = (
{
closed = 1;
nodes = (
"50 51 LINE SMOOTH",
"50 22 OFFCURVE",
"72 0 OFFCURVE",
"101 0 CURVE SMOOTH",
"239 0 LINE SMOOTH",
"268 0 OFFCURVE",
"290 22 OFFCURVE",
"290 51 CURVE SMOOTH",
"290 449 LINE SMOOTH",
"290 478 OFFCURVE",
"268 500 OFFCURVE",
"239 500 CURVE SMOOTH",
"101 500 LINE SMOOTH",
"72 500 OFFCURVE",
"50 478 OFFCURVE",
"50 449 CURVE SMOOTH"
);
}
);
width = 340;
}
);
unicode = 0069;
},
{
glyphname = j;
lastChange = "2023-01-16 13:37:12 +0000";
layers = (
{
layerId = "A69B6916-D86B-4DB4-B111-C864CDAF75E2";
paths = (
{
closed = 1;
nodes = (
"587 51 LINE SMOOTH",
"587 22 OFFCURVE",
"565 0 OFFCURVE",
"536 0 CURVE SMOOTH",
"101 0 LINE SMOOTH",
"72 0 OFFCURVE",
"50 22 OFFCURVE",
"50 51 CURVE SMOOTH",
"50 450 LINE SMOOTH",
"50 479 OFFCURVE",
"72 500 OFFCURVE",
"101 500 CURVE SMOOTH",
"129 500 LINE SMOOTH",
"158 500 OFFCURVE",
"171 500 OFFCURVE",
"175 500 CURVE",
"180 500 LINE SMOOTH",
"185 500 OFFCURVE",
"184 500 OFFCURVE",
"190 500 CURVE SMOOTH",
"200 500 LINE SMOOTH",
"206 500 OFFCURVE",
"204 500 OFFCURVE",
"210 500 CURVE SMOOTH",
"214 500 LINE",
"226 500 OFFCURVE",
"232 500 OFFCURVE",
"261 500 CURVE SMOOTH",
"536 500 LINE SMOOTH",
"565 500 OFFCURVE",
"587 478 OFFCURVE",
"587 450 CURVE SMOOTH"
);
}
);
width = 637;
},
{
layerId = "D5846C3A-916F-42E8-8837-99B20A1F62F9";
paths = (
{
closed = 1;
nodes = (
"587 51 LINE SMOOTH",
"587 22 OFFCURVE",
"565 0 OFFCURVE",
"536 0 CURVE SMOOTH",
"101 0 LINE SMOOTH",
"72 0 OFFCURVE",
"50 22 OFFCURVE",
"50 51 CURVE SMOOTH",
"50 449 LINE SMOOTH",
"50 479 OFFCURVE",
"72 500 OFFCURVE",
"101 500 CURVE SMOOTH",
"129 500 LINE SMOOTH",
"158 500 OFFCURVE",
"180 479 OFFCURVE",
"180 449 CURVE SMOOTH",
"180 440 LINE SMOOTH",
"180 434 OFFCURVE",
"184 430 OFFCURVE",
"190 430 CURVE SMOOTH",
"200 430 LINE SMOOTH",
"206 430 OFFCURVE",
"210 434 OFFCURVE",
"210 440 CURVE SMOOTH",
"210 449 LINE SMOOTH",
"210 478 OFFCURVE",
"232 500 OFFCURVE",
"261 500 CURVE SMOOTH",
"536 500 LINE SMOOTH",
"565 500 OFFCURVE",
"587 478 OFFCURVE",
"587 449 CURVE SMOOTH"
);
}
);
width = 637;
},
{
layerId = "B57C1444-1622-4D1A-A412-9270A2806B96";
paths = (
{
closed = 1;
nodes = (
"587 51 LINE SMOOTH",
"587 22 OFFCURVE",
"565 0 OFFCURVE",
"536 0 CURVE SMOOTH",
"101 0 LINE SMOOTH",
"72 0 OFFCURVE",
"50 22 OFFCURVE",
"50 51 CURVE SMOOTH",
"50 418 LINE SMOOTH",
"50 447 OFFCURVE",
"72 469 OFFCURVE",
"101 469 CURVE SMOOTH",
"129 469 LINE SMOOTH",
"158 469 OFFCURVE",
"180 447 OFFCURVE",
"180 418 CURVE SMOOTH",
"180 283 LINE SMOOTH",
"180 277 OFFCURVE",
"184 273 OFFCURVE",
"190 273 CURVE SMOOTH",
"200 273 LINE SMOOTH",
"206 273 OFFCURVE",
"210 277 OFFCURVE",
"210 283 CURVE SMOOTH",
"210 449 LINE SMOOTH",
"210 478 OFFCURVE",
"232 500 OFFCURVE",
"261 500 CURVE SMOOTH",
"536 500 LINE SMOOTH",
"565 500 OFFCURVE",
"587 478 OFFCURVE",
"587 449 CURVE SMOOTH"
);
}
);
width = 637;
},
{
layerId = "106BB046-A4A4-4FD5-B9BF-C98528C7FAAB";
paths = (
{
closed = 1;
nodes = (
"587 51 LINE SMOOTH",
"587 22 OFFCURVE",
"565 0 OFFCURVE",
"536 0 CURVE SMOOTH",
"101 0 LINE SMOOTH",
"72 0 OFFCURVE",
"50 22 OFFCURVE",
"50 51 CURVE SMOOTH",
"50 375 LINE SMOOTH",
"50 404 OFFCURVE",
"72 426 OFFCURVE",
"101 426 CURVE SMOOTH",
"129 426 LINE SMOOTH",
"158 426 OFFCURVE",
"180 404 OFFCURVE",
"180 375 CURVE SMOOTH",
"180 140 LINE SMOOTH",
"180 134 OFFCURVE",
"184 130 OFFCURVE",
"190 130 CURVE SMOOTH",
"200 130 LINE SMOOTH",
"206 130 OFFCURVE",
"210 134 OFFCURVE",
"210 140 CURVE SMOOTH",
"210 449 LINE SMOOTH",
"210 478 OFFCURVE",
"232 500 OFFCURVE",
"261 500 CURVE SMOOTH",
"536 500 LINE SMOOTH",
"565 500 OFFCURVE",
"587 478 OFFCURVE",
"587 449 CURVE SMOOTH"
);
}
);
width = 637;
}
);
unicode = 006A;
},
{
glyphname = k;
lastChange = "2023-01-16 13:08:52 +0000";
layers = (
{
layerId = "A69B6916-D86B-4DB4-B111-C864CDAF75E2";
paths = (
{
closed = 1;
nodes = (
"50 51 LINE SMOOTH",
"50 22 OFFCURVE",
"72 0 OFFCURVE",
"101 0 CURVE SMOOTH",
"129 0 LINE SMOOTH",
"158 0 OFFCURVE",
"164 0 OFFCURVE",
"177 0 CURVE",
"180 0 LINE SMOOTH",
"185 0 OFFCURVE",
"184 0 OFFCURVE",
"190 0 CURVE SMOOTH",
"200 0 LINE SMOOTH",
"206 0 OFFCURVE",
"205 0 OFFCURVE",
"210 0 CURVE SMOOTH",
"213 0 LINE",
"221 0 OFFCURVE",
"232 0 OFFCURVE",
"261 0 CURVE SMOOTH",
"536 0 LINE SMOOTH",
"565 0 OFFCURVE",
"587 22 OFFCURVE",
"587 51 CURVE SMOOTH",
"587 184 LINE SMOOTH",
"587 213 OFFCURVE",
"587 209 OFFCURVE",
"587 231 CURVE",
"587 235 LINE SMOOTH",
"587 241 OFFCURVE",
"587 239 OFFCURVE",
"587 245 CURVE SMOOTH",
"587 255 LINE SMOOTH",
"587 261 OFFCURVE",
"587 259 OFFCURVE",
"587 265 CURVE SMOOTH",
"587 269 LINE",
"587 284 OFFCURVE",
"587 287 OFFCURVE",
"587 316 CURVE SMOOTH",
"587 449 LINE SMOOTH",
"587 478 OFFCURVE",
"565 500 OFFCURVE",
"536 500 CURVE SMOOTH",
"261 500 LINE SMOOTH",
"232 500 OFFCURVE",
"228 500 OFFCURVE",
"214 500 CURVE",
"210 500 LINE SMOOTH",
"204 500 OFFCURVE",
"206 500 OFFCURVE",
"200 500 CURVE SMOOTH",
"190 500 LINE SMOOTH",
"184 500 OFFCURVE",
"185 500 OFFCURVE",
"180 500 CURVE SMOOTH",
"176 500 LINE",
"163 500 OFFCURVE",
"158 500 OFFCURVE",
"129 500 CURVE SMOOTH",
"101 500 LINE SMOOTH",
"72 500 OFFCURVE",
"50 478 OFFCURVE",
"50 449 CURVE SMOOTH"
);
}
);
width = 637;
},
{
layerId = "D5846C3A-916F-42E8-8837-99B20A1F62F9";
paths = (
{
closed = 1;
nodes = (
"50 51 LINE SMOOTH",
"50 22 OFFCURVE",
"72 0 OFFCURVE",
"101 0 CURVE SMOOTH",
"129 0 LINE SMOOTH",
"158 0 OFFCURVE",
"180 22 OFFCURVE",
"180 51 CURVE SMOOTH",
"180 61 LINE SMOOTH",
"180 66 OFFCURVE",
"184 71 OFFCURVE",
"190 71 CURVE SMOOTH",
"200 71 LINE SMOOTH",
"206 71 OFFCURVE",
"210 66 OFFCURVE",
"210 61 CURVE SMOOTH",
"210 51 LINE SMOOTH",
"210 22 OFFCURVE",
"232 0 OFFCURVE",
"261 0 CURVE SMOOTH",
"536 0 LINE SMOOTH",
"565 0 OFFCURVE",
"587 22 OFFCURVE",
"587 51 CURVE SMOOTH",
"587 184 LINE SMOOTH",
"587 213 OFFCURVE",
"565 235 OFFCURVE",
"536 235 CURVE SMOOTH",
"529 235 LINE SMOOTH",
"523 235 OFFCURVE",
"519 239 OFFCURVE",
"519 245 CURVE SMOOTH",
"519 255 LINE SMOOTH",
"519 261 OFFCURVE",
"523 265 OFFCURVE",
"529 265 CURVE SMOOTH",
"536 265 LINE SMOOTH",
"565 265 OFFCURVE",
"587 287 OFFCURVE",
"587 316 CURVE SMOOTH",
"587 449 LINE SMOOTH",
"587 478 OFFCURVE",
"565 500 OFFCURVE",
"536 500 CURVE SMOOTH",
"261 500 LINE SMOOTH",
"232 500 OFFCURVE",
"210 478 OFFCURVE",
"210 449 CURVE SMOOTH",
"210 446 LINE SMOOTH",
"210 440 OFFCURVE",
"206 436 OFFCURVE",
"200 436 CURVE SMOOTH",
"190 436 LINE SMOOTH",
"184 436 OFFCURVE",
"180 440 OFFCURVE",
"180 446 CURVE SMOOTH",
"180 449 LINE SMOOTH",
"180 478 OFFCURVE",
"158 500 OFFCURVE",
"129 500 CURVE SMOOTH",
"101 500 LINE SMOOTH",
"72 500 OFFCURVE",
"50 478 OFFCURVE",
"50 449 CURVE SMOOTH"
);
}
);
width = 637;
},
{
layerId = "B57C1444-1622-4D1A-A412-9270A2806B96";
paths = (
{
closed = 1;
nodes = (
"50 51 LINE SMOOTH",
"50 22 OFFCURVE",
"72 0 OFFCURVE",
"101 0 CURVE SMOOTH",
"129 0 LINE SMOOTH",
"158 0 OFFCURVE",
"180 22 OFFCURVE",
"180 51 CURVE SMOOTH",
"180 139 LINE SMOOTH",
"180 145 OFFCURVE",
"184 149 OFFCURVE",
"190 149 CURVE SMOOTH",
"200 149 LINE SMOOTH",
"206 149 OFFCURVE",
"210 145 OFFCURVE",
"210 139 CURVE SMOOTH",
"210 51 LINE SMOOTH",
"210 22 OFFCURVE",
"232 0 OFFCURVE",
"261 0 CURVE SMOOTH",
"536 0 LINE SMOOTH",
"565 0 OFFCURVE",
"587 22 OFFCURVE",
"587 51 CURVE SMOOTH",
"587 184 LINE SMOOTH",
"587 213 OFFCURVE",
"565 235 OFFCURVE",
"536 235 CURVE SMOOTH",
"386 235 LINE SMOOTH",
"380 235 OFFCURVE",
"376 239 OFFCURVE",
"376 245 CURVE SMOOTH",
"376 255 LINE SMOOTH",
"376 261 OFFCURVE",
"380 265 OFFCURVE",
"386 265 CURVE SMOOTH",
"536 265 LINE SMOOTH",
"565 265 OFFCURVE",
"587 287 OFFCURVE",
"587 316 CURVE SMOOTH",
"587 449 LINE SMOOTH",
"587 478 OFFCURVE",
"565 500 OFFCURVE",
"536 500 CURVE SMOOTH",
"261 500 LINE SMOOTH",
"232 500 OFFCURVE",
"210 478 OFFCURVE",
"210 449 CURVE SMOOTH",
"210 361 LINE SMOOTH",
"210 355 OFFCURVE",
"206 351 OFFCURVE",
"200 351 CURVE SMOOTH",
"190 351 LINE SMOOTH",
"184 351 OFFCURVE",
"180 355 OFFCURVE",
"180 361 CURVE SMOOTH",
"180 449 LINE SMOOTH",
"180 478 OFFCURVE",
"158 500 OFFCURVE",
"129 500 CURVE SMOOTH",
"101 500 LINE SMOOTH",
"72 500 OFFCURVE",
"50 478 OFFCURVE",
"50 449 CURVE SMOOTH"
);
}
);
width = 637;
},
{
layerId = "106BB046-A4A4-4FD5-B9BF-C98528C7FAAB";
paths = (
{
closed = 1;
nodes = (
"50 51 LINE SMOOTH",
"50 22 OFFCURVE",
"72 0 OFFCURVE",
"101 0 CURVE SMOOTH",
"129 0 LINE SMOOTH",
"158 0 OFFCURVE",
"180 22 OFFCURVE",
"180 51 CURVE SMOOTH",
"180 225 LINE SMOOTH",
"180 231 OFFCURVE",
"184 235 OFFCURVE",
"190 235 CURVE SMOOTH",
"200 235 LINE SMOOTH",
"206 235 OFFCURVE",
"210 231 OFFCURVE",
"210 225 CURVE SMOOTH",
"210 51 LINE SMOOTH",
"210 22 OFFCURVE",
"232 0 OFFCURVE",
"261 0 CURVE SMOOTH",
"536 0 LINE SMOOTH",
"565 0 OFFCURVE",
"587 22 OFFCURVE",
"587 51 CURVE SMOOTH",
"587 184 LINE SMOOTH",
"587 213 OFFCURVE",
"565 235 OFFCURVE",
"536 235 CURVE SMOOTH",
"250 235 LINE SMOOTH",
"244 235 OFFCURVE",
"240 239 OFFCURVE",
"240 245 CURVE SMOOTH",
"240 255 LINE SMOOTH",
"240 261 OFFCURVE",
"244 265 OFFCURVE",
"250 265 CURVE SMOOTH",
"536 265 LINE SMOOTH",
"565 265 OFFCURVE",
"587 287 OFFCURVE",
"587 316 CURVE SMOOTH",
"587 449 LINE SMOOTH",
"587 478 OFFCURVE",
"565 500 OFFCURVE",
"536 500 CURVE SMOOTH",
"261 500 LINE SMOOTH",
"232 500 OFFCURVE",
"210 478 OFFCURVE",
"210 449 CURVE SMOOTH",
"210 275 LINE SMOOTH",
"210 269 OFFCURVE",
"206 265 OFFCURVE",
"200 265 CURVE SMOOTH",
"190 265 LINE SMOOTH",
"184 265 OFFCURVE",
"180 269 OFFCURVE",
"180 275 CURVE SMOOTH",
"180 449 LINE SMOOTH",
"180 478 OFFCURVE",
"158 500 OFFCURVE",
"129 500 CURVE SMOOTH",
"101 500 LINE SMOOTH",
"72 500 OFFCURVE",
"50 478 OFFCURVE",
"50 449 CURVE SMOOTH"
);
}
);
width = 637;
}
);
unicode = 006B;
},
{
glyphname = l;
lastChange = "2023-01-16 13:09:05 +0000";
layers = (
{
layerId = "A69B6916-D86B-4DB4-B111-C864CDAF75E2";
paths = (
{
closed = 1;
nodes = (
"50 51 LINE SMOOTH",
"50 22 OFFCURVE",
"72 0 OFFCURVE",
"101 0 CURVE SMOOTH",
"536 0 LINE SMOOTH",
"565 0 OFFCURVE",
"587 22 OFFCURVE",
"587 51 CURVE SMOOTH",
"587 122 LINE SMOOTH",
"587 151 OFFCURVE",
"587 154 OFFCURVE",
"587 173 CURVE",
"587 176 LINE SMOOTH",
"587 181 OFFCURVE",
"587 181 OFFCURVE",
"587 186 CURVE SMOOTH",
"587 449 LINE SMOOTH",
"587 478 OFFCURVE",
"565 500 OFFCURVE",
"536 500 CURVE SMOOTH",
"101 500 LINE SMOOTH",
"72 500 OFFCURVE",
"50 478 OFFCURVE",
"50 449 CURVE SMOOTH"
);
}
);
width = 637;
},
{
layerId = "D5846C3A-916F-42E8-8837-99B20A1F62F9";
paths = (
{
closed = 1;
nodes = (
"50 51 LINE SMOOTH",
"50 22 OFFCURVE",
"72 0 OFFCURVE",
"101 0 CURVE SMOOTH",
"536 0 LINE SMOOTH",
"565 0 OFFCURVE",
"587 22 OFFCURVE",
"587 51 CURVE SMOOTH",
"587 122 LINE SMOOTH",
"587 151 OFFCURVE",
"565 173 OFFCURVE",
"536 173 CURVE SMOOTH",
"533 173 LINE SMOOTH",
"527 173 OFFCURVE",
"523 177 OFFCURVE",
"523 183 CURVE SMOOTH",
"523 449 LINE SMOOTH",
"523 478 OFFCURVE",
"501 500 OFFCURVE",
"472 500 CURVE SMOOTH",
"101 500 LINE SMOOTH",
"72 500 OFFCURVE",
"50 478 OFFCURVE",
"50 449 CURVE SMOOTH"
);
}
);
width = 637;
},
{
layerId = "B57C1444-1622-4D1A-A412-9270A2806B96";
paths = (
{
closed = 1;
nodes = (
"50 51 LINE SMOOTH",
"50 22 OFFCURVE",
"72 0 OFFCURVE",
"101 0 CURVE SMOOTH",
"536 0 LINE SMOOTH",
"565 0 OFFCURVE",
"587 22 OFFCURVE",
"587 51 CURVE SMOOTH",
"587 122 LINE SMOOTH",
"587 151 OFFCURVE",
"565 173 OFFCURVE",
"536 173 CURVE SMOOTH",
"454 173 LINE SMOOTH",
"449 173 OFFCURVE",
"444 177 OFFCURVE",
"444 183 CURVE SMOOTH",
"444 449 LINE SMOOTH",
"444 478 OFFCURVE",
"422 500 OFFCURVE",
"394 500 CURVE SMOOTH",
"101 500 LINE SMOOTH",
"72 500 OFFCURVE",
"50 478 OFFCURVE",
"50 449 CURVE SMOOTH"
);
}
);
width = 637;
},
{
layerId = "106BB046-A4A4-4FD5-B9BF-C98528C7FAAB";
paths = (
{
closed = 1;
nodes = (
"50 51 LINE SMOOTH",
"50 22 OFFCURVE",
"72 0 OFFCURVE",
"101 0 CURVE SMOOTH",
"536 0 LINE SMOOTH",
"565 0 OFFCURVE",
"587 22 OFFCURVE",
"587 51 CURVE SMOOTH",
"587 122 LINE SMOOTH",
"587 151 OFFCURVE",
"565 173 OFFCURVE",
"536 173 CURVE SMOOTH",
"390 173 LINE SMOOTH",
"384 173 OFFCURVE",
"380 177 OFFCURVE",
"380 183 CURVE SMOOTH",
"380 449 LINE SMOOTH",
"380 478 OFFCURVE",
"358 500 OFFCURVE",
"329 500 CURVE SMOOTH",
"101 500 LINE SMOOTH",
"72 500 OFFCURVE",
"50 478 OFFCURVE",
"50 449 CURVE SMOOTH"
);
}
);
width = 637;
}
);
unicode = 006C;
},
{
glyphname = m;
lastChange = "2023-01-16 13:09:15 +0000";
layers = (
{
layerId = "A69B6916-D86B-4DB4-B111-C864CDAF75E2";
paths = (
{
closed = 1;
nodes = (
"50 449 LINE SMOOTH",
"50 478 OFFCURVE",
"72 500 OFFCURVE",
"101 500 CURVE SMOOTH",
"253 500 LINE SMOOTH",
"281 500 OFFCURVE",
"289 500 OFFCURVE",
"300 500 CURVE",
"304 500 LINE SMOOTH",
"309 500 OFFCURVE",
"308 500 OFFCURVE",
"314 500 CURVE SMOOTH",
"324 500 LINE SMOOTH",
"329 500 OFFCURVE",
"328 500 OFFCURVE",
"334 500 CURVE SMOOTH",
"338 500 LINE",
"351 500 OFFCURVE",
"356 500 OFFCURVE",
"385 500 CURVE SMOOTH",
"536 500 LINE SMOOTH",
"565 500 OFFCURVE",
"587 478 OFFCURVE",
"587 449 CURVE SMOOTH",
"587 51 LINE SMOOTH",
"587 22 OFFCURVE",
"565 0 OFFCURVE",
"536 0 CURVE SMOOTH",
"508 0 LINE SMOOTH",
"479 0 OFFCURVE",
"472 0 OFFCURVE",
"460 0 CURVE",
"456 0 LINE SMOOTH",
"449 0 OFFCURVE",
"453 0 OFFCURVE",
"446 0 CURVE SMOOTH",
"436 0 LINE SMOOTH",
"431 0 OFFCURVE",
"432 0 OFFCURVE",
"426 0 CURVE SMOOTH",
"422 0 LINE",
"410 0 OFFCURVE",
"405 0 OFFCURVE",
"376 0 CURVE SMOOTH",
"261 0 LINE SMOOTH",
"232 0 OFFCURVE",
"227 0 OFFCURVE",
"214 0 CURVE",
"210 0 LINE SMOOTH",
"203 0 OFFCURVE",
"206 0 OFFCURVE",
"200 0 CURVE SMOOTH",
"190 0 LINE SMOOTH",
"184 0 OFFCURVE",
"187 0 OFFCURVE",
"180 0 CURVE SMOOTH",
"176 0 LINE",
"166 0 OFFCURVE",
"158 0 OFFCURVE",
"129 0 CURVE SMOOTH",
"101 0 LINE SMOOTH",
"72 0 OFFCURVE",
"50 22 OFFCURVE",
"50 51 CURVE SMOOTH"
);
}
);
width = 637;
},
{
layerId = "D5846C3A-916F-42E8-8837-99B20A1F62F9";
paths = (
{
closed = 1;
nodes = (
"50 449 LINE SMOOTH",
"50 478 OFFCURVE",
"72 500 OFFCURVE",
"101 500 CURVE SMOOTH",
"253 500 LINE SMOOTH",
"281 500 OFFCURVE",
"304 478 OFFCURVE",
"304 449 CURVE SMOOTH",
"304 443 LINE SMOOTH",
"304 437 OFFCURVE",
"308 433 OFFCURVE",
"314 433 CURVE SMOOTH",
"324 433 LINE SMOOTH",
"329 433 OFFCURVE",
"334 437 OFFCURVE",
"334 443 CURVE SMOOTH",
"334 449 LINE SMOOTH",
"334 478 OFFCURVE",
"356 500 OFFCURVE",
"385 500 CURVE SMOOTH",
"536 500 LINE SMOOTH",
"565 500 OFFCURVE",
"587 478 OFFCURVE",
"587 449 CURVE SMOOTH",
"587 51 LINE SMOOTH",
"587 22 OFFCURVE",
"565 0 OFFCURVE",
"536 0 CURVE SMOOTH",
"508 0 LINE SMOOTH",
"479 0 OFFCURVE",
"456 22 OFFCURVE",
"456 51 CURVE SMOOTH",
"456 59 LINE SMOOTH",
"456 65 OFFCURVE",
"453 69 OFFCURVE",
"446 69 CURVE SMOOTH",
"436 69 LINE SMOOTH",
"431 69 OFFCURVE",
"426 65 OFFCURVE",
"426 59 CURVE SMOOTH",
"426 51 LINE SMOOTH",
"426 22 OFFCURVE",
"405 0 OFFCURVE",
"376 0 CURVE SMOOTH",
"261 0 LINE SMOOTH",
"232 0 OFFCURVE",
"210 22 OFFCURVE",
"210 51 CURVE SMOOTH",
"210 59 LINE SMOOTH",
"210 65 OFFCURVE",
"206 69 OFFCURVE",
"200 69 CURVE SMOOTH",
"190 69 LINE SMOOTH",
"184 69 OFFCURVE",
"180 65 OFFCURVE",
"180 59 CURVE SMOOTH",
"180 51 LINE SMOOTH",
"180 22 OFFCURVE",
"158 0 OFFCURVE",
"129 0 CURVE SMOOTH",
"101 0 LINE SMOOTH",
"72 0 OFFCURVE",
"50 22 OFFCURVE",
"50 51 CURVE SMOOTH"
);
}
);
width = 637;
},
{
layerId = "B57C1444-1622-4D1A-A412-9270A2806B96";
paths = (
{
closed = 1;
nodes = (
"50 449 LINE SMOOTH",
"50 478 OFFCURVE",
"72 500 OFFCURVE",
"101 500 CURVE SMOOTH",
"253 500 LINE SMOOTH",
"281 500 OFFCURVE",
"304 478 OFFCURVE",
"304 449 CURVE SMOOTH",
"304 357 LINE SMOOTH",
"304 351 OFFCURVE",
"308 347 OFFCURVE",
"314 347 CURVE SMOOTH",
"324 347 LINE SMOOTH",
"329 347 OFFCURVE",
"334 351 OFFCURVE",
"334 357 CURVE SMOOTH",
"334 449 LINE SMOOTH",
"334 478 OFFCURVE",
"356 500 OFFCURVE",
"385 500 CURVE SMOOTH",
"536 500 LINE SMOOTH",
"565 500 OFFCURVE",
"587 478 OFFCURVE",
"587 449 CURVE SMOOTH",
"587 51 LINE SMOOTH",
"587 22 OFFCURVE",
"565 0 OFFCURVE",
"536 0 CURVE SMOOTH",
"508 0 LINE SMOOTH",
"479 0 OFFCURVE",
"456 22 OFFCURVE",
"456 51 CURVE SMOOTH",
"456 144 LINE SMOOTH",
"456 151 OFFCURVE",
"453 154 OFFCURVE",
"446 154 CURVE SMOOTH",
"436 154 LINE SMOOTH",
"431 154 OFFCURVE",
"426 151 OFFCURVE",
"426 144 CURVE SMOOTH",
"426 51 LINE SMOOTH",
"426 22 OFFCURVE",
"405 0 OFFCURVE",
"376 0 CURVE SMOOTH",
"261 0 LINE SMOOTH",
"232 0 OFFCURVE",
"210 22 OFFCURVE",
"210 51 CURVE SMOOTH",
"210 144 LINE SMOOTH",
"210 151 OFFCURVE",
"206 154 OFFCURVE",
"200 154 CURVE SMOOTH",
"190 154 LINE SMOOTH",
"184 154 OFFCURVE",
"180 151 OFFCURVE",
"180 144 CURVE SMOOTH",
"180 51 LINE SMOOTH",
"180 22 OFFCURVE",
"158 0 OFFCURVE",
"129 0 CURVE SMOOTH",
"101 0 LINE SMOOTH",
"72 0 OFFCURVE",
"50 22 OFFCURVE",
"50 51 CURVE SMOOTH"
);
}
);
width = 637;
},
{
layerId = "106BB046-A4A4-4FD5-B9BF-C98528C7FAAB";
paths = (
{
closed = 1;
nodes = (
"50 449 LINE SMOOTH",
"50 478 OFFCURVE",
"72 500 OFFCURVE",
"101 500 CURVE SMOOTH",
"253 500 LINE SMOOTH",
"282 500 OFFCURVE",
"304 478 OFFCURVE",
"304 449 CURVE SMOOTH",
"304 265 LINE SMOOTH",
"304 259 OFFCURVE",
"308 255 OFFCURVE",
"314 255 CURVE SMOOTH",
"324 255 LINE SMOOTH",
"330 255 OFFCURVE",
"334 259 OFFCURVE",
"334 265 CURVE SMOOTH",
"334 449 LINE SMOOTH",
"334 478 OFFCURVE",
"356 500 OFFCURVE",
"385 500 CURVE SMOOTH",
"536 500 LINE SMOOTH",
"565 500 OFFCURVE",
"587 478 OFFCURVE",
"587 449 CURVE SMOOTH",
"587 51 LINE SMOOTH",
"587 22 OFFCURVE",
"565 0 OFFCURVE",
"536 0 CURVE SMOOTH",
"508 0 LINE SMOOTH",
"479 0 OFFCURVE",
"457 22 OFFCURVE",
"457 51 CURVE SMOOTH",
"457 245 LINE SMOOTH",
"457 251 OFFCURVE",
"453 255 OFFCURVE",
"447 255 CURVE SMOOTH",
"437 255 LINE SMOOTH",
"431 255 OFFCURVE",
"427 251 OFFCURVE",
"427 245 CURVE SMOOTH",
"427 51 LINE SMOOTH",
"427 22 OFFCURVE",
"405 0 OFFCURVE",
"376 0 CURVE SMOOTH",
"261 0 LINE SMOOTH",
"232 0 OFFCURVE",
"210 22 OFFCURVE",
"210 51 CURVE SMOOTH",
"210 245 LINE SMOOTH",
"210 251 OFFCURVE",
"206 255 OFFCURVE",
"200 255 CURVE SMOOTH",
"190 255 LINE SMOOTH",
"184 255 OFFCURVE",
"180 251 OFFCURVE",
"180 245 CURVE SMOOTH",
"180 51 LINE SMOOTH",
"180 22 OFFCURVE",
"158 0 OFFCURVE",
"129 0 CURVE SMOOTH",
"101 0 LINE SMOOTH",
"72 0 OFFCURVE",
"50 22 OFFCURVE",
"50 51 CURVE SMOOTH"
);
}
);
width = 637;
}
);
unicode = 006D;
},
{
glyphname = n;
lastChange = "2023-01-16 13:09:23 +0000";
layers = (
{
layerId = "A69B6916-D86B-4DB4-B111-C864CDAF75E2";
paths = (
{
closed = 1;
nodes = (
"50 51 LINE SMOOTH",
"50 21 OFFCURVE",
"72 0 OFFCURVE",
"102 0 CURVE SMOOTH",
"130 0 LINE SMOOTH",
"159 0 OFFCURVE",
"166 0 OFFCURVE",
"177 0 CURVE",
"180 0 LINE SMOOTH",
"187 0 OFFCURVE",
"184 0 OFFCURVE",
"190 0 CURVE SMOOTH",
"200 0 LINE SMOOTH",
"206 0 OFFCURVE",
"203 0 OFFCURVE",
"210 0 CURVE SMOOTH",
"214 0 LINE",
"224 0 OFFCURVE",
"232 0 OFFCURVE",
"261 0 CURVE SMOOTH",
"536 0 LINE SMOOTH",
"565 0 OFFCURVE",
"587 22 OFFCURVE",
"587 51 CURVE SMOOTH",
"587 449 LINE SMOOTH",
"587 478 OFFCURVE",
"565 500 OFFCURVE",
"536 500 CURVE SMOOTH",
"508 500 LINE SMOOTH",
"479 500 OFFCURVE",
"471 500 OFFCURVE",
"461 500 CURVE",
"457 500 LINE SMOOTH",
"452 500 OFFCURVE",
"453 500 OFFCURVE",
"447 500 CURVE SMOOTH",
"437 500 LINE SMOOTH",
"431 500 OFFCURVE",
"432 500 OFFCURVE",
"427 500 CURVE SMOOTH",
"424 500 LINE",
"409 500 OFFCURVE",
"405 500 OFFCURVE",
"376 500 CURVE SMOOTH",
"101 500 LINE SMOOTH",
"72 500 OFFCURVE",
"50 478 OFFCURVE",
"50 449 CURVE SMOOTH"
);
}
);
width = 637;
},
{
layerId = "D5846C3A-916F-42E8-8837-99B20A1F62F9";
paths = (
{
closed = 1;
nodes = (
"50 51 LINE SMOOTH",
"50 21 OFFCURVE",
"72 0 OFFCURVE",
"102 0 CURVE SMOOTH",
"130 0 LINE SMOOTH",
"159 0 OFFCURVE",
"180 21 OFFCURVE",
"180 50 CURVE SMOOTH",
"180 61 LINE SMOOTH",
"180 68 OFFCURVE",
"184 71 OFFCURVE",
"190 71 CURVE SMOOTH",
"200 71 LINE SMOOTH",
"206 71 OFFCURVE",
"210 68 OFFCURVE",
"210 61 CURVE SMOOTH",
"210 51 LINE SMOOTH",
"210 22 OFFCURVE",
"232 0 OFFCURVE",
"261 0 CURVE SMOOTH",
"536 0 LINE SMOOTH",
"565 0 OFFCURVE",
"587 22 OFFCURVE",
"587 51 CURVE SMOOTH",
"587 449 LINE SMOOTH",
"587 478 OFFCURVE",
"565 500 OFFCURVE",
"536 500 CURVE SMOOTH",
"508 500 LINE SMOOTH",
"479 500 OFFCURVE",
"457 478 OFFCURVE",
"457 449 CURVE SMOOTH",
"457 445 LINE SMOOTH",
"457 439 OFFCURVE",
"453 436 OFFCURVE",
"447 436 CURVE SMOOTH",
"437 436 LINE SMOOTH",
"431 436 OFFCURVE",
"427 439 OFFCURVE",
"427 445 CURVE SMOOTH",
"427 449 LINE SMOOTH",
"427 478 OFFCURVE",
"405 500 OFFCURVE",
"376 500 CURVE SMOOTH",
"101 500 LINE SMOOTH",
"72 500 OFFCURVE",
"50 478 OFFCURVE",
"50 449 CURVE SMOOTH"
);
}
);
width = 637;
},
{
layerId = "B57C1444-1622-4D1A-A412-9270A2806B96";
paths = (
{
closed = 1;
nodes = (
"50 51 LINE SMOOTH",
"50 21 OFFCURVE",
"72 0 OFFCURVE",
"102 0 CURVE SMOOTH",
"130 0 LINE SMOOTH",
"159 0 OFFCURVE",
"180 21 OFFCURVE",
"180 50 CURVE SMOOTH",
"180 161 LINE SMOOTH",
"180 168 OFFCURVE",
"184 171 OFFCURVE",
"190 171 CURVE SMOOTH",
"200 171 LINE SMOOTH",
"206 171 OFFCURVE",
"210 168 OFFCURVE",
"210 161 CURVE SMOOTH",
"210 51 LINE SMOOTH",
"210 22 OFFCURVE",
"232 0 OFFCURVE",
"261 0 CURVE SMOOTH",
"536 0 LINE SMOOTH",
"565 0 OFFCURVE",
"587 22 OFFCURVE",
"587 51 CURVE SMOOTH",
"587 449 LINE SMOOTH",
"587 478 OFFCURVE",
"565 500 OFFCURVE",
"536 500 CURVE SMOOTH",
"508 500 LINE SMOOTH",
"479 500 OFFCURVE",
"457 478 OFFCURVE",
"457 449 CURVE SMOOTH",
"457 345 LINE SMOOTH",
"457 339 OFFCURVE",
"453 336 OFFCURVE",
"447 336 CURVE SMOOTH",
"437 336 LINE SMOOTH",
"431 336 OFFCURVE",
"427 339 OFFCURVE",
"427 345 CURVE SMOOTH",
"427 449 LINE SMOOTH",
"427 478 OFFCURVE",
"405 500 OFFCURVE",
"376 500 CURVE SMOOTH",
"101 500 LINE SMOOTH",
"72 500 OFFCURVE",
"50 478 OFFCURVE",
"50 449 CURVE SMOOTH"
);
}
);
width = 637;
},
{
layerId = "106BB046-A4A4-4FD5-B9BF-C98528C7FAAB";
paths = (
{
closed = 1;
nodes = (
"50 51 LINE SMOOTH",
"50 21 OFFCURVE",
"72 0 OFFCURVE",
"102 0 CURVE SMOOTH",
"130 0 LINE SMOOTH",
"159 0 OFFCURVE",
"180 21 OFFCURVE",
"180 50 CURVE SMOOTH",
"180 240 LINE SMOOTH",
"180 246 OFFCURVE",
"184 250 OFFCURVE",
"190 250 CURVE SMOOTH",
"200 250 LINE SMOOTH",
"206 250 OFFCURVE",
"210 246 OFFCURVE",
"210 240 CURVE SMOOTH",
"210 51 LINE SMOOTH",
"210 22 OFFCURVE",
"232 0 OFFCURVE",
"261 0 CURVE SMOOTH",
"536 0 LINE SMOOTH",
"565 0 OFFCURVE",
"587 22 OFFCURVE",
"587 51 CURVE SMOOTH",
"587 449 LINE SMOOTH",
"587 478 OFFCURVE",
"565 500 OFFCURVE",
"536 500 CURVE SMOOTH",
"508 500 LINE SMOOTH",
"479 500 OFFCURVE",
"457 478 OFFCURVE",
"457 449 CURVE SMOOTH",
"457 260 LINE SMOOTH",
"457 254 OFFCURVE",
"453 250 OFFCURVE",
"447 250 CURVE SMOOTH",
"437 250 LINE SMOOTH",
"431 250 OFFCURVE",
"427 254 OFFCURVE",
"427 260 CURVE SMOOTH",
"427 449 LINE SMOOTH",
"427 478 OFFCURVE",
"405 500 OFFCURVE",
"376 500 CURVE SMOOTH",
"101 500 LINE SMOOTH",
"72 500 OFFCURVE",
"50 478 OFFCURVE",
"50 449 CURVE SMOOTH"
);
}
);
width = 637;
}
);
unicode = 006E;
},
{
glyphname = o;
lastChange = "2023-01-16 13:09:34 +0000";
layers = (
{
layerId = "A69B6916-D86B-4DB4-B111-C864CDAF75E2";
paths = (
{
closed = 1;
nodes = (
"50 82 LINE SMOOTH",
"50 35 OFFCURVE",
"85 0 OFFCURVE",
"132 0 CURVE SMOOTH",
"504 0 LINE SMOOTH",
"551 0 OFFCURVE",
"587 35 OFFCURVE",
"587 82 CURVE SMOOTH",
"587 417 LINE SMOOTH",
"587 464 OFFCURVE",
"551 500 OFFCURVE",
"504 500 CURVE SMOOTH",
"132 500 LINE SMOOTH",
"85 500 OFFCURVE",
"50 464 OFFCURVE",
"50 417 CURVE SMOOTH"
);
},
{
closed = 1;
nodes = (
"324 235 LINE SMOOTH",
"330 235 OFFCURVE",
"331 235 OFFCURVE",
"334 235 CURVE SMOOTH",
"334 235 LINE SMOOTH",
"331 235 OFFCURVE",
"330 235 OFFCURVE",
"324 235 CURVE SMOOTH",
"314 235 LINE SMOOTH",
"309 235 OFFCURVE",
"307 235 OFFCURVE",
"304 235 CURVE SMOOTH",
"304 235 LINE SMOOTH",
"309 235 OFFCURVE",
"309 235 OFFCURVE",
"314 235 CURVE SMOOTH"
);
}
);
width = 637;
},
{
layerId = "D5846C3A-916F-42E8-8837-99B20A1F62F9";
paths = (
{
closed = 1;
nodes = (
"50 82 LINE SMOOTH",
"50 35 OFFCURVE",
"85 0 OFFCURVE",
"132 0 CURVE SMOOTH",
"504 0 LINE SMOOTH",
"551 0 OFFCURVE",
"587 35 OFFCURVE",
"587 82 CURVE SMOOTH",
"587 417 LINE SMOOTH",
"587 464 OFFCURVE",
"551 500 OFFCURVE",
"504 500 CURVE SMOOTH",
"132 500 LINE SMOOTH",
"85 500 OFFCURVE",
"50 464 OFFCURVE",
"50 417 CURVE SMOOTH"
);
},
{
closed = 1;
nodes = (
"324 254 LINE SMOOTH",
"329 254 OFFCURVE",
"334 249 OFFCURVE",
"334 244 CURVE SMOOTH",
"334 229 LINE SMOOTH",
"334 223 OFFCURVE",
"329 219 OFFCURVE",
"324 219 CURVE SMOOTH",
"314 219 LINE SMOOTH",
"308 219 OFFCURVE",
"304 223 OFFCURVE",
"304 229 CURVE SMOOTH",
"304 244 LINE SMOOTH",
"304 249 OFFCURVE",
"308 254 OFFCURVE",
"314 254 CURVE SMOOTH"
);
}
);
width = 637;
},
{
layerId = "B57C1444-1622-4D1A-A412-9270A2806B96";
paths = (
{
closed = 1;
nodes = (
"50 82 LINE SMOOTH",
"50 35 OFFCURVE",
"85 0 OFFCURVE",
"132 0 CURVE SMOOTH",
"504 0 LINE SMOOTH",
"551 0 OFFCURVE",
"587 35 OFFCURVE",
"587 82 CURVE SMOOTH",
"587 417 LINE SMOOTH",
"587 464 OFFCURVE",
"551 500 OFFCURVE",
"504 500 CURVE SMOOTH",
"132 500 LINE SMOOTH",
"85 500 OFFCURVE",
"50 464 OFFCURVE",
"50 417 CURVE SMOOTH"
);
},
{
closed = 1;
nodes = (
"324 299 LINE SMOOTH",
"329 299 OFFCURVE",
"334 294 OFFCURVE",
"334 289 CURVE SMOOTH",
"334 197 LINE SMOOTH",
"334 191 OFFCURVE",
"329 187 OFFCURVE",
"324 187 CURVE SMOOTH",
"314 187 LINE SMOOTH",
"308 187 OFFCURVE",
"304 191 OFFCURVE",
"304 197 CURVE SMOOTH",
"304 289 LINE SMOOTH",
"304 294 OFFCURVE",
"308 299 OFFCURVE",
"314 299 CURVE SMOOTH"
);
}
);
width = 637;
},
{
layerId = "106BB046-A4A4-4FD5-B9BF-C98528C7FAAB";
paths = (
{
closed = 1;
nodes = (
"50 82 LINE SMOOTH",
"50 35 OFFCURVE",
"85 0 OFFCURVE",
"132 0 CURVE SMOOTH",
"505 0 LINE SMOOTH",
"552 0 OFFCURVE",
"587 35 OFFCURVE",
"587 82 CURVE SMOOTH",
"587 418 LINE SMOOTH",
"587 465 OFFCURVE",
"552 500 OFFCURVE",
"505 500 CURVE SMOOTH",
"132 500 LINE SMOOTH",
"85 500 OFFCURVE",
"50 465 OFFCURVE",
"50 418 CURVE SMOOTH"
);
},
{
closed = 1;
nodes = (
"324 370 LINE SMOOTH",
"330 370 OFFCURVE",
"334 366 OFFCURVE",
"334 360 CURVE SMOOTH",
"334 140 LINE SMOOTH",
"334 134 OFFCURVE",
"330 130 OFFCURVE",
"324 130 CURVE SMOOTH",
"314 130 LINE SMOOTH",
"308 130 OFFCURVE",
"304 134 OFFCURVE",
"304 140 CURVE SMOOTH",
"304 360 LINE SMOOTH",
"304 366 OFFCURVE",
"308 370 OFFCURVE",
"314 370 CURVE SMOOTH"
);
}
);
width = 637;
}
);
unicode = 006F;
},
{
glyphname = p;
lastChange = "2023-01-16 13:09:50 +0000";
layers = (
{
layerId = "A69B6916-D86B-4DB4-B111-C864CDAF75E2";
paths = (
{
closed = 1;
nodes = (
"50 51 LINE SMOOTH",
"50 22 OFFCURVE",
"72 0 OFFCURVE",
"101 0 CURVE SMOOTH",
"129 0 LINE SMOOTH",
"158 0 OFFCURVE",
"176 0 OFFCURVE",
"180 0 CURVE",
"182 0 LINE SMOOTH",
"188 0 OFFCURVE",
"184 0 OFFCURVE",
"190 0 CURVE SMOOTH",
"505 0 LINE SMOOTH",
"552 0 OFFCURVE",
"588 35 OFFCURVE",
"588 82 CURVE SMOOTH",
"588 418 LINE SMOOTH",
"588 465 OFFCURVE",
"552 500 OFFCURVE",
"505 500 CURVE SMOOTH",
"101 500 LINE SMOOTH",
"72 500 OFFCURVE",
"50 478 OFFCURVE",
"50 450 CURVE SMOOTH"
);
},
{
closed = 1;
nodes = (
"319 266 LINE SMOOTH",
"319 269 OFFCURVE",
"319 270 OFFCURVE",
"319 276 CURVE SMOOTH",
"319 286 LINE SMOOTH",
"319 292 OFFCURVE",
"319 292 OFFCURVE",
"319 296 CURVE SMOOTH",
"319 296 LINE SMOOTH",
"319 292 OFFCURVE",
"319 292 OFFCURVE",
"319 286 CURVE SMOOTH",
"319 276 LINE SMOOTH",
"319 270 OFFCURVE",
"319 269 OFFCURVE",
"319 266 CURVE SMOOTH"
);
}
);
width = 638;
},
{
layerId = "D5846C3A-916F-42E8-8837-99B20A1F62F9";
paths = (
{
closed = 1;
nodes = (
"50 50 LINE SMOOTH",
"50 22 OFFCURVE",
"72 0 OFFCURVE",
"101 0 CURVE SMOOTH",
"129 0 LINE SMOOTH",
"158 0 OFFCURVE",
"180 -1 OFFCURVE",
"180 6 CURVE",
"180 9 LINE SMOOTH",
"180 15 OFFCURVE",
"184 19 OFFCURVE",
"190 19 CURVE SMOOTH",
"505 19 LINE SMOOTH",
"552 19 OFFCURVE",
"587 54 OFFCURVE",
"587 101 CURVE SMOOTH",
"587 418 LINE SMOOTH",
"587 465 OFFCURVE",
"552 500 OFFCURVE",
"505 500 CURVE SMOOTH",
"101 500 LINE SMOOTH",
"72 500 OFFCURVE",
"50 478 OFFCURVE",
"50 449 CURVE SMOOTH"
);
},
{
closed = 1;
nodes = (
"297 266 LINE SMOOTH",
"292 266 OFFCURVE",
"287 270 OFFCURVE",
"287 276 CURVE SMOOTH",
"287 286 LINE SMOOTH",
"287 292 OFFCURVE",
"292 296 OFFCURVE",
"297 296 CURVE SMOOTH",
"340 296 LINE SMOOTH",
"346 296 OFFCURVE",
"350 292 OFFCURVE",
"350 286 CURVE SMOOTH",
"350 276 LINE SMOOTH",
"350 270 OFFCURVE",
"346 266 OFFCURVE",
"340 266 CURVE SMOOTH"
);
}
);
width = 637;
},
{
layerId = "B57C1444-1622-4D1A-A412-9270A2806B96";
paths = (
{
closed = 1;
nodes = (
"50 51 LINE SMOOTH",
"50 23 OFFCURVE",
"72 0 OFFCURVE",
"101 0 CURVE SMOOTH",
"130 0 LINE SMOOTH",
"158 0 OFFCURVE",
"180 -6 OFFCURVE",
"180 23 CURVE SMOOTH",
"180 24 LINE SMOOTH",
"180 30 OFFCURVE",
"184 34 OFFCURVE",
"189 34 CURVE SMOOTH",
"504 34 LINE SMOOTH",
"552 34 OFFCURVE",
"587 69 OFFCURVE",
"587 116 CURVE SMOOTH",
"587 417 LINE SMOOTH",
"587 465 OFFCURVE",
"552 500 OFFCURVE",
"504 500 CURVE SMOOTH",
"101 500 LINE SMOOTH",
"72 500 OFFCURVE",
"50 478 OFFCURVE",
"50 449 CURVE SMOOTH"
);
},
{
closed = 1;
nodes = (
"232 267 LINE SMOOTH",
"226 267 OFFCURVE",
"222 271 OFFCURVE",
"222 277 CURVE SMOOTH",
"222 287 LINE SMOOTH",
"222 293 OFFCURVE",
"226 297 OFFCURVE",
"232 297 CURVE SMOOTH",
"397 297 LINE SMOOTH",
"403 297 OFFCURVE",
"407 293 OFFCURVE",
"407 287 CURVE SMOOTH",
"407 277 LINE SMOOTH",
"407 271 OFFCURVE",
"403 267 OFFCURVE",
"397 267 CURVE SMOOTH"
);
}
);
width = 637;
},
{
layerId = "106BB046-A4A4-4FD5-B9BF-C98528C7FAAB";
paths = (
{
closed = 1;
nodes = (
"50 51 LINE SMOOTH",
"50 22 OFFCURVE",
"72 0 OFFCURVE",
"101 0 CURVE SMOOTH",
"129 0 LINE SMOOTH",
"158 0 OFFCURVE",
"180 22 OFFCURVE",
"180 51 CURVE SMOOTH",
"180 52 LINE SMOOTH",
"180 58 OFFCURVE",
"184 62 OFFCURVE",
"190 62 CURVE SMOOTH",
"505 62 LINE SMOOTH",
"552 62 OFFCURVE",
"587 97 OFFCURVE",
"587 144 CURVE SMOOTH",
"587 418 LINE SMOOTH",
"587 465 OFFCURVE",
"552 500 OFFCURVE",
"505 500 CURVE SMOOTH",
"101 500 LINE SMOOTH",
"72 500 OFFCURVE",
"50 478 OFFCURVE",
"50 449 CURVE SMOOTH"
);
},
{
closed = 1;
nodes = (
"190 266 LINE SMOOTH",
"184 266 OFFCURVE",
"180 270 OFFCURVE",
"180 276 CURVE SMOOTH",
"180 286 LINE SMOOTH",
"180 292 OFFCURVE",
"184 296 OFFCURVE",
"190 296 CURVE SMOOTH",
"447 296 LINE SMOOTH",
"453 296 OFFCURVE",
"457 292 OFFCURVE",
"457 286 CURVE SMOOTH",
"457 276 LINE SMOOTH",
"457 270 OFFCURVE",
"453 266 OFFCURVE",
"447 266 CURVE SMOOTH"
);
}
);
width = 637;
}
);
unicode = 0070;
},
{
glyphname = q;
lastChange = "2023-01-16 13:10:04 +0000";
layers = (
{
layerId = "A69B6916-D86B-4DB4-B111-C864CDAF75E2";
paths = (
{
closed = 1;
nodes = (
"50 82 LINE SMOOTH",
"50 34 OFFCURVE",
"85 0 OFFCURVE",
"132 0 CURVE SMOOTH",
"169 0 LINE SMOOTH",
"176 0 OFFCURVE",
"174 0 OFFCURVE",
"179 0 CURVE SMOOTH",
"180 0 LINE SMOOTH",
"186 0 OFFCURVE",
"184 0 OFFCURVE",
"190 0 CURVE SMOOTH",
"577 0 LINE SMOOTH",
"584 0 OFFCURVE",
"587 4 OFFCURVE",
"587 10 CURVE SMOOTH",
"587 120 LINE SMOOTH",
"587 126 OFFCURVE",
"587 124 OFFCURVE",
"587 130 CURVE SMOOTH",
"587 137 LINE SMOOTH",
"587 143 OFFCURVE",
"587 141 OFFCURVE",
"587 147 CURVE SMOOTH",
"587 419 LINE SMOOTH",
"587 465 OFFCURVE",
"552 500 OFFCURVE",
"505 500 CURVE SMOOTH",
"132 500 LINE SMOOTH",
"85 500 OFFCURVE",
"51 467 OFFCURVE",
"51 419 CURVE SMOOTH"
);
},
{
closed = 1;
nodes = (
"305 201 LINE SMOOTH",
"305 199 OFFCURVE",
"305 197 OFFCURVE",
"305 191 CURVE SMOOTH",
"305 181 LINE SMOOTH",
"305 175 OFFCURVE",
"305 178 OFFCURVE",
"305 171 CURVE",
"305 171 LINE",
"305 174 OFFCURVE",
"305 175 OFFCURVE",
"305 171 CURVE",
"305 174 LINE",
"305 177 OFFCURVE",
"305 180 OFFCURVE",
"305 184 CURVE",
"305 171 LINE",
"305 174 OFFCURVE",
"305 176 OFFCURVE",
"305 181 CURVE SMOOTH",
"305 191 LINE SMOOTH",
"305 197 OFFCURVE",
"305 196 OFFCURVE",
"305 201 CURVE SMOOTH"
);
}
);
width = 637;
},
{
layerId = "D5846C3A-916F-42E8-8837-99B20A1F62F9";
paths = (
{
closed = 1;
nodes = (
"50 103 LINE SMOOTH",
"50 55 OFFCURVE",
"85 21 OFFCURVE",
"132 21 CURVE SMOOTH",
"170 21 LINE SMOOTH",
"176 21 OFFCURVE",
"180 16 OFFCURVE",
"180 11 CURVE SMOOTH",
"180 10 LINE SMOOTH",
"180 4 OFFCURVE",
"184 0 OFFCURVE",
"190 0 CURVE SMOOTH",
"577 0 LINE SMOOTH",
"584 0 OFFCURVE",
"587 4 OFFCURVE",
"587 10 CURVE SMOOTH",
"587 120 LINE SMOOTH",
"587 126 OFFCURVE",
"584 130 OFFCURVE",
"577 130 CURVE SMOOTH",
"576 130 LINE SMOOTH",
"571 130 OFFCURVE",
"566 134 OFFCURVE",
"566 140 CURVE SMOOTH",
"566 419 LINE SMOOTH",
"566 465 OFFCURVE",
"531 500 OFFCURVE",
"484 500 CURVE SMOOTH",
"132 500 LINE SMOOTH",
"85 500 OFFCURVE",
"51 467 OFFCURVE",
"51 419 CURVE SMOOTH"
);
},
{
closed = 1;
nodes = (
"326 201 LINE SMOOTH",
"331 201 OFFCURVE",
"336 197 OFFCURVE",
"336 191 CURVE SMOOTH",
"336 181 LINE SMOOTH",
"336 175 OFFCURVE",
"331 171 OFFCURVE",
"326 171 CURVE SMOOTH",
"315 171 LINE SMOOTH",
"309 171 OFFCURVE",
"308 171 OFFCURVE",
"305 171 CURVE",
"303 171 LINE",
"300 171 OFFCURVE",
"299 171 OFFCURVE",
"293 171 CURVE SMOOTH",
"284 171 LINE SMOOTH",
"278 171 OFFCURVE",
"274 176 OFFCURVE",
"274 181 CURVE SMOOTH",
"274 191 LINE SMOOTH",
"274 197 OFFCURVE",
"278 201 OFFCURVE",
"284 201 CURVE SMOOTH"
);
}
);
width = 637;
},
{
layerId = "B57C1444-1622-4D1A-A412-9270A2806B96";
paths = (
{
closed = 1;
nodes = (
"50 112 LINE SMOOTH",
"50 64 OFFCURVE",
"85 30 OFFCURVE",
"132 30 CURVE SMOOTH",
"170 30 LINE SMOOTH",
"176 30 OFFCURVE",
"180 26 OFFCURVE",
"180 20 CURVE SMOOTH",
"180 10 LINE SMOOTH",
"180 4 OFFCURVE",
"184 0 OFFCURVE",
"190 0 CURVE SMOOTH",
"577 0 LINE SMOOTH",
"583 0 OFFCURVE",
"587 4 OFFCURVE",
"587 10 CURVE SMOOTH",
"587 120 LINE SMOOTH",
"587 126 OFFCURVE",
"583 130 OFFCURVE",
"577 130 CURVE SMOOTH",
"567 130 LINE SMOOTH",
"561 130 OFFCURVE",
"557 134 OFFCURVE",
"557 140 CURVE SMOOTH",
"557 418 LINE SMOOTH",
"557 465 OFFCURVE",
"522 500 OFFCURVE",
"475 500 CURVE SMOOTH",
"132 500 LINE SMOOTH",
"85 500 OFFCURVE",
"51 467 OFFCURVE",
"51 419 CURVE SMOOTH"
);
},
{
closed = 1;
nodes = (
"418 201 LINE SMOOTH",
"424 201 OFFCURVE",
"428 197 OFFCURVE",
"428 191 CURVE SMOOTH",
"428 181 LINE SMOOTH",
"428 175 OFFCURVE",
"424 171 OFFCURVE",
"418 171 CURVE SMOOTH",
"190 171 LINE SMOOTH",
"184 171 OFFCURVE",
"183 171 OFFCURVE",
"180 171 CURVE",
"178 171 LINE",
"174 171 OFFCURVE",
"174 171 OFFCURVE",
"168 171 CURVE SMOOTH",
"159 171 LINE SMOOTH",
"153 171 OFFCURVE",
"149 176 OFFCURVE",
"149 181 CURVE SMOOTH",
"149 191 LINE SMOOTH",
"149 197 OFFCURVE",
"153 201 OFFCURVE",
"159 201 CURVE SMOOTH"
);
}
);
width = 637;
},
{
layerId = "106BB046-A4A4-4FD5-B9BF-C98528C7FAAB";
paths = (
{
closed = 1;
nodes = (
"50 112 LINE SMOOTH",
"50 64 OFFCURVE",
"85 30 OFFCURVE",
"132 30 CURVE SMOOTH",
"170 30 LINE SMOOTH",
"176 30 OFFCURVE",
"180 26 OFFCURVE",
"180 20 CURVE SMOOTH",
"180 10 LINE SMOOTH",
"180 4 OFFCURVE",
"184 0 OFFCURVE",
"190 0 CURVE SMOOTH",
"577 0 LINE SMOOTH",
"583 0 OFFCURVE",
"587 4 OFFCURVE",
"587 10 CURVE SMOOTH",
"587 120 LINE SMOOTH",
"587 126 OFFCURVE",
"583 130 OFFCURVE",
"577 130 CURVE SMOOTH",
"567 130 LINE SMOOTH",
"561 130 OFFCURVE",
"557 134 OFFCURVE",
"557 140 CURVE SMOOTH",
"557 418 LINE SMOOTH",
"557 465 OFFCURVE",
"522 500 OFFCURVE",
"475 500 CURVE SMOOTH",
"132 500 LINE SMOOTH",
"85 500 OFFCURVE",
"51 467 OFFCURVE",
"51 419 CURVE SMOOTH"
);
},
{
closed = 1;
nodes = (
"418 201 LINE SMOOTH",
"424 201 OFFCURVE",
"428 197 OFFCURVE",
"428 191 CURVE SMOOTH",
"428 181 LINE SMOOTH",
"428 175 OFFCURVE",
"424 171 OFFCURVE",
"418 171 CURVE SMOOTH",
"190 171 LINE SMOOTH",
"184 171 OFFCURVE",
"180 167 OFFCURVE",
"180 161 CURVE SMOOTH",
"180 140 LINE SMOOTH",
"180 134 OFFCURVE",
"176 130 OFFCURVE",
"170 130 CURVE SMOOTH",
"159 130 LINE SMOOTH",
"153 130 OFFCURVE",
"149 134 OFFCURVE",
"149 140 CURVE SMOOTH",
"149 191 LINE SMOOTH",
"149 197 OFFCURVE",
"153 201 OFFCURVE",
"159 201 CURVE SMOOTH"
);
}
);
width = 637;
}
);
unicode = 0071;
},
{
glyphname = r;
lastChange = "2023-01-16 13:10:15 +0000";
layers = (
{
layerId = "A69B6916-D86B-4DB4-B111-C864CDAF75E2";
paths = (
{
closed = 1;
nodes = (
"50 51 LINE SMOOTH",
"50 22 OFFCURVE",
"72 0 OFFCURVE",
"101 0 CURVE SMOOTH",
"129 0 LINE SMOOTH",
"158 0 OFFCURVE",
"157 0 OFFCURVE",
"173 0 CURVE",
"180 0 LINE SMOOTH",
"187 0 OFFCURVE",
"184 0 OFFCURVE",
"190 0 CURVE SMOOTH",
"200 0 LINE SMOOTH",
"206 0 OFFCURVE",
"204 0 OFFCURVE",
"210 0 CURVE SMOOTH",
"219 0 LINE",
"235 0 OFFCURVE",
"232 0 OFFCURVE",
"261 0 CURVE SMOOTH",
"536 0 LINE SMOOTH",
"565 0 OFFCURVE",
"587 22 OFFCURVE",
"587 51 CURVE SMOOTH",
"587 167 LINE SMOOTH",
"587 196 OFFCURVE",
"587 201 OFFCURVE",
"587 213 CURVE",
"587 218 LINE SMOOTH",
"587 224 OFFCURVE",
"587 222 OFFCURVE",
"587 228 CURVE SMOOTH",
"587 240 LINE SMOOTH",
"587 246 OFFCURVE",
"587 244 OFFCURVE",
"587 250 CURVE SMOOTH",
"587 255 LINE",
"587 265 OFFCURVE",
"587 285 OFFCURVE",
"587 332 CURVE SMOOTH",
"587 418 LINE SMOOTH",
"587 465 OFFCURVE",
"552 500 OFFCURVE",
"505 500 CURVE SMOOTH",
"101 500 LINE SMOOTH",
"72 500 OFFCURVE",
"50 478 OFFCURVE",
"50 449 CURVE SMOOTH"
);
},
{
closed = 1;
nodes = (
"311 300 LINE SMOOTH",
"311 306 OFFCURVE",
"311 306 OFFCURVE",
"311 310 CURVE SMOOTH",
"311 310 LINE SMOOTH",
"311 306 OFFCURVE",
"311 306 OFFCURVE",
"311 300 CURVE SMOOTH",
"311 290 LINE SMOOTH",
"311 284 OFFCURVE",
"311 283 OFFCURVE",
"311 280 CURVE SMOOTH",
"311 280 LINE SMOOTH",
"311 284 OFFCURVE",
"311 284 OFFCURVE",
"311 290 CURVE SMOOTH"
);
}
);
width = 637;
},
{
layerId = "D5846C3A-916F-42E8-8837-99B20A1F62F9";
paths = (
{
closed = 1;
nodes = (
"50 51 LINE SMOOTH",
"50 22 OFFCURVE",
"72 0 OFFCURVE",
"101 0 CURVE SMOOTH",
"129 0 LINE SMOOTH",
"158 0 OFFCURVE",
"180 22 OFFCURVE",
"180 51 CURVE SMOOTH",
"180 58 LINE SMOOTH",
"180 64 OFFCURVE",
"184 68 OFFCURVE",
"190 68 CURVE SMOOTH",
"200 68 LINE SMOOTH",
"206 68 OFFCURVE",
"210 64 OFFCURVE",
"210 58 CURVE SMOOTH",
"210 51 LINE SMOOTH",
"210 22 OFFCURVE",
"232 0 OFFCURVE",
"261 0 CURVE SMOOTH",
"536 0 LINE SMOOTH",
"565 0 OFFCURVE",
"587 22 OFFCURVE",
"587 51 CURVE SMOOTH",
"587 167 LINE SMOOTH",
"587 196 OFFCURVE",
"565 218 OFFCURVE",
"536 218 CURVE SMOOTH",
"500 218 LINE SMOOTH",
"494 218 OFFCURVE",
"490 222 OFFCURVE",
"490 228 CURVE SMOOTH",
"490 240 LINE SMOOTH",
"490 246 OFFCURVE",
"494 250 OFFCURVE",
"500 250 CURVE SMOOTH",
"505 250 LINE SMOOTH",
"552 250 OFFCURVE",
"587 285 OFFCURVE",
"587 332 CURVE SMOOTH",
"587 418 LINE SMOOTH",
"587 465 OFFCURVE",
"552 500 OFFCURVE",
"505 500 CURVE SMOOTH",
"101 500 LINE SMOOTH",
"72 500 OFFCURVE",
"50 478 OFFCURVE",
"50 449 CURVE SMOOTH"
);
},
{
closed = 1;
nodes = (
"280 300 LINE SMOOTH",
"280 306 OFFCURVE",
"284 310 OFFCURVE",
"290 310 CURVE SMOOTH",
"347 310 LINE SMOOTH",
"353 310 OFFCURVE",
"357 306 OFFCURVE",
"357 300 CURVE SMOOTH",
"357 290 LINE SMOOTH",
"357 284 OFFCURVE",
"353 280 OFFCURVE",
"347 280 CURVE SMOOTH",
"290 280 LINE SMOOTH",
"284 280 OFFCURVE",
"280 284 OFFCURVE",
"280 290 CURVE SMOOTH"
);
}
);
width = 637;
},
{
layerId = "B57C1444-1622-4D1A-A412-9270A2806B96";
paths = (
{
closed = 1;
nodes = (
"50 51 LINE SMOOTH",
"50 22 OFFCURVE",
"72 0 OFFCURVE",
"101 0 CURVE SMOOTH",
"129 0 LINE SMOOTH",
"158 0 OFFCURVE",
"180 22 OFFCURVE",
"180 51 CURVE SMOOTH",
"180 129 LINE SMOOTH",
"180 136 OFFCURVE",
"184 139 OFFCURVE",
"190 139 CURVE SMOOTH",
"200 139 LINE SMOOTH",
"206 139 OFFCURVE",
"210 136 OFFCURVE",
"210 129 CURVE SMOOTH",
"210 51 LINE SMOOTH",
"210 22 OFFCURVE",
"232 0 OFFCURVE",
"261 0 CURVE SMOOTH",
"536 0 LINE SMOOTH",
"565 0 OFFCURVE",
"587 22 OFFCURVE",
"587 51 CURVE SMOOTH",
"587 167 LINE SMOOTH",
"587 196 OFFCURVE",
"565 218 OFFCURVE",
"536 218 CURVE SMOOTH",
"357 218 LINE SMOOTH",
"351 218 OFFCURVE",
"347 222 OFFCURVE",
"347 228 CURVE SMOOTH",
"347 240 LINE SMOOTH",
"347 246 OFFCURVE",
"351 250 OFFCURVE",
"357 250 CURVE SMOOTH",
"505 250 LINE SMOOTH",
"552 250 OFFCURVE",
"587 285 OFFCURVE",
"587 332 CURVE SMOOTH",
"587 418 LINE SMOOTH",
"587 465 OFFCURVE",
"552 500 OFFCURVE",
"505 500 CURVE SMOOTH",
"101 500 LINE SMOOTH",
"72 500 OFFCURVE",
"50 478 OFFCURVE",
"50 449 CURVE SMOOTH"
);
},
{
closed = 1;
nodes = (
"223 300 LINE SMOOTH",
"223 306 OFFCURVE",
"227 310 OFFCURVE",
"233 310 CURVE SMOOTH",
"404 310 LINE SMOOTH",
"410 310 OFFCURVE",
"414 306 OFFCURVE",
"414 300 CURVE SMOOTH",
"414 290 LINE SMOOTH",
"414 284 OFFCURVE",
"410 280 OFFCURVE",
"404 280 CURVE SMOOTH",
"233 280 LINE SMOOTH",
"227 280 OFFCURVE",
"223 284 OFFCURVE",
"223 290 CURVE SMOOTH"
);
}
);
width = 637;
},
{
layerId = "106BB046-A4A4-4FD5-B9BF-C98528C7FAAB";
paths = (
{
closed = 1;
nodes = (
"50 51 LINE SMOOTH",
"50 22 OFFCURVE",
"72 0 OFFCURVE",
"101 0 CURVE SMOOTH",
"129 0 LINE SMOOTH",
"158 0 OFFCURVE",
"180 22 OFFCURVE",
"180 51 CURVE SMOOTH",
"180 208 LINE SMOOTH",
"180 214 OFFCURVE",
"184 218 OFFCURVE",
"190 218 CURVE SMOOTH",
"200 218 LINE SMOOTH",
"206 218 OFFCURVE",
"210 214 OFFCURVE",
"210 208 CURVE SMOOTH",
"210 51 LINE SMOOTH",
"210 22 OFFCURVE",
"232 0 OFFCURVE",
"261 0 CURVE SMOOTH",
"536 0 LINE SMOOTH",
"565 0 OFFCURVE",
"587 22 OFFCURVE",
"587 51 CURVE SMOOTH",
"587 167 LINE SMOOTH",
"587 196 OFFCURVE",
"565 218 OFFCURVE",
"536 218 CURVE SMOOTH",
"250 218 LINE SMOOTH",
"244 218 OFFCURVE",
"240 222 OFFCURVE",
"240 228 CURVE SMOOTH",
"240 240 LINE SMOOTH",
"240 246 OFFCURVE",
"244 250 OFFCURVE",
"250 250 CURVE SMOOTH",
"505 250 LINE SMOOTH",
"552 250 OFFCURVE",
"587 285 OFFCURVE",
"587 332 CURVE SMOOTH",
"587 418 LINE SMOOTH",
"587 465 OFFCURVE",
"552 500 OFFCURVE",
"505 500 CURVE SMOOTH",
"101 500 LINE SMOOTH",
"72 500 OFFCURVE",
"50 478 OFFCURVE",
"50 449 CURVE SMOOTH"
);
},
{
closed = 1;
nodes = (
"180 300 LINE SMOOTH",
"180 306 OFFCURVE",
"184 310 OFFCURVE",
"190 310 CURVE SMOOTH",
"447 310 LINE SMOOTH",
"453 310 OFFCURVE",
"457 306 OFFCURVE",
"457 300 CURVE SMOOTH",
"457 290 LINE SMOOTH",
"457 284 OFFCURVE",
"453 280 OFFCURVE",
"447 280 CURVE SMOOTH",
"190 280 LINE SMOOTH",
"184 280 OFFCURVE",
"180 284 OFFCURVE",
"180 290 CURVE SMOOTH"
);
}
);
width = 637;
}
);
unicode = 0072;
},
